# Blender v2.81 (sub 16) OBJ File: 'classroom.blend'
# www.blender.org
mtllib wall.mtl
o wall_Flower_pot
v -121.712143 474.581818 66.190338
v -128.062134 474.581818 66.190338
v -121.712158 474.581818 -0.484661
v -128.062149 474.581818 -0.484657
v -121.712143 487.281830 66.190338
v -121.712158 487.281830 -0.484661
v -128.062149 487.281830 -0.484657
v -128.062134 296.781830 66.190338
v -121.712143 296.781830 66.190338
v -32.812134 474.581818 66.190308
v -32.812134 296.781830 66.190308
v -26.462158 474.581818 66.190308
v -26.462158 296.781830 66.190308
v -32.812134 487.281830 66.190308
v -32.812134 284.081848 66.190308
v -121.712143 284.081848 66.190338
v -32.812134 296.781830 -0.484692
v -26.462158 296.781830 -0.484692
v -32.812134 284.081848 -0.484692
v -26.462158 284.081848 -0.484692
v -32.812134 474.581818 -0.484692
v -32.812134 487.281830 -0.484692
v -26.462158 474.581818 -0.484692
v -26.462158 487.281830 -0.484692
v -128.062149 296.781830 -0.484657
v -121.712158 296.781830 -0.484661
v -121.712158 284.081848 -0.484661
v -128.062149 284.081848 -0.484657
v -26.462158 487.281830 72.540306
v -128.062134 487.281830 72.540344
v -26.462158 284.081848 72.540306
v -128.062134 284.081848 72.540344
vt -0.000000 0.000000
vt 0.635000 0.000000
vt -0.000000 6.667500
vt 0.635000 6.667500
vt -0.000000 0.000000
vt 1.270000 0.000000
vt -0.000000 6.667500
vt 1.270000 6.667500
vt 0.635000 0.317500
vt -0.635000 0.317500
vt 0.635000 -0.317500
vt -0.635000 -0.317500
vt -5.080000 -8.890000
vt -4.445000 -8.890000
vt -5.080000 8.890000
vt -4.445000 8.890000
vt 4.445000 -8.890000
vt 4.445000 8.890000
vt 5.080000 -8.890000
vt 5.080000 8.890000
vt -4.445000 -10.160000
vt 4.445000 -10.160000
vt 4.445000 10.160000
vt -4.445000 10.160000
vt 0.000000 0.000000
vt 0.635000 0.000000
vt 0.000000 6.667500
vt 0.635000 6.667500
vt 0.000000 0.000000
vt 1.270000 0.000000
vt 0.000000 6.667500
vt 1.270000 6.667500
vt -0.635000 -0.317500
vt 0.635000 -0.317500
vt -0.635000 0.317500
vt 0.635000 0.317500
vt 0.000000 0.000000
vt 1.270000 0.000000
vt 0.000000 6.667500
vt 1.270000 6.667500
vt -0.000000 0.000000
vt 0.635000 0.000000
vt -0.000000 6.667500
vt 0.635000 6.667500
vt 0.635000 0.317500
vt -0.635000 0.317500
vt 0.635000 -0.317500
vt -0.635000 -0.317500
vt 0.000000 0.000000
vt 0.635000 0.000000
vt 0.000000 6.667500
vt 0.635000 6.667500
vt -0.000000 0.000000
vt 1.270000 0.000000
vt -0.000000 6.667500
vt 1.270000 6.667500
vt 0.635000 0.317500
vt -0.635000 0.317500
vt 0.635000 -0.317500
vt -0.635000 -0.317500
vt -5.080000 -10.160000
vt 5.080000 -10.160000
vt -5.080000 10.160000
vt 5.080000 10.160000
vt -6.985000 -4.445000
vt -6.985000 -5.080000
vt -0.317500 -4.445000
vt 0.317500 -5.080000
vt -0.317500 4.445000
vt 0.317500 5.080000
vt -6.985000 5.080000
vt -6.985000 4.445000
vt 6.985000 8.890000
vt 6.985000 10.160000
vt 0.317500 8.890000
vt -0.317500 10.160000
vt -0.317500 -10.160000
vt 0.317500 -8.890000
vt 6.985000 -10.160000
vt 6.985000 -8.890000
vt 6.985000 4.445000
vt 6.985000 5.080000
vt 0.317500 4.445000
vt -0.317500 5.080000
vt -0.317500 -5.080000
vt 0.317500 -4.445000
vt 6.985000 -5.080000
vt 6.985000 -4.445000
vt -6.985000 -8.890000
vt -6.985000 -10.160000
vt -0.317500 -8.890000
vt 0.317500 -10.160000
vt -0.317500 8.890000
vt 0.317500 10.160000
vt -6.985000 10.160000
vt -6.985000 8.890000
vn 0.0000 -1.0000 -0.0000
vn 1.0000 0.0000 -0.0000
vn -0.0000 0.0000 -1.0000
vn 0.0000 1.0000 0.0000
vn -1.0000 0.0000 0.0000
vn 0.0000 0.0000 1.0000
usemtl Steel_-_Satin.005
s 1
f 1/1/1 2/2/1 3/3/1
f 3/3/1 2/2/1 4/4/1
f 5/5/2 1/6/2 6/7/2
f 6/7/2 1/6/2 3/8/2
f 6/9/3 3/10/3 7/11/3
f 7/11/3 3/10/3 4/12/3
f 2/13/3 1/14/3 8/15/3
f 8/15/3 1/14/3 9/16/3
f 9/16/3 1/14/3 10/17/3
f 9/16/3 10/17/3 11/18/3
f 11/18/3 10/17/3 12/19/3
f 11/18/3 12/19/3 13/20/3
f 5/21/3 14/22/3 1/14/3
f 1/14/3 14/22/3 10/17/3
f 15/23/3 16/24/3 11/18/3
f 11/18/3 16/24/3 9/16/3
f 11/25/4 13/26/4 17/27/4
f 17/27/4 13/26/4 18/28/4
f 15/29/5 11/30/5 19/31/5
f 19/31/5 11/30/5 17/32/5
f 19/33/3 17/34/3 20/35/3
f 20/35/3 17/34/3 18/36/3
f 10/37/5 14/38/5 21/39/5
f 21/39/5 14/38/5 22/40/5
f 12/41/1 10/42/1 23/43/1
f 23/43/1 10/42/1 21/44/1
f 24/45/3 23/46/3 22/47/3
f 22/47/3 23/46/3 21/48/3
f 8/49/4 9/50/4 25/51/4
f 25/51/4 9/50/4 26/52/4
f 9/53/2 16/54/2 26/55/2
f 26/55/2 16/54/2 27/56/2
f 26/57/3 27/58/3 25/59/3
f 25/59/3 27/58/3 28/60/3
f 29/61/6 30/62/6 31/63/6
f 31/63/6 30/62/6 32/64/6
f 6/65/4 7/66/4 5/67/4
f 5/67/4 7/66/4 30/68/4
f 5/67/4 30/68/4 14/69/4
f 14/69/4 30/68/4 29/70/4
f 14/69/4 29/70/4 24/71/4
f 24/71/4 22/72/4 14/69/4
f 25/73/5 28/74/5 8/75/5
f 8/75/5 28/74/5 32/76/5
f 8/75/5 32/76/5 30/77/5
f 8/75/5 30/77/5 2/78/5
f 2/78/5 30/77/5 7/79/5
f 2/78/5 7/79/5 4/80/5
f 19/81/1 20/82/1 15/83/1
f 15/83/1 20/82/1 31/84/1
f 15/83/1 31/84/1 32/85/1
f 15/83/1 32/85/1 16/86/1
f 16/86/1 32/85/1 28/87/1
f 16/86/1 28/87/1 27/88/1
f 23/89/2 24/90/2 12/91/2
f 12/91/2 24/90/2 29/92/2
f 12/91/2 29/92/2 13/93/2
f 13/93/2 29/92/2 31/94/2
f 13/93/2 31/94/2 20/95/2
f 20/95/2 18/96/2 13/93/2
o wall.005_Flower_pot.005
v -333.937256 740.685059 1.062996
v -333.937469 740.684998 455.087982
v 72.458344 742.572021 1.063217
v 72.458099 742.571899 455.088226
v -331.121552 134.266632 1.062943
v 75.274048 136.153625 1.063160
v 72.443359 745.746948 455.088226
v 72.443604 745.747009 -2.111797
v 75.274048 136.153625 -2.111855
v -331.121765 134.266602 455.087952
v -343.476898 743.815796 -2.112011
v -343.477112 743.815796 455.087982
v -340.646454 134.222412 -2.112068
v -340.646667 134.222351 455.087952
vt -0.000000 0.000000
vt 45.402500 0.000000
vt -0.000000 40.639999
vt 45.402500 40.639999
vt 0.000000 0.000000
vt 60.642502 0.000000
vt 0.000000 40.639999
vt 60.642502 40.639999
vt 30.162500 -22.860001
vt 30.480000 -22.860001
vt 30.162500 22.542500
vt 30.480000 22.860001
vt -30.480000 22.860001
vt -30.480000 22.542500
vt 22.542500 30.480000
vt -22.860001 30.480000
vt 22.542500 -30.162500
vt -22.860001 -30.162500
vt -22.860001 -30.480000
vt 22.860001 -30.480000
vt -22.860001 30.480000
vt 22.860001 30.480000
vt -41.116249 -22.860001
vt 0.476250 -22.860001
vt -41.116249 22.860001
vt 0.476250 22.860001
vt 0.476250 30.480000
vt -0.476250 30.480000
vt 0.476250 -30.162500
vt -0.476250 -30.480000
vt 41.116249 -30.480000
vt 41.116249 -30.162500
vt 41.116249 22.542500
vt 41.116249 22.860001
vt 0.476250 22.542500
vt -0.476250 22.860001
vt -0.476250 -22.860001
vt 0.476250 -22.860001
vt -41.116249 -30.480000
vt 0.476250 -30.480000
vt -41.116249 30.480000
vt 0.476250 30.480000
vn -0.0046 1.0000 0.0000
vn 0.0000 0.0000 -1.0000
vn -1.0000 -0.0046 -0.0000
vn 1.0000 0.0046 0.0000
vn 0.0046 -1.0000 0.0000
vn -0.0000 -0.0000 1.0000
usemtl Steel_-_Satin
s 1
f 33/97/7 34/98/7 35/99/7
f 35/99/7 34/98/7 36/100/7
f 37/101/8 33/102/8 38/103/8
f 38/103/8 33/102/8 35/104/8
f 36/105/9 39/106/9 35/107/9
f 35/107/9 39/106/9 40/108/9
f 35/107/9 40/108/9 41/109/9
f 41/109/9 38/110/9 35/107/9
f 37/111/9 42/112/9 33/113/9
f 33/113/9 42/112/9 34/114/9
f 43/115/10 44/116/10 45/117/10
f 45/117/10 44/116/10 46/118/10
f 39/119/11 44/120/11 40/121/11
f 40/121/11 44/120/11 43/122/11
f 42/123/8 46/124/8 34/125/8
f 34/125/8 46/124/8 44/126/8
f 34/125/8 44/126/8 39/127/8
f 39/127/8 36/128/8 34/125/8
f 38/129/7 41/130/7 37/131/7
f 37/131/7 41/130/7 45/132/7
f 37/131/7 45/132/7 46/133/7
f 46/133/7 42/134/7 37/131/7
f 40/135/12 43/136/12 41/137/12
f 41/137/12 43/136/12 45/138/12
