# Blender v2.81 (sub 16) OBJ File: 'zoetrope-backflip-boy-separate-booleaned.blend'
# www.blender.org
mtllib 10.mtl
o back11_zoetrope.567
v 0.000414 0.039440 0.253913
v -0.000496 0.038962 0.249850
v -0.002790 0.032665 0.239430
v -0.001358 0.037629 0.245972
v -0.001824 0.003066 0.242695
v -0.003635 0.025407 0.235419
v -0.001008 0.001005 0.246252
v -0.000122 -0.000251 0.250150
v -0.002534 0.005840 0.239635
v -0.003107 0.009207 0.237206
v -0.003517 0.013019 0.235514
v -0.003747 0.017109 0.234632
v -0.003787 0.021300 0.234600
v -0.003298 0.029252 0.237053
v -0.002134 0.035499 0.242447
v -0.001201 0.028364 0.245752
v 0.000161 0.031036 0.249927
v -0.002154 0.010029 0.246483
v -0.002250 0.024142 0.243014
v 0.000324 0.007157 0.255798
v -0.000389 0.007095 0.253314
v -0.001656 0.008563 0.248553
v -0.001059 0.007571 0.250864
v -0.002531 0.011904 0.244745
v -0.002772 0.014106 0.243414
v -0.002865 0.016540 0.242549
v -0.002806 0.019098 0.242187
v -0.002598 0.021670 0.242344
v -0.001778 0.026406 0.244166
v -0.000545 0.029930 0.247700
v 0.000135 0.084319 0.108454
v -0.000075 0.084135 0.111138
v 0.000365 0.083939 0.105793
v 0.000605 0.083013 0.103270
v -0.000255 0.083396 0.113726
v -0.000397 0.082134 0.116107
v -0.000075 0.065396 0.120351
v -0.000546 0.078283 0.119841
v -0.000495 0.080405 0.118175
v -0.000546 0.075862 0.121031
v -0.000495 0.073247 0.121694
v -0.000397 0.070553 0.121801
v -0.000255 0.067898 0.121347
v 0.000365 0.061283 0.116933
v 0.000605 0.059851 0.114659
v 0.000134 0.063159 0.118858
v 0.000411 -0.020421 -0.260084
v 0.000197 -0.020845 -0.258814
v 0.000000 -0.021528 -0.257660
v -0.000335 -0.030025 -0.255924
v -0.000306 -0.023540 -0.255890
v -0.000170 -0.022440 -0.256671
v -0.000402 -0.024781 -0.255353
v -0.000455 -0.026109 -0.255082
v -0.000461 -0.027464 -0.255089
v -0.000420 -0.028789 -0.255374
v 0.000355 -0.033107 -0.260150
v 0.000577 -0.033243 -0.261480
v -0.000046 -0.032021 -0.257714
v 0.000144 -0.032694 -0.258876
v -0.000208 -0.031119 -0.256716
v 0.000064 -0.051278 -0.286392
v -0.000588 -0.051529 -0.282980
v -0.001188 -0.052496 -0.279689
v -0.001709 -0.054137 -0.276662
v -0.001888 -0.075762 -0.271255
v -0.002429 -0.059126 -0.271912
v -0.002129 -0.056379 -0.274031
v -0.002597 -0.062258 -0.270397
v -0.002625 -0.065636 -0.269553
v -0.002512 -0.069114 -0.269415
v -0.002262 -0.072539 -0.269991
v 0.000472 -0.084073 -0.281694
v -0.000832 -0.081054 -0.275598
v -0.000198 -0.082891 -0.278488
v -0.001404 -0.078642 -0.273152
v -0.010271 -0.455799 -0.286415
v 0.000606 -0.455799 -0.286415
v 0.000606 0.468770 -0.286415
v -0.010271 0.468770 -0.286415
v -0.010271 -0.455799 0.257449
v -0.010271 0.468770 0.257450
v 0.000606 -0.455799 0.257449
v 0.000606 0.468770 0.257450
v 0.000606 -0.075220 -0.285774
v 0.000606 -0.060606 -0.285702
v 0.000606 -0.084168 -0.282367
v 0.000606 -0.084068 -0.281669
v 0.000606 -0.084068 -0.281668
v 0.000606 -0.033224 -0.261655
v 0.000606 -0.033243 -0.261476
v 0.000606 -0.033243 -0.261476
v 0.000606 -0.033109 -0.260108
v 0.000606 -0.033109 -0.260108
v 0.000606 -0.032697 -0.258799
v 0.000606 -0.032697 -0.258799
v 0.000606 -0.075670 -0.270777
v 0.000606 -0.075662 -0.270771
v 0.000606 -0.078567 -0.272768
v 0.000606 -0.078562 -0.272762
v 0.000606 -0.080999 -0.275324
v 0.000606 -0.080996 -0.275319
v 0.000606 -0.082858 -0.278332
v 0.000606 -0.082859 -0.278335
v 0.000606 -0.056278 -0.273494
v 0.000606 -0.056270 -0.273501
v 0.000606 -0.020422 -0.260051
v 0.000606 -0.020422 -0.260051
v 0.000606 -0.020292 -0.261246
v 0.000606 -0.059015 -0.271318
v 0.000606 -0.059004 -0.271324
v 0.000606 -0.020848 -0.258745
v 0.000606 -0.020848 -0.258746
v 0.000606 -0.021532 -0.257558
v 0.000606 -0.021532 -0.257558
v 0.000606 -0.022445 -0.256540
v 0.000606 -0.022444 -0.256541
v 0.000606 -0.062141 -0.269773
v 0.000606 -0.062129 -0.269776
v 0.000606 -0.023546 -0.255737
v 0.000606 -0.023545 -0.255738
v 0.000606 -0.024788 -0.255184
v 0.000606 -0.024787 -0.255184
v 0.000606 -0.026114 -0.254905
v 0.000606 -0.026116 -0.254905
v 0.000606 -0.065518 -0.268926
v 0.000606 -0.065506 -0.268926
v 0.000606 -0.027470 -0.254911
v 0.000606 -0.028796 -0.255203
v 0.000606 -0.028795 -0.255202
v 0.000606 -0.027472 -0.254911
v 0.000606 -0.030031 -0.255767
v 0.000606 -0.030032 -0.255768
v 0.000606 -0.069000 -0.268813
v 0.000606 -0.068988 -0.268811
v 0.000606 -0.031124 -0.256581
v 0.000606 -0.031123 -0.256580
v 0.000606 -0.032025 -0.257606
v 0.000606 -0.032025 -0.257605
v 0.000606 -0.072434 -0.269439
v 0.000606 -0.072424 -0.269435
v 0.000606 0.009860 0.245689
v 0.000606 0.009854 0.245695
v 0.000606 0.011705 0.243849
v 0.000606 0.011713 0.243844
v 0.000606 0.013901 0.242446
v 0.000606 0.013892 0.242450
v 0.000606 0.007389 0.256733
v 0.000606 0.007139 0.255717
v 0.000606 0.007139 0.255716
v 0.000606 0.007032 0.253030
v 0.000606 0.007033 0.253027
v 0.000606 0.007467 0.250384
v 0.000606 0.007465 0.250388
v 0.000606 0.008423 0.247901
v 0.000606 0.008420 0.247907
v 0.000606 0.013070 0.234582
v 0.000606 0.013051 0.234587
v 0.000606 0.017164 0.233653
v 0.000606 0.017143 0.233653
v 0.000606 0.021334 0.233612
v 0.000606 0.003093 0.242140
v 0.000606 0.003085 0.242148
v 0.000606 0.001022 0.245882
v 0.000606 0.001018 0.245889
v 0.000606 0.009252 0.236364
v 0.000606 0.009236 0.236371
v 0.000606 0.005877 0.238920
v 0.000606 0.005865 0.238929
v 0.000606 -0.000245 0.249983
v 0.000606 -0.000246 0.249986
v 0.000606 -0.000567 0.253374
v 0.000606 -0.051256 -0.286284
v 0.000606 -0.051256 -0.286287
v 0.000606 -0.051274 -0.286415
v 0.000068 -0.051281 -0.286415
v 0.000606 -0.051481 -0.282749
v 0.000606 -0.051482 -0.282744
v 0.000606 -0.052427 -0.279335
v 0.000606 -0.052423 -0.279341
v 0.000606 -0.054049 -0.276206
v 0.000606 -0.054043 -0.276213
v 0.000606 0.016320 0.241558
v 0.000606 0.016330 0.241556
v 0.000606 0.018882 0.241213
v 0.000606 0.018892 0.241213
v 0.000606 0.021476 0.241432
v 0.000606 0.021467 0.241429
v 0.000606 0.023960 0.242198
v 0.000606 0.023968 0.242202
v 0.000606 0.026261 0.243490
v 0.000606 0.026255 0.243486
v 0.000606 0.028250 0.245236
v 0.000606 0.028253 0.245240
v 0.000606 0.029857 0.247372
v 0.000606 0.029859 0.247375
v 0.000606 0.031008 0.249801
v 0.000606 0.031008 0.249800
v 0.000606 0.031402 0.251404
v 0.000606 0.005550 0.253587
v 0.000606 0.023936 0.254228
v 0.000606 0.036136 0.254653
v 0.000606 0.034375 0.254591
v 0.000606 0.039264 0.254762
v 0.000606 0.039356 0.254765
v 0.000606 0.063508 0.112852
v 0.000606 0.072920 0.108224
v 0.000606 0.079178 0.105148
v 0.000606 0.081009 0.104248
v 0.000606 0.082009 0.103757
v 0.000606 0.002012 0.253464
v 0.000606 0.008069 0.256582
v 0.000606 0.011293 0.255867
v 0.000606 0.021133 0.253683
v 0.000606 0.030513 0.251601
v 0.000606 0.029192 0.251894
v 0.000606 0.027539 0.252261
v 0.000606 0.007551 0.256697
v 0.000606 -0.000379 0.253381
v 0.000606 0.031240 0.251440
v 0.000606 -0.031220 -0.261592
v 0.000606 -0.025344 -0.261406
v 0.000606 -0.020310 -0.261247
v 0.000606 -0.021365 -0.261280
v 0.000606 -0.021953 -0.261299
v 0.000606 -0.032388 -0.261629
v 0.000606 -0.033185 -0.261654
v 0.000606 -0.078838 -0.283473
v 0.000606 -0.065246 -0.286291
v 0.000606 -0.082581 -0.282696
v 0.000606 -0.083882 -0.282426
v 0.000606 -0.072919 -0.285762
v 0.000606 -0.066381 -0.285730
v 0.000606 -0.074276 -0.285769
v 0.000185 -0.054189 -0.286415
v 0.000251 -0.055827 -0.286415
v 0.000606 -0.064651 -0.286415
v 0.000606 -0.062551 -0.285712
v 0.000606 -0.061863 -0.285708
v 0.000606 -0.060609 -0.285702
v 0.000069 -0.051289 -0.286415
v 0.000606 -0.075213 -0.285774
v 0.000068 -0.051283 -0.286415
v 0.000606 0.021354 0.233616
v 0.000606 0.039441 0.253871
v 0.000606 0.039441 0.253870
v 0.000606 0.038971 0.249608
v 0.000606 0.038971 0.249602
v 0.000606 0.037647 0.245539
v 0.000606 0.037644 0.245530
v 0.000606 0.035527 0.241842
v 0.000606 0.035520 0.241831
v 0.000606 0.032703 0.238678
v 0.000606 0.032692 0.238666
v 0.000606 0.029297 0.236186
v 0.000606 0.029282 0.236175
v 0.000606 0.025459 0.234473
v 0.000606 0.025440 0.234465
v 0.000606 0.067929 0.121415
v 0.000606 0.067932 0.121416
v 0.000606 0.065422 0.120405
v 0.000606 0.065423 0.120406
v 0.000606 0.063178 0.118896
v 0.000606 0.063177 0.118895
v 0.000606 0.061293 0.116952
v 0.000606 0.061293 0.116951
v 0.000606 0.083949 0.105813
v 0.000606 0.083949 0.105812
v 0.000606 0.084338 0.108492
v 0.000606 0.084338 0.108494
v 0.000606 0.084162 0.111193
v 0.000606 0.084162 0.111195
v 0.000606 0.083430 0.113796
v 0.000606 0.083429 0.113798
v 0.000606 0.082174 0.116188
v 0.000606 0.082172 0.116190
v 0.000606 0.080446 0.118266
v 0.000606 0.080449 0.118264
v 0.000606 0.078326 0.119935
v 0.000606 0.078329 0.119934
v 0.000606 0.075904 0.121125
v 0.000606 0.075908 0.121124
v 0.000606 0.073291 0.121783
v 0.000606 0.073288 0.121783
v 0.000606 0.070593 0.121882
v 0.000606 0.070590 0.121881
vn -0.0139 -0.9951 -0.0979
vn -0.0135 -0.9954 -0.0944
vn 0.9756 0.0078 -0.2194
vn 0.0325 -0.9934 0.1096
vn 0.9756 0.0076 -0.2194
vn 0.1024 0.8681 0.4858
vn 0.1014 0.8707 0.4812
vn 0.1394 0.7506 0.6459
vn 0.0622 0.9489 0.3093
vn 0.0587 0.9539 0.2942
vn 0.1397 0.7495 0.6471
vn 0.1723 0.5924 0.7870
vn 0.1964 0.4159 0.8879
vn 0.1965 0.4154 0.8882
vn 0.2124 0.2196 0.9522
vn 0.9756 0.0077 -0.2194
vn 0.2126 0.2172 0.9527
vn 0.9756 0.0076 -0.2195
vn 0.2193 0.0096 0.9756
vn 0.2166 -0.1956 0.9565
vn 0.2165 -0.1986 0.9559
vn 0.2044 -0.3969 0.8948
vn 0.2194 0.0068 0.9756
vn 0.1718 0.5955 0.7848
vn 0.2043 -0.3980 0.8944
vn 0.1831 -0.5799 0.7939
vn 0.1831 -0.5800 0.7938
vn 0.1541 -0.7358 0.6594
vn 0.1179 -0.8612 0.4944
vn 0.0755 -0.9502 0.3023
vn 0.0769 -0.9480 0.3088
vn 0.0327 -0.9933 0.1110
vn 0.1539 -0.7367 0.6585
vn 0.9598 -0.0608 -0.2741
vn 0.0618 0.9981 0.0000
vn 0.0519 0.9979 -0.0398
vn 0.1152 0.9746 0.1921
vn 0.2065 0.8143 0.5424
vn 0.2042 0.8214 0.5326
vn 0.2390 0.6902 0.6830
vn 0.1582 0.9235 0.3494
vn 0.1596 0.9214 0.3544
vn 0.9598 -0.0610 -0.2741
vn 0.1081 0.9810 0.1608
vn 0.2398 0.6855 0.6874
vn 0.2653 0.5167 0.8140
vn 0.2785 0.3315 0.9014
vn 0.2784 0.3312 0.9015
vn 0.2798 0.1300 0.9512
vn 0.2798 0.1282 0.9515
vn 0.9599 -0.0608 -0.2738
vn 0.9598 -0.0609 -0.2741
vn 0.2690 -0.0804 0.9598
vn 0.2465 -0.2851 0.9263
vn 0.2464 -0.2856 0.9261
vn 0.2132 -0.4763 0.8530
vn 0.2687 -0.0830 0.9596
vn 0.2649 0.5197 0.8122
vn 0.2130 -0.4781 0.8521
vn 0.1730 -0.6412 0.7476
vn 0.1704 -0.6499 0.7407
vn 0.1196 -0.7943 0.5957
vn 0.0705 -0.8945 0.4414
vn 0.0649 -0.9018 0.4272
vn 0.0056 -0.9710 0.2392
vn 0.0067 -0.9711 0.2387
vn 0.9598 -0.0611 -0.2739
vn 0.1202 -0.7932 0.5970
vn 0.0446 -0.9971 -0.0615
vn 0.0449 -0.9969 -0.0648
vn 0.9960 0.0393 0.0804
vn 0.9960 0.0394 0.0805
vn 0.0277 -0.9893 0.1435
vn 0.9960 0.0395 0.0805
vn 0.9960 0.0396 0.0805
vn 0.0600 -0.9609 -0.2702
vn 0.0737 -0.8708 -0.4860
vn 0.0725 -0.8830 -0.4637
vn 0.9960 0.0395 0.0804
vn 0.0877 -0.2433 -0.9660
vn 0.0820 -0.0387 -0.9959
vn 0.0819 -0.0364 -0.9960
vn 0.9960 0.0395 0.0807
vn 0.0726 0.1719 -0.9824
vn 0.0590 0.3816 -0.9225
vn 0.0600 0.3728 -0.9260
vn 0.0413 0.5918 -0.8050
vn 0.0833 -0.7524 -0.6534
vn 0.0819 -0.7665 -0.6370
vn 0.0878 -0.6040 -0.7921
vn 0.0897 -0.4363 -0.8953
vn 0.0897 -0.4395 -0.8938
vn 0.0876 -0.2364 -0.9677
vn 0.0877 -0.6164 -0.7825
vn 0.0094 -0.9384 0.3454
vn 0.0303 -0.9936 0.1089
vn 0.0052 0.8617 -0.5073
vn 0.0092 0.8465 -0.5323
vn 0.9960 0.0394 0.0806
vn 0.0448 0.5574 -0.8290
vn 0.0243 0.7478 -0.6635
vn 0.0276 0.7177 -0.6958
vn 0.0732 0.1646 -0.9836
vn 0.0619 -0.9563 -0.2858
vn 0.9863 -0.0054 0.1648
vn 0.9863 -0.0053 0.1648
vn 0.0468 -0.9497 -0.3097
vn 0.0836 -0.8447 -0.5287
vn 0.0786 -0.8638 -0.4976
vn 0.9863 -0.0052 0.1648
vn 0.9863 -0.0050 0.1647
vn 0.9863 -0.0050 0.1650
vn 0.9863 -0.0053 0.1647
vn 0.1603 -0.2036 -0.9658
vn 0.1647 0.0001 -0.9863
vn 0.1648 0.0044 -0.9863
vn 0.9864 -0.0052 0.1643
vn 0.9863 -0.0053 0.1650
vn 0.1622 0.2122 -0.9637
vn 0.1523 0.4066 -0.9008
vn 0.1524 0.4107 -0.8989
vn 0.1309 0.6346 -0.7617
vn 0.0406 0.9791 -0.1991
vn 0.0216 0.9950 -0.0980
vn 0.0028 0.9988 0.0484
vn -0.0125 0.9940 0.1088
vn 0.1103 -0.7282 -0.6764
vn 0.1070 -0.7402 -0.6638
vn 0.1304 -0.5865 -0.7994
vn 0.1487 -0.3990 -0.9048
vn 0.1488 -0.4027 -0.9032
vn 0.1599 -0.2104 -0.9644
vn 0.1308 -0.5842 -0.8010
vn 0.0780 0.8948 -0.4396
vn 0.0863 0.8682 -0.4886
vn 0.0261 0.9933 -0.1127
vn 0.9863 -0.0053 0.1649
vn 0.0550 0.9524 -0.2999
vn 0.9863 -0.0051 0.1648
vn 0.1359 0.5913 -0.7949
vn 0.1017 0.8053 -0.5841
vn 0.1136 0.7461 -0.6561
vn 0.1620 0.2103 -0.9641
vn 0.0404 -0.9588 -0.2812
vn 0.0467 -0.9982 -0.0373
vn 0.0524 -0.9966 -0.0633
vn 0.9810 0.0393 0.1902
vn 0.9791 0.1012 0.1766
vn 0.9809 0.0395 0.1903
vn 0.9804 0.0438 0.1923
vn 0.0901 -0.9599 -0.2656
vn 0.1248 -0.8789 -0.4604
vn 0.1239 -0.8811 -0.4563
vn 0.9809 0.0394 0.1902
vn 0.9809 0.0395 0.1902
vn 0.9809 0.0394 0.1903
vn 0.1941 -0.2395 -0.9513
vn 0.1914 -0.0332 -0.9810
vn 0.1916 -0.0325 -0.9809
vn 0.9810 0.0395 0.1902
vn 0.1806 0.1758 -0.9677
vn 0.1613 0.3787 -0.9114
vn 0.1618 0.3765 -0.9122
vn 0.1357 0.5624 -0.8156
vn -0.0377 0.9990 -0.0254
vn -0.0129 0.9898 -0.1419
vn 0.1530 -0.7619 -0.6293
vn 0.1523 -0.7639 -0.6271
vn 0.1736 -0.6180 -0.7668
vn 0.1882 -0.4390 -0.8786
vn 0.1882 -0.4359 -0.8801
vn 0.1941 -0.2440 -0.9502
vn 0.1741 -0.6133 -0.7704
vn 0.0689 0.8472 -0.5267
vn 0.0677 0.8486 -0.5247
vn 0.0234 0.9482 -0.3168
vn 0.0282 0.9398 -0.3406
vn 0.9809 0.0390 0.1904
vn 0.9809 0.0396 0.1903
vn 0.1359 0.5607 -0.8168
vn 0.1049 0.7164 -0.6898
vn 0.1040 0.7204 -0.6857
vn 0.1806 0.1754 -0.9678
vn 0.0931 -0.9549 -0.2819
vn -0.0000 -1.0000 0.0000
vn 0.0000 0.0000 -1.0000
vn -1.0000 0.0000 -0.0000
vn 0.0000 -0.0000 1.0000
vn 1.0000 0.0000 0.0000
vn 0.0000 1.0000 0.0000
vn 1.0000 0.0000 -0.0001
vn -0.0065 0.9710 -0.2388
vn 0.9863 -0.0071 0.1647
vn 0.9598 -0.0606 -0.2741
vn 0.0001 0.0000 -1.0000
vn 0.9598 -0.0607 -0.2742
vn 0.0130 -0.9940 -0.1083
vn 0.0123 -0.9897 0.1423
vn 0.0135 0.9954 0.0944
usemtl Default_OBJ
s off
f 1//1 246//1 245//1
f 1//2 245//2 205//2
f 1//3 4//3 2//3
f 2//4 247//4 246//4 1//4
f 1//5 3//5 4//5
f 5//5 201//5 200//5
f 7//6 165//6 164//6
f 7//7 164//7 163//7 5//7
f 5//8 163//8 162//8
f 8//9 171//9 170//9
f 8//10 170//10 165//10 7//10
f 5//5 219//5 172//5 8//5
f 5//5 8//5 7//5
f 5//11 162//11 169//11 9//11
f 9//12 169//12 168//12
f 10//13 167//13 166//13
f 10//14 166//14 158//14 11//14
f 11//15 158//15 157//15
f 11//16 9//16 10//16
f 11//17 157//17 160//17 12//17
f 11//18 12//18 13//18
f 11//5 5//5 9//5
f 5//5 11//5 13//5
f 12//19 159//19 161//19 13//19
f 13//20 161//20 244//20
f 13//21 244//21 258//21 6//21
f 13//5 6//5 5//5
f 6//22 258//22 257//22
f 12//23 160//23 159//23
f 9//24 168//24 167//24 10//24
f 6//25 257//25 256//25 14//25
f 14//26 256//26 255//26
f 14//27 255//27 254//27 3//27
f 3//28 254//28 253//28
f 15//29 252//29 251//29
f 15//29 251//29 250//29 4//29
f 4//30 250//30 249//30
f 4//31 249//31 248//31 2//31
f 2//32 248//32 247//32
f 4//16 3//16 15//16
f 3//33 253//33 252//33 15//33
f 14//16 3//16 6//16
f 5//16 200//16 211//16
f 18//34 214//34 213//34
f 20//35 149//35 150//35
f 20//36 150//36 151//36 21//36
f 21//37 151//37 152//37
f 22//38 156//38 155//38
f 22//39 155//39 143//39 18//39
f 18//40 143//40 142//40
f 23//41 154//41 153//41
f 23//42 153//42 156//42 22//42
f 18//43 21//43 23//43
f 21//44 152//44 154//44 23//44
f 18//34 23//34 22//34
f 18//45 142//45 144//45 24//45
f 24//46 144//46 145//46
f 25//47 147//47 146//47
f 25//48 146//48 183//48 26//48
f 26//49 183//49 184//49
f 26//34 24//34 25//34
f 26//50 184//50 185//50 27//50
f 26//51 27//51 28//51
f 26//52 18//52 24//52
f 18//34 26//34 28//34
f 27//53 186//53 188//53 28//53
f 28//54 188//54 187//54
f 28//55 187//55 189//55 19//55
f 28//34 19//34 18//34
f 19//56 189//56 190//56
f 27//57 185//57 186//57
f 24//58 145//58 147//58 25//58
f 19//59 190//59 192//59 29//59
f 29//60 192//60 191//60
f 29//61 191//61 193//61 16//61
f 16//62 193//62 194//62
f 30//63 195//63 196//63
f 30//64 196//64 198//64 17//64
f 17//65 198//65 197//65
f 17//66 197//66 199//66
f 17//67 16//67 30//67
f 16//68 194//68 195//68 30//68
f 29//52 16//52 19//52
f 18//34 213//34 212//34
f 31//69 269//69 270//69
f 31//70 270//70 271//70 32//70
f 35//71 31//71 32//71
f 31//72 34//72 33//72
f 33//73 267//73 269//73 31//73
f 35//74 209//74 210//74 31//74
f 31//75 210//75 34//75
f 32//76 272//76 273//76 35//76
f 35//77 273//77 274//77
f 35//78 274//78 275//78 36//78
f 35//79 36//79 39//79
f 35//75 207//75 208//75
f 41//75 37//75 35//75
f 35//75 208//75 209//75
f 40//75 35//75 38//75
f 38//75 35//75 39//75
f 41//74 35//74 40//74
f 40//80 281//80 283//80 41//80
f 41//81 283//81 284//81
f 41//82 284//82 285//82 42//82
f 43//83 41//83 42//83
f 41//83 43//83 37//83
f 42//84 286//84 260//84 43//84
f 43//85 260//85 259//85
f 43//86 259//86 262//86 37//86
f 37//87 262//87 261//87
f 36//88 275//88 276//88
f 36//89 276//89 278//89 39//89
f 39//90 278//90 277//90
f 38//91 280//91 279//91
f 38//92 279//92 282//92 40//92
f 40//93 282//93 281//93
f 39//94 277//94 280//94 38//94
f 34//95 268//95 33//95
f 33//96 268//96 267//96
f 44//97 265//97 266//97
f 44//98 266//98 45//98
f 45//75 46//75 44//75
f 37//99 46//99 45//99
f 37//100 261//100 263//100 46//100
f 46//101 263//101 264//101
f 46//102 264//102 265//102 44//102
f 42//103 285//103 286//103
f 32//104 271//104 272//104
f 48//105 223//105 109//105 47//105
f 48//106 224//106 223//106
f 47//107 107//107 113//107 48//107
f 48//108 113//108 112//108
f 48//109 112//109 114//109 49//109
f 48//106 49//106 52//106
f 48//110 222//110 225//110
f 54//110 50//110 48//110
f 48//111 225//111 224//111
f 53//110 48//110 51//110
f 51//112 48//112 52//112
f 54//113 48//113 53//113
f 53//114 122//114 124//114 54//114
f 54//115 124//115 125//115
f 54//116 125//116 128//116 55//116
f 56//117 54//117 55//117
f 54//118 56//118 50//118
f 55//119 131//119 130//119 56//119
f 56//120 130//120 129//120
f 56//121 129//121 132//121 50//121
f 50//122 132//122 133//122
f 57//123 94//123 93//123
f 57//124 93//124 92//124 58//124
f 58//125 92//125 91//125
f 58//126 91//126 90//126
f 49//127 114//127 115//127
f 49//128 115//128 117//128 52//128
f 52//129 117//129 116//129
f 51//130 121//130 120//130
f 51//131 120//131 123//131 53//131
f 53//132 123//132 122//132
f 52//133 116//133 121//133 51//133
f 59//134 139//134 138//134
f 59//135 138//135 96//135 60//135
f 60//136 96//136 95//136
f 60//137 61//137 59//137
f 60//138 95//138 94//138 57//138
f 60//139 57//139 58//139
f 60//110 58//110 227//110 226//110
f 50//110 61//110 60//110
f 50//140 133//140 137//140 61//140
f 61//141 137//141 136//141
f 61//142 136//142 139//142 59//142
f 55//143 128//143 131//143
f 47//144 108//144 107//144
f 62//145 174//145 173//145
f 62//146 173//146 177//146 63//146
f 64//147 62//147 63//147
f 62//148 243//148 176//148
f 64//149 235//149 241//149 62//149
f 62//150 241//150 243//150
f 63//151 178//151 180//151 64//151
f 64//152 180//152 179//152
f 64//153 179//153 182//153 65//153
f 64//154 65//154 68//154
f 64//155 229//155 237//155 236//155
f 70//149 66//149 64//149
f 64//156 236//156 235//156
f 69//149 64//149 67//149
f 67//154 64//154 68//154
f 70//149 64//149 69//149
f 69//157 118//157 127//157 70//157
f 70//158 127//158 126//158
f 70//159 126//159 135//159 71//159
f 72//149 70//149 71//149
f 70//160 72//160 66//160
f 71//161 134//161 141//161 72//161
f 72//162 141//162 140//162
f 72//163 140//163 98//163 66//163
f 66//164 98//164 97//164
f 73//165 89//165 88//165
f 73//166 88//166 87//166
f 65//167 182//167 181//167
f 65//168 181//168 106//168 68//168
f 68//169 106//169 105//169
f 67//170 111//170 110//170
f 67//171 110//171 119//171 69//171
f 69//172 119//172 118//172
f 68//173 105//173 111//173 67//173
f 74//174 102//174 101//174
f 74//175 101//175 103//175 75//175
f 75//176 103//176 104//176
f 75//156 76//156 74//156
f 75//177 104//177 89//177 73//177
f 75//178 73//178 87//178 231//178
f 75//179 231//179 230//179
f 66//149 76//149 75//149
f 66//180 97//180 100//180 76//180
f 76//181 100//181 99//181
f 76//182 99//182 102//182 74//182
f 71//183 135//183 134//183
f 63//184 177//184 178//184
f 81//185 77//185 78//185
f 77//186 79//186 175//186 176//186 243//186 241//186 235//186 236//186 237//186 78//186
f 77//186 80//186 79//186
f 81//187 80//187 77//187
f 81//187 82//187 80//187
f 82//188 81//188 83//188
f 81//185 78//185 83//185
f 78//189 84//189 270//189 269//189 267//189 268//189 34//189 210//189 209//189 208//189 207//189 206//189 45//189 83//189
f 82//188 83//188 84//188
f 80//190 82//190 84//190
f 80//190 84//190 79//190
f 78//191 237//191 175//191 174//191 173//191 86//191 240//191 239//191 238//191 233//191 232//191 234//191 242//191 85//191
f 217//34 19//34 16//34 216//34
f 221//110 50//110 60//110 226//110
f 222//110 48//110 50//110 221//110
f 149//192 20//192 148//192
f 203//16 6//16 3//16 202//16
f 204//5 1//5 205//5
f 227//193 58//193 90//193
f 228//149 66//149 75//149 230//149
f 216//52 16//52 215//52
f 219//5 5//5 211//5
f 215//34 16//34 17//34 220//34
f 218//52 21//52 18//52 212//52
f 148//194 20//194 21//194 218//194
f 237//195 236//195 235//195 241//195 243//195 176//195 175//195
f 220//196 17//196 199//196
f 108//197 47//197 109//197
f 202//16 3//16 1//16 204//16
f 206//75 37//75 45//75
f 174//198 62//198 176//198 175//198
f 229//149 64//149 66//149 228//149
f 83//189 45//189 266//189 265//189 264//189 263//189 261//189 262//189 259//189 260//189 286//189 285//189 284//189 283//189 281//189 282//189 279//189 280//189 277//189 278//189 245//189 246//189 247//189 248//189 249//189 250//189 251//189 252//189 253//189 254//189 255//189 256//189 257//189 258//189 244//189 161//189 159//189 160//189 157//189 158//189 166//189 167//189 168//189 169//189 162//189 163//189 164//189 165//189 170//189 171//189 172//189
f 151//189 152//189 154//189 153//189 156//189 155//189 143//189 142//189 144//189 145//189 147//189 146//189 183//189 184//189 185//189 186//189 188//189 187//189 189//189 190//189 192//189 191//189 193//189 194//189 195//189 196//189 198//189 197//189 199//189 220//189 215//189 216//189 217//189 214//189 213//189 212//189 218//189 148//189 149//189 150//189
f 219//189 211//189 200//189 201//189 203//189 202//189 204//189 205//189 245//189 278//189 276//189 275//189 274//189 273//189 272//189 271//189 270//189 84//189 83//189 172//189
f 171//199 8//199 172//199
f 201//5 5//5 6//5 203//5
f 85//189 242//189 234//189 232//189 233//189 238//189 239//189 240//189 86//189 173//189 174//189 175//189 79//189 109//189 223//189 224//189 225//189 222//189 221//189 226//189 227//189 90//189 91//189 78//189
f 92//189 93//189 94//189 95//189 96//189 138//189 139//189 136//189 137//189 133//189 132//189 129//189 130//189 131//189 128//189 125//189 124//189 122//189 123//189 120//189 121//189 116//189 117//189 115//189 114//189 112//189 113//189 107//189 108//189 109//189 79//189 84//189 78//189 91//189
f 214//34 18//34 19//34 217//34
f 207//75 35//75 37//75 206//75
