# Blender v2.81 (sub 16) OBJ File: 'zoetrope-backflip-boy-separate-booleaned.blend'
# www.blender.org
mtllib 4.mtl
o back5_zoetrope.258
v 0.000609 0.072483 -0.159845
v 0.000370 0.072368 -0.158652
v 0.000145 0.072004 -0.157507
v -0.000058 0.071405 -0.156461
v -0.000293 0.063769 -0.154760
v -0.000359 0.069616 -0.154841
v -0.000228 0.070597 -0.155559
v -0.000445 0.068505 -0.154338
v -0.000482 0.067312 -0.154072
v -0.000468 0.066090 -0.154056
v -0.000404 0.064891 -0.154288
v 0.000499 0.060930 -0.158494
v 0.000049 0.061944 -0.156330
v 0.000265 0.061321 -0.157360
v -0.000140 0.062772 -0.155451
v 0.000410 -0.084968 0.091218
v 0.000186 -0.085100 0.092988
v 0.000647 -0.085210 0.089461
v -0.000018 -0.085600 0.094694
v -0.000191 -0.086445 0.096261
v -0.000153 -0.097563 0.099015
v -0.000418 -0.089014 0.098714
v -0.000326 -0.087600 0.097621
v -0.000462 -0.090624 0.099493
v -0.000456 -0.092361 0.099923
v -0.000400 -0.094148 0.099986
v -0.000298 -0.095908 0.099679
v 0.000237 -0.100278 0.096748
v 0.000465 -0.101220 0.095244
v 0.000028 -0.099041 0.098024
v 0.000578 0.056654 -0.142691
v 0.000187 0.056425 -0.140357
v -0.000183 0.055710 -0.138120
v -0.000515 0.054539 -0.136078
v -0.000915 0.039679 -0.132808
v -0.001012 0.051051 -0.132922
v -0.000796 0.052963 -0.134319
v -0.001155 0.048888 -0.131947
v -0.001217 0.046566 -0.131436
v -0.001197 0.044189 -0.131412
v -0.001095 0.041859 -0.131876
v 0.000376 0.034178 -0.140133
v -0.000359 0.036138 -0.135893
v -0.000006 0.034932 -0.137911
v -0.000666 0.037744 -0.134166
v 0.000610 0.062127 -0.142655
v -0.000043 0.061772 -0.139213
v -0.000664 0.060697 -0.135918
v -0.001227 0.058948 -0.132913
v -0.002017 0.036915 -0.128206
v -0.002083 0.053761 -0.128284
v -0.001707 0.056602 -0.130331
v -0.002338 0.050549 -0.126862
v -0.002461 0.047107 -0.126127
v -0.002448 0.043586 -0.126110
v -0.002297 0.040138 -0.126814
v 0.000084 0.028818 -0.139059
v -0.001122 0.031692 -0.132786
v -0.000545 0.029919 -0.135774
v -0.001620 0.034058 -0.130226
v -0.003529 -0.071734 0.353326
v -0.002309 -0.071352 0.357987
v -0.004565 -0.073100 0.348807
v -0.006170 -0.082303 0.337996
v -0.005372 -0.075389 0.344628
v -0.005784 -0.091279 0.334578
v -0.000543 -0.112411 0.342348
v -0.001921 -0.109123 0.339085
v -0.003185 -0.105183 0.336587
v -0.004281 -0.100766 0.334963
v -0.005160 -0.096062 0.334283
v -0.006125 -0.086624 0.335834
v -0.005915 -0.078502 0.340971
v -0.010202 -0.362406 -0.184733
v 0.000675 -0.362406 -0.184733
v 0.000675 0.562163 -0.184733
v -0.010202 0.562163 -0.184733
v -0.010202 -0.362406 0.359132
v -0.010202 0.562164 0.359131
v 0.000675 -0.362406 0.359132
v 0.000675 0.562164 0.359131
v 0.000675 -0.081294 0.336122
v 0.000675 -0.085588 0.333989
v 0.000675 -0.081264 0.336147
v -0.001691 -0.073421 0.359132
v -0.001554 -0.074351 0.359132
v 0.000675 -0.077531 0.339167
v -0.001918 -0.071882 0.359132
v 0.000675 -0.085623 0.333972
v 0.000675 -0.090291 0.332818
v 0.000675 -0.074498 0.342972
v 0.000675 -0.077508 0.339197
v 0.000675 -0.090327 0.332809
v 0.000675 -0.095169 0.332686
v 0.000675 -0.114244 0.345813
v 0.000675 -0.114154 0.345862
v -0.000569 -0.081038 0.359132
v 0.000675 -0.109973 0.348111
v 0.000675 -0.072328 0.347372
v 0.000675 -0.074483 0.343004
v 0.000675 -0.095203 0.332685
v 0.000675 -0.114399 0.345730
v 0.000675 -0.100007 0.333600
v 0.000675 -0.071115 0.352174
v 0.000675 -0.072320 0.347402
v 0.000675 -0.100035 0.333606
v 0.000676 -0.104594 0.335521
v 0.000675 -0.071114 0.352199
v -0.001973 -0.071505 0.359132
v 0.000675 -0.070912 0.357169
v 0.000675 -0.114536 0.345656
v 0.000675 -0.104615 0.335530
v 0.000675 -0.108728 0.338366
v 0.000676 0.043600 -0.125517
v 0.000676 0.047110 -0.125530
v 0.000675 0.047122 -0.125530
v 0.000675 0.050552 -0.126287
v 0.000675 0.040152 -0.126248
v 0.000675 0.043589 -0.125519
v 0.000675 0.050563 -0.126289
v 0.000675 0.053764 -0.127756
v 0.000675 -0.070915 0.357187
v 0.000675 -0.071234 0.359132
v 0.000675 0.040142 -0.126253
v 0.000675 0.036928 -0.127694
v 0.000675 0.053774 -0.127760
v 0.000675 0.056606 -0.129873
v 0.000675 0.034069 -0.129790
v 0.000675 0.036920 -0.127700
v 0.000675 0.033809 -0.142292
v 0.000675 0.048676 -0.142664
v 0.000675 0.030582 -0.142212
v 0.000675 -0.108740 0.338374
v 0.000675 -0.112227 0.342009
v 0.000675 0.056613 -0.129878
v 0.000675 0.058952 -0.132546
v 0.000675 0.034063 -0.129796
v 0.000675 0.031700 -0.132444
v 0.000675 0.058957 -0.132551
v 0.000675 0.060701 -0.135658
v 0.000675 0.046581 -0.131117
v 0.000675 0.046586 -0.131117
v 0.000675 0.048902 -0.131637
v 0.000675 0.044208 -0.131096
v 0.000675 0.041877 -0.131578
v 0.000675 0.044203 -0.131097
v 0.000675 0.048906 -0.131638
v 0.000675 0.051065 -0.132636
v 0.000675 0.031697 -0.132450
v 0.000675 0.029925 -0.135542
v 0.000675 0.041873 -0.131579
v 0.000675 0.039695 -0.132540
v 0.000675 0.051069 -0.132637
v 0.000675 0.052975 -0.134069
v 0.000675 -0.089488 0.359131
v 0.000675 0.037588 -0.142115
v 0.000675 0.047460 -0.142711
v 0.000675 0.039692 -0.132542
v 0.000675 0.035330 -0.141978
v 0.000675 0.037758 -0.133940
v 0.000675 0.052978 -0.134071
v 0.000675 0.054549 -0.135874
v 0.000675 0.037755 -0.133943
v 0.000675 0.036149 -0.135718
v 0.000676 0.061971 -0.142996
v 0.000675 0.059151 -0.142926
v 0.000675 0.060703 -0.135663
v 0.000675 0.057505 -0.142885
v 0.000676 0.061775 -0.139074
v 0.000675 0.028511 -0.142160
v 0.000675 0.029924 -0.135546
v 0.000675 0.028821 -0.138947
v 0.000675 0.028474 -0.142159
v 0.000676 -0.112232 0.342014
v 0.000675 0.054551 -0.135877
v 0.000675 0.055718 -0.137973
v 0.000675 0.066106 -0.153825
v 0.000675 0.067327 -0.153839
v 0.000675 0.067328 -0.153839
v 0.000675 0.068519 -0.154112
v 0.000675 0.064907 -0.154071
v 0.000675 0.066104 -0.153825
v 0.000675 -0.092320 0.100070
v 0.000675 -0.090586 0.099641
v 0.000675 -0.090584 0.099640
v 0.000675 -0.088977 0.098857
v 0.000675 -0.094110 0.100126
v 0.000676 -0.092323 0.100070
v 0.000675 0.068521 -0.154112
v 0.000675 0.069629 -0.154632
v 0.000675 -0.088975 0.098856
v 0.000675 -0.087566 0.097752
v 0.000675 0.063783 -0.154565
v 0.000675 0.064905 -0.154071
v 0.000675 -0.094112 0.100125
v 0.000675 -0.095873 0.099805
v 0.000675 0.069631 -0.154632
v 0.000675 0.070609 -0.155376
v 0.000675 0.034939 -0.137796
v 0.000675 0.036147 -0.135721
v 0.000675 -0.087565 0.097751
v 0.000675 -0.086416 0.096375
v 0.000675 -0.095875 0.099805
v 0.000675 -0.097533 0.099123
v 0.000675 0.062686 -0.159492
v 0.000675 0.067743 -0.159845
v 0.000675 0.061517 -0.159410
v 0.000675 0.062784 -0.155287
v 0.000675 0.063782 -0.154566
v 0.000675 0.070610 -0.155377
v 0.000675 0.071414 -0.156312
v 0.000676 -0.086415 0.096373
v 0.000675 -0.085576 0.094785
v 0.000675 0.055719 -0.137975
v 0.000675 0.056395 -0.143251
v 0.000675 0.054582 -0.143142
v 0.000675 0.053421 -0.143072
v 0.000675 0.056430 -0.140273
v 0.000675 -0.097535 0.099122
v 0.000675 -0.099043 0.093029
v 0.000675 -0.092266 0.091173
v 0.000675 -0.099018 0.098108
v 0.000675 -0.101097 0.093590
v 0.000676 0.061953 -0.156204
v 0.000676 0.062783 -0.155288
v 0.000675 0.071415 -0.156313
v 0.000675 0.072011 -0.157399
v 0.000676 0.061776 -0.139076
v 0.000675 0.062127 -0.142643
v 0.000675 -0.085575 0.094784
v 0.000675 -0.085083 0.093052
v 0.000675 -0.085847 0.089414
v 0.000675 -0.086838 0.089686
v 0.000675 -0.087900 0.089977
v 0.000675 0.034181 -0.140083
v 0.000675 0.034938 -0.137798
v 0.000675 0.034036 -0.141901
v 0.000675 0.033975 -0.141897
v 0.000675 -0.099019 0.098107
v 0.000675 -0.100263 0.096805
v 0.000675 0.061952 -0.156205
v 0.000675 0.061327 -0.157277
v 0.000675 0.028821 -0.138949
v 0.000675 0.072011 -0.157400
v 0.000675 0.072373 -0.158590
v 0.000675 0.072333 -0.160165
v 0.000675 0.071410 -0.160100
v 0.000675 0.070808 -0.160058
v 0.000675 -0.085082 0.093051
v 0.000675 -0.084959 0.091252
v 0.000675 0.056430 -0.140275
v 0.000675 0.056655 -0.142674
v 0.000675 -0.101212 0.095271
v 0.000675 -0.100263 0.096804
v 0.000675 0.060862 -0.159365
v 0.000675 0.060827 -0.159363
v 0.000676 0.061326 -0.157278
v 0.000675 0.060932 -0.158459
v 0.000676 0.072373 -0.158590
v 0.000675 0.072483 -0.159832
v 0.000675 0.034181 -0.140084
v 0.000675 -0.084959 0.091252
v 0.000676 -0.085209 0.089464
v 0.000675 -0.085283 0.089260
v 0.000675 -0.085442 0.089303
v 0.000675 -0.101213 0.095271
v 0.000675 -0.101595 0.093727
v 0.000675 -0.101755 0.093770
v 0.000675 0.060932 -0.158459
v 0.000675 0.056588 -0.143263
v 0.000675 0.056526 -0.143259
v 0.000675 0.056655 -0.142675
v 0.000675 0.072444 -0.160172
v 0.000675 0.072408 -0.160170
v 0.000675 0.072483 -0.159832
v 0.000675 0.062051 -0.142998
v 0.000675 0.062089 -0.142999
v 0.000675 0.062127 -0.142643
v 0.000675 -0.085209 0.089464
vn 0.0290 -0.9881 -0.1512
vn 0.0319 -0.9955 -0.0888
vn 0.9802 0.0133 0.1974
vn 0.9802 0.0134 0.1977
vn 0.9802 0.0138 0.1975
vn 0.9802 0.0137 0.1976
vn 0.0718 -0.9544 -0.2898
vn 0.1102 -0.8637 -0.4917
vn 0.1086 -0.8715 -0.4782
vn 0.9801 0.0146 0.1980
vn 0.9802 0.0137 0.1975
vn 0.9802 0.0140 0.1978
vn 0.9803 0.0134 0.1972
vn 0.1957 -0.2189 -0.9559
vn 0.1960 -0.0093 -0.9806
vn 0.1977 -0.0113 -0.9802
vn 0.9801 0.0136 0.1981
vn 0.1910 0.1969 -0.9616
vn 0.1769 0.3964 -0.9009
vn 0.1760 0.3964 -0.9010
vn 0.1543 0.5542 -0.8179
vn 0.0073 0.9917 -0.1287
vn 0.0094 0.9932 -0.1161
vn 0.1409 -0.7437 -0.6535
vn 0.1406 -0.7506 -0.6457
vn 0.1661 -0.6022 -0.7809
vn 0.1850 -0.4101 -0.8931
vn 0.1852 -0.4169 -0.8899
vn 0.1950 -0.2249 -0.9547
vn 0.1666 -0.5968 -0.7849
vn 0.0925 0.8498 -0.5190
vn 0.0891 0.8603 -0.5020
vn 0.0451 0.9523 -0.3017
vn 0.0503 0.9474 -0.3160
vn 0.9802 0.0143 0.1973
vn 0.9802 0.0136 0.1975
vn 0.1533 0.5786 -0.8011
vn 0.1197 0.7498 -0.6508
vn 0.1239 0.7355 -0.6661
vn 0.1874 0.2151 -0.9584
vn 0.0640 -0.9697 -0.2357
vn 0.0435 -0.9976 -0.0541
vn 0.0443 -0.9967 -0.0686
vn 0.9910 0.0360 0.1286
vn 0.9911 0.0344 0.1287
vn 0.0171 -0.9902 0.1386
vn 0.9911 0.0352 0.1285
vn 0.9911 0.0353 0.1284
vn 0.0694 -0.9596 -0.2728
vn 0.0911 -0.8797 -0.4667
vn 0.0915 -0.8805 -0.4651
vn 0.9911 0.0354 0.1287
vn 0.9911 0.0351 0.1285
vn 0.1332 -0.2379 -0.9621
vn 0.1302 -0.0126 -0.9914
vn 0.1296 -0.0309 -0.9911
vn 0.9911 0.0352 0.1282
vn 0.9911 0.0352 0.1283
vn 0.1203 0.1775 -0.9767
vn 0.1057 0.3820 -0.9181
vn 0.1058 0.3780 -0.9197
vn 0.0886 0.5522 -0.8290
vn 0.1097 -0.7746 -0.6228
vn 0.1097 -0.7630 -0.6370
vn 0.1237 -0.6051 -0.7865
vn 0.1301 -0.4340 -0.8914
vn 0.1309 -0.4345 -0.8911
vn 0.1331 -0.2355 -0.9627
vn 0.1230 -0.6121 -0.7811
vn 0.0114 -0.9817 0.1902
vn 0.0379 0.8454 -0.5328
vn 0.0380 0.8496 -0.5260
vn 0.0070 0.9589 -0.2837
vn 0.9911 0.0358 0.1280
vn 0.0106 0.9405 -0.3397
vn 0.9911 0.0353 0.1283
vn 0.0867 0.5622 -0.8225
vn 0.0660 0.7232 -0.6875
vn 0.0637 0.7216 -0.6893
vn 0.1215 0.1690 -0.9781
vn 0.0696 -0.9594 -0.2732
vn 0.0263 -0.9966 -0.0783
vn 0.0258 -0.9953 -0.0931
vn 0.9861 0.0094 0.1662
vn 0.9860 0.0098 0.1663
vn 0.9860 0.0100 0.1663
vn 0.0595 -0.9536 -0.2951
vn 0.0903 -0.8705 -0.4839
vn 0.0905 -0.8702 -0.4843
vn 0.9860 0.0102 0.1663
vn 0.9860 0.0101 0.1663
vn 0.9861 0.0099 0.1661
vn 0.9860 0.0099 0.1662
vn 0.1645 -0.2162 -0.9624
vn 0.1663 -0.0120 -0.9860
vn 0.1664 -0.0085 -0.9860
vn 0.9861 0.0101 0.1658
vn 0.9860 0.0100 0.1664
vn 0.1610 0.1996 -0.9666
vn 0.1484 0.3996 -0.9046
vn 0.1485 0.3990 -0.9049
vn 0.1298 0.5802 -0.8041
vn 0.0086 0.9934 -0.1146
vn 0.0089 0.9935 -0.1131
vn 0.1166 -0.7508 -0.6501
vn 0.1176 -0.7488 -0.6523
vn 0.1396 -0.5958 -0.7909
vn 0.1553 -0.4156 -0.8962
vn 0.1555 -0.4145 -0.8967
vn 0.1652 -0.2091 -0.9638
vn 0.1396 -0.5946 -0.7918
vn 0.0756 0.8616 -0.5019
vn 0.0758 0.8617 -0.5017
vn 0.0431 0.9487 -0.3131
vn 0.9860 0.0099 0.1664
vn 0.0433 0.9484 -0.3143
vn 0.9860 0.0102 0.1662
vn 0.9860 0.0099 0.1663
vn 0.1296 0.5809 -0.8036
vn 0.1049 0.7391 -0.6654
vn 0.1050 0.7374 -0.6672
vn 0.1610 0.1995 -0.9666
vn 0.0595 -0.9526 -0.2984
vn 0.0212 -0.9938 -0.1089
vn 0.0234 -0.9949 -0.0980
vn 0.9824 0.0046 0.1868
vn 0.9824 0.0045 0.1869
vn 0.9825 0.0075 0.1862
vn 0.0614 -0.9522 -0.2991
vn 0.0978 -0.8646 -0.4928
vn 0.0967 -0.8679 -0.4871
vn 0.9823 0.0050 0.1870
vn 0.9824 0.0047 0.1868
vn 0.9824 0.0045 0.1867
vn 0.1835 -0.2117 -0.9600
vn 0.1868 -0.0012 -0.9824
vn 0.1868 -0.0039 -0.9824
vn 0.9823 0.0046 0.1871
vn 0.9824 0.0046 0.1869
vn 0.1819 0.2041 -0.9619
vn 0.1692 0.4014 -0.9001
vn 0.1691 0.4032 -0.8994
vn 0.1489 0.5857 -0.7968
vn 0.0157 0.9942 -0.1061
vn 0.0157 0.9941 -0.1073
vn 0.1281 -0.7440 -0.6558
vn 0.1279 -0.7457 -0.6539
vn 0.1532 -0.5943 -0.7895
vn 0.1722 -0.4108 -0.8953
vn 0.1722 -0.4103 -0.8956
vn 0.1834 -0.2116 -0.9600
vn 0.1534 -0.5909 -0.7920
vn 0.0901 0.8636 -0.4960
vn 0.0900 0.8641 -0.4952
vn 0.0540 0.9498 -0.3082
vn 0.9824 0.0050 0.1866
vn 0.0540 0.9498 -0.3080
vn 0.9824 0.0045 0.1868
vn 0.1488 0.5846 -0.7975
vn 0.1222 0.7406 -0.6608
vn 0.1221 0.7405 -0.6608
vn 0.1821 0.2008 -0.9626
vn 0.0618 -0.9520 -0.2997
vn 0.1564 -0.9869 0.0406
vn 0.1563 -0.9869 0.0401
vn 0.9549 0.1406 -0.2614
vn 0.2054 -0.9489 0.2397
vn 0.9549 0.1407 -0.2614
vn 0.1004 -0.9818 -0.1613
vn 0.0824 0.7191 0.6900
vn 0.1403 0.5638 0.8139
vn 0.1404 0.5620 0.8151
vn 0.1927 0.3778 0.9056
vn 0.9549 0.1408 -0.2613
vn 0.1917 0.3802 0.9048
vn 0.9549 0.1407 -0.2613
vn 0.9549 0.1406 -0.2615
vn 0.2347 0.1819 0.9549
vn 0.2673 -0.0254 0.9633
vn 0.2673 -0.0245 0.9633
vn 0.2883 -0.2290 0.9297
vn 0.2344 0.1836 0.9547
vn 0.0829 0.7192 0.6899
vn 0.2883 -0.2297 0.9296
vn 0.2967 -0.4263 0.8545
vn 0.2967 -0.4249 0.8552
vn 0.2923 -0.6017 0.7433
vn 0.2752 -0.7512 0.6000
vn 0.2748 -0.7519 0.5993
vn 0.2457 -0.8694 0.4286
vn 0.2455 -0.8694 0.4289
vn 0.2055 -0.9490 0.2393
vn 0.9549 0.1407 -0.2615
vn 0.2922 -0.6016 0.7435
vn 0.1002 -0.9816 -0.1625
vn 0.0000 -1.0000 0.0000
vn 0.0000 -0.0000 -1.0000
vn -1.0000 -0.0000 0.0000
vn 0.0000 0.0000 1.0000
vn 1.0000 0.0000 -0.0000
vn 0.0000 1.0000 -0.0000
vn -0.0157 -0.9941 0.1073
vn -0.0113 -0.9405 0.3397
vn 0.0218 0.8449 0.5344
vn -0.0094 -0.9932 0.1162
vn -0.0090 -0.9935 0.1130
usemtl Default_OBJ
s off
f 1//1 275//1 260//1
f 1//2 260//2 259//2 2//2
f 3//3 1//3 2//3
f 1//4 274//4 273//4
f 3//5 247//5 246//5 1//5
f 1//6 246//6 274//6
f 2//7 245//7 244//7 3//7
f 3//8 244//8 227//8
f 3//9 227//9 226//9 4//9
f 3//10 4//10 7//10
f 3//5 206//5 248//5
f 9//5 5//5 3//5
f 3//11 248//11 247//11
f 8//12 3//12 6//12
f 6//13 3//13 7//13
f 9//5 3//5 8//5
f 8//14 180//14 179//14 9//14
f 9//15 179//15 178//15
f 9//16 178//16 177//16 10//16
f 11//6 9//6 10//6
f 9//17 11//17 5//17
f 10//18 182//18 181//18 11//18
f 11//19 181//19 194//19
f 11//20 194//20 193//20 5//20
f 5//21 193//21 209//21
f 12//22 258//22 269//22
f 12//23 269//23 256//23
f 4//24 226//24 211//24
f 4//25 211//25 210//25 7//25
f 7//26 210//26 198//26
f 6//27 197//27 190//27
f 6//28 190//28 189//28 8//28
f 8//29 189//29 180//29
f 7//30 198//30 197//30 6//30
f 13//31 224//31 241//31
f 13//32 241//32 242//32 14//32
f 14//33 242//33 257//33
f 14//5 15//5 13//5
f 14//34 257//34 258//34 12//34
f 14//35 12//35 256//35 255//35
f 14//36 255//36 207//36
f 5//5 15//5 14//5
f 5//37 209//37 208//37 15//37
f 15//38 208//38 225//38
f 15//39 225//39 224//39 13//39
f 10//40 177//40 182//40
f 2//41 259//41 245//41
f 16//42 262//42 250//42
f 16//43 250//43 249//43 17//43
f 19//44 16//44 17//44
f 16//45 265//45 264//45 18//45
f 18//46 263//46 262//46 16//46
f 19//47 233//47 232//47 16//47
f 16//48 232//48 265//48
f 17//49 231//49 230//49 19//49
f 19//50 230//50 213//50
f 19//51 213//51 212//51 20//51
f 19//52 20//52 23//52
f 19//47 221//47 234//47
f 25//47 21//47 19//47
f 19//47 234//47 233//47
f 24//53 19//53 22//53
f 22//52 19//52 23//52
f 25//47 19//47 24//47
f 24//54 184//54 183//54 25//54
f 25//55 183//55 188//55
f 25//56 188//56 187//56 26//56
f 27//57 25//57 26//57
f 25//58 27//58 21//58
f 26//59 195//59 196//59 27//59
f 27//60 196//60 203//60
f 27//61 203//61 204//61 21//61
f 21//62 204//62 219//62
f 20//63 212//63 202//63
f 20//64 202//64 201//64 23//64
f 23//65 201//65 192//65
f 22//66 191//66 186//66
f 22//67 186//67 185//67 24//67
f 24//68 185//68 184//68
f 23//69 192//69 191//69 22//69
f 18//70 279//70 263//70
f 28//71 240//71 254//71
f 28//72 254//72 253//72 29//72
f 29//73 253//73 266//73
f 29//74 30//74 28//74
f 29//75 266//75 268//75
f 29//53 268//53 267//53
f 29//47 267//47 223//47
f 21//76 30//76 29//76
f 21//77 219//77 222//77 30//77
f 30//78 222//78 239//78
f 30//79 239//79 240//79 28//79
f 26//80 187//80 195//80
f 17//81 249//81 231//81
f 31//82 272//82 252//82
f 31//83 252//83 251//83 32//83
f 33//84 31//84 32//84
f 31//85 271//85 270//85
f 33//86 216//86 215//86 31//86
f 31//86 215//86 271//86
f 32//87 218//87 214//87 33//87
f 33//88 214//88 176//88
f 33//89 176//89 175//89 34//89
f 33//90 34//90 37//90
f 33//91 157//91 217//91
f 39//86 35//86 33//86
f 33//86 217//86 216//86
f 38//92 33//92 36//92
f 36//93 33//93 37//93
f 39//91 33//91 38//91
f 38//94 143//94 142//94 39//94
f 39//95 142//95 141//95
f 39//96 141//96 144//96 40//96
f 41//97 39//97 40//97
f 39//98 41//98 35//98
f 40//99 146//99 145//99 41//99
f 41//100 145//100 151//100
f 41//101 151//101 152//101 35//101
f 35//102 152//102 158//102
f 42//103 235//103 261//103
f 42//104 261//104 238//104
f 34//105 175//105 162//105
f 34//106 162//106 161//106 37//106
f 37//107 161//107 154//107
f 36//108 153//108 148//108
f 36//109 148//109 147//109 38//109
f 38//110 147//110 143//110
f 37//111 154//111 153//111 36//111
f 43//112 164//112 200//112
f 43//113 200//113 199//113 44//113
f 44//114 199//114 236//114
f 44//115 45//115 43//115
f 44//116 236//116 235//116 42//116
f 44//117 42//117 238//117 237//117
f 44//118 237//118 159//118
f 35//117 45//117 44//117
f 35//119 158//119 160//119 45//119
f 45//120 160//120 163//120
f 45//121 163//121 164//121 43//121
f 40//122 144//122 146//122
f 32//123 251//123 218//123
f 46//124 278//124 229//124
f 46//125 229//125 228//125 47//125
f 48//126 46//126 47//126
f 46//127 276//127 277//127
f 48//126 166//126 165//126 46//126
f 46//128 165//128 276//128
f 47//129 169//129 167//129 48//129
f 48//130 167//130 140//130
f 48//131 140//131 139//131 49//131
f 48//132 49//132 52//132
f 48//133 131//133 168//133
f 54//133 50//133 48//133
f 48//133 168//133 166//133
f 53//133 48//133 51//133
f 51//134 48//134 52//134
f 54//133 48//133 53//133
f 53//135 117//135 116//135 54//135
f 54//136 116//136 115//136
f 54//137 115//137 114//137 55//137
f 56//138 54//138 55//138
f 54//139 56//139 50//139
f 55//140 119//140 118//140 56//140
f 56//141 118//141 124//141
f 56//142 124//142 125//142 50//142
f 50//143 125//143 129//143
f 57//144 172//144 243//144
f 57//145 243//145 173//145
f 49//146 139//146 136//146
f 49//147 136//147 135//147 52//147
f 52//148 135//148 127//148
f 51//149 126//149 121//149
f 51//150 121//150 120//150 53//150
f 53//151 120//151 117//151
f 52//152 127//152 126//152 51//152
f 58//153 138//153 149//153
f 58//154 149//154 150//154 59//154
f 59//155 150//155 171//155
f 59//156 60//156 58//156
f 59//157 171//157 172//157 57//157
f 59//158 57//158 173//158 170//158
f 59//133 170//133 132//133
f 50//127 60//127 59//127
f 50//159 129//159 128//159 60//159
f 60//160 128//160 137//160
f 60//161 137//161 138//161 58//161
f 55//162 114//162 119//162
f 47//163 228//163 169//163
f 61//164 104//164 108//164
f 61//165 108//165 110//165 62//165
f 61//166 65//166 63//166
f 63//167 105//167 104//167 61//167
f 61//168 64//168 65//168
f 62//169 122//169 123//169 109//169
f 67//170 174//170 134//170
f 68//171 133//171 113//171
f 68//172 113//172 112//172 69//172
f 69//173 112//173 107//173
f 69//174 67//174 68//174
f 69//175 107//175 106//175 70//175
f 69//176 70//176 71//176
f 69//177 102//177 111//177 67//177
f 70//178 103//178 101//178 71//178
f 71//179 101//179 94//179
f 71//180 94//180 93//180 66//180
f 71//168 66//168 96//168 95//168
f 66//181 93//181 90//181
f 70//182 106//182 103//182
f 67//183 134//183 133//183 68//183
f 66//184 90//184 89//184 72//184
f 72//185 89//185 83//185
f 72//186 83//186 82//186 64//186
f 64//187 82//187 84//187
f 73//188 87//188 92//188
f 73//189 92//189 91//189 65//189
f 65//190 91//190 100//190
f 65//191 100//191 99//191 63//191
f 63//192 99//192 105//192
f 65//193 64//193 73//193
f 64//194 84//194 87//194 73//194
f 72//193 64//193 66//193
f 62//195 110//195 122//195
f 78//196 74//196 75//196
f 74//197 76//197 75//197
f 74//197 77//197 76//197
f 78//198 77//198 74//198
f 78//198 79//198 77//198
f 79//199 78//199 80//199
f 78//196 75//196 80//196
f 75//200 81//200 262//200 263//200 279//200 264//200 265//200 232//200 233//200 234//200 221//200 220//200 223//200 267//200 268//200 80//200
f 79//199 80//199 155//199 97//199 86//199 85//199 88//199 109//199 123//199 81//199
f 77//201 79//201 81//201
f 77//201 81//201 76//201
f 75//200 76//200 275//200 273//200 274//200 246//200 247//200 248//200 206//200 205//200 207//200 255//200 256//200
f 157//86 33//86 35//86 156//86
f 205//5 5//5 14//5 207//5
f 269//200 258//200 257//200 242//200 241//200 224//200 225//200 208//200 209//200 193//200 194//200 181//200 182//200 177//200 178//200 179//200 180//200 189//200 190//200 197//200 198//200 210//200 211//200 226//200 227//200 244//200 245//200 259//200 260//200 275//200 76//200 278//200 277//200 276//200 165//200 166//200 168//200 131//200 130//200 132//200 170//200 173//200 75//200 256//200
f 238//200 237//200 159//200 156//200 157//200 217//200 216//200 215//200 271//200 270//200 272//200 252//200 251//200 218//200 214//200 176//200 175//200 162//200 161//200 154//200 153//200 148//200 147//200 143//200 142//200 141//200 144//200 146//200 145//200 151//200 152//200 158//200 160//200 163//200 164//200 200//200 199//200 236//200 235//200 261//200
f 243//200 172//200 171//200 150//200 149//200 138//200 137//200 128//200 129//200 125//200 124//200 118//200 119//200 114//200 115//200 116//200 117//200 120//200 121//200 126//200 127//200 135//200 136//200 139//200 140//200 167//200 169//200 228//200 229//200 278//200 76//200 81//200 75//200 173//200
f 131//133 48//133 50//133 130//133
f 88//193 61//193 62//193 109//193
f 102//177 69//177 71//177 95//177
f 221//47 19//47 21//47 220//47
f 80//200 268//200 266//200 253//200 254//200 240//200 239//200 222//200 219//200 204//200 203//200 196//200 195//200 187//200 188//200 183//200 184//200 185//200 186//200 191//200 192//200 201//200 202//200 212//200 213//200 230//200 231//200 249//200 250//200 262//200 81//200 123//200 122//200 110//200 108//200 104//200 105//200 99//200 100//200 91//200 92//200 87//200 84//200 82//200 83//200 89//200 90//200 93//200 94//200 101//200 103//200 106//200 107//200 112//200 113//200 133//200 134//200 174//200 111//200 102//200 95//200 96//200 98//200 155//200
f 86//193 66//193 64//193 85//193
f 97//168 98//168 96//168 66//168 86//168
f 278//202 46//202 277//202
f 279//203 18//203 264//203
f 220//53 21//53 29//53 223//53
f 174//204 67//204 111//204
f 85//166 64//166 61//166 88//166
f 206//5 3//5 5//5 205//5
f 275//205 1//205 273//205
f 98//193 97//193 155//193
f 156//91 35//91 44//91 159//91
f 272//206 31//206 270//206
f 130//133 50//133 59//133 132//133
