# Blender v2.81 (sub 16) OBJ File: 'zoetrope-backflip-boy-separate-booleaned.blend'
# www.blender.org
mtllib 5.mtl
o back6_zoetrope.309
v -0.000597 0.096635 -0.253624
v -0.001318 0.095747 -0.250600
v -0.001949 0.094232 -0.247813
v -0.002287 0.074171 -0.242719
v -0.002838 0.089613 -0.243426
v -0.002463 0.092158 -0.245386
v -0.003056 0.086711 -0.242017
v -0.003109 0.083577 -0.241221
v -0.002994 0.080349 -0.241073
v -0.002716 0.077167 -0.241580
v 0.000480 0.066425 -0.252242
v -0.001059 0.069245 -0.246669
v -0.000312 0.067532 -0.249308
v -0.001727 0.071491 -0.244440
v -0.003121 -0.046655 0.276026
v -0.002216 -0.046266 0.279984
v -0.003857 -0.047869 0.272203
v -0.004779 -0.055763 0.263138
v -0.004393 -0.049854 0.268681
v -0.001182 -0.046720 0.283902
v -0.004212 -0.063361 0.260354
v 0.000378 -0.081022 0.267251
v -0.000759 -0.078304 0.264432
v -0.001831 -0.075027 0.262254
v -0.002790 -0.071334 0.260812
v -0.003596 -0.067388 0.260170
v -0.004612 -0.059429 0.261358
v -0.004705 -0.052525 0.265615
v -0.000691 -0.027055 0.283441
v -0.000163 -0.027004 0.285762
v -0.001157 -0.027596 0.281169
v -0.001997 -0.031832 0.275610
v -0.001540 -0.028606 0.279047
v 0.000479 -0.048229 0.279012
v -0.001981 -0.036177 0.273725
v -0.000092 -0.046878 0.277137
v -0.000626 -0.045151 0.275587
v -0.001101 -0.043125 0.274430
v -0.001496 -0.040888 0.273717
v -0.001794 -0.038538 0.273478
v -0.002050 -0.033909 0.274446
v -0.001824 -0.030038 0.277167
v 0.000498 -0.001779 -0.150190
v 0.000230 -0.001860 -0.148977
v -0.000017 -0.002198 -0.147804
v -0.000230 -0.002777 -0.146722
v -0.000290 -0.010495 -0.144723
v -0.000524 -0.004549 -0.145016
v -0.000402 -0.003572 -0.145779
v -0.000591 -0.005665 -0.144466
v -0.000600 -0.006870 -0.144154
v -0.000551 -0.008114 -0.144093
v -0.000446 -0.009340 -0.144285
v 0.000688 -0.013492 -0.148404
v 0.000149 -0.012398 -0.146248
v 0.000411 -0.013062 -0.147269
v -0.000089 -0.011530 -0.145387
v 0.000173 0.007571 -0.150576
v -0.000427 0.007353 -0.147438
v -0.000977 0.006476 -0.144407
v -0.001452 0.004978 -0.141616
v -0.001540 -0.014888 -0.136547
v -0.002099 0.000407 -0.137226
v -0.001832 0.002925 -0.139187
v -0.002243 -0.002467 -0.135819
v -0.002257 -0.005570 -0.135027
v -0.002140 -0.008768 -0.134885
v -0.001898 -0.011920 -0.135399
v 0.000666 -0.022570 -0.146110
v -0.000548 -0.019771 -0.140518
v 0.000044 -0.021471 -0.143167
v -0.001084 -0.017544 -0.138278
v -0.010144 -0.306470 -0.256729
v 0.000733 -0.306470 -0.256729
v 0.000733 0.618099 -0.256729
v -0.010144 0.618099 -0.256729
v -0.010144 -0.306470 0.287136
v -0.010144 0.618099 0.287136
v 0.000733 -0.306470 0.287136
v 0.000733 0.618099 0.287136
v 0.000733 -0.074606 0.261627
v 0.000733 -0.078053 0.264063
v 0.000733 -0.078059 0.264067
v 0.000733 -0.080963 0.267163
v 0.000733 -0.081652 0.268280
v 0.000733 -0.081158 0.268612
v 0.000733 -0.080964 0.267164
v 0.000733 -0.080627 0.268969
v 0.000733 -0.070756 0.259950
v 0.000733 -0.074595 0.261622
v 0.000733 -0.080330 0.269168
v 0.000733 -0.072386 0.274500
v 0.000733 -0.053561 0.287136
v 0.000632 -0.052944 0.287136
v 0.000733 -0.066677 0.259110
v 0.000733 -0.070740 0.259947
v 0.000733 -0.062549 0.259144
v 0.000733 -0.066658 0.259110
v 0.000733 -0.058551 0.260050
v 0.000733 -0.062527 0.259149
v 0.000733 -0.054858 0.261789
v 0.000733 -0.058529 0.260061
v 0.000733 -0.051631 0.264284
v 0.000733 -0.054838 0.261804
v 0.000733 -0.051615 0.264303
v 0.000733 -0.049012 0.267427
v 0.000733 -0.047115 0.271080
v 0.000733 -0.049001 0.267447
v 0.000733 -0.047109 0.271100
v 0.000733 -0.046022 0.275083
v 0.000121 -0.049838 0.287136
v 0.000733 -0.046021 0.275101
v 0.000733 -0.045782 0.279262
v 0.000733 -0.045784 0.279276
v 0.000733 -0.046405 0.283434
v 0.000020 -0.049220 0.287136
v 0.000733 -0.046408 0.283442
v 0.000733 -0.047761 0.287136
v -0.000208 -0.047831 0.287136
v -0.000141 -0.048242 0.287136
v -0.000066 -0.048698 0.287136
v 0.000733 -0.046791 0.276946
v 0.000733 -0.046793 0.276948
v 0.000733 -0.048203 0.278954
v 0.000733 -0.045011 0.275275
v 0.000733 -0.047766 0.280327
v 0.000733 -0.032621 0.287136
v 0.000412 -0.029512 0.287136
v 0.000255 -0.027994 0.287136
v 0.000733 -0.048530 0.279983
v 0.000733 -0.048428 0.280029
v 0.000733 -0.048630 0.279938
v 0.000733 -0.048205 0.280129
v 0.000733 -0.048203 0.278954
v 0.000733 -0.045008 0.275273
v 0.000733 -0.042936 0.274009
v 0.000733 -0.040658 0.273204
v 0.000733 -0.042931 0.274007
v 0.000733 -0.038277 0.272898
v 0.000733 -0.040652 0.273204
v 0.000733 -0.038270 0.272898
v 0.000733 -0.035896 0.273101
v 0.000231 -0.027764 0.287136
v 0.000733 -0.035889 0.273104
v 0.000733 -0.033621 0.273807
v 0.000733 -0.031550 0.274983
v 0.000733 -0.033615 0.273811
v 0.000733 -0.029774 0.276579
v 0.000733 -0.031545 0.274988
v 0.000191 -0.027371 0.287136
v 0.000733 -0.029770 0.276585
v 0.000733 -0.028371 0.278525
v 0.000733 -0.028368 0.278531
v 0.000733 -0.027401 0.280735
v 0.000733 -0.026908 0.283114
v 0.000733 -0.027400 0.280740
v 0.000180 -0.027273 0.287136
v 0.000733 -0.026912 0.285556
v 0.000733 -0.026908 0.283118
v 0.000733 -0.026912 0.285559
v 0.000733 -0.027242 0.287136
v 0.000733 -0.021221 -0.146765
v 0.000733 -0.022326 -0.146508
v 0.000733 -0.021439 -0.143033
v 0.000733 -0.019715 -0.140272
v 0.000733 -0.021440 -0.143035
v 0.000733 -0.022618 -0.146440
v 0.000733 -0.022567 -0.146097
v 0.000733 -0.017713 -0.147579
v 0.000733 -0.019713 -0.140268
v 0.000733 -0.017467 -0.137930
v 0.000733 -0.022567 -0.146097
v 0.000733 -0.017462 -0.137925
v 0.000733 -0.014793 -0.136110
v 0.000733 -0.014786 -0.136105
v 0.000733 -0.011810 -0.134891
v 0.000733 -0.005338 -0.150455
v 0.000733 -0.011801 -0.134887
v 0.000733 -0.008648 -0.134328
v 0.000733 -0.008638 -0.134326
v 0.000733 -0.005446 -0.134445
v 0.000733 0.002533 -0.152284
v 0.000733 -0.012964 -0.148723
v 0.000733 -0.011617 -0.149025
v 0.000733 -0.013490 -0.148394
v 0.000733 -0.013046 -0.147197
v 0.000733 -0.013045 -0.147196
v 0.000733 -0.012369 -0.146117
v 0.000733 -0.013415 -0.148622
v 0.000733 -0.013521 -0.148598
v 0.000733 -0.012368 -0.146117
v 0.000733 -0.011489 -0.145203
v 0.000733 -0.013490 -0.148394
v 0.000733 -0.011488 -0.145202
v 0.000733 -0.010445 -0.144494
v 0.000733 -0.010444 -0.144493
v 0.000733 -0.009282 -0.144021
v 0.000733 -0.006784 -0.150111
v 0.000733 -0.005435 -0.134445
v 0.000733 -0.002343 -0.135237
v 0.000733 -0.009280 -0.144020
v 0.000733 -0.008051 -0.143805
v 0.000733 -0.008049 -0.143804
v 0.000733 -0.006805 -0.143854
v 0.000733 -0.003719 -0.150799
v 0.000733 -0.006803 -0.143855
v 0.000733 -0.005600 -0.144168
v 0.000733 -0.002332 -0.135240
v 0.000733 0.000526 -0.136670
v 0.000733 -0.005598 -0.144169
v 0.000733 -0.004487 -0.144733
v 0.000733 -0.004486 -0.144734
v 0.000733 -0.003516 -0.145523
v 0.000733 0.000535 -0.136675
v 0.000733 0.003034 -0.138682
v 0.000733 -0.003515 -0.145524
v 0.000733 -0.002729 -0.146504
v 0.000733 -0.002728 -0.146506
v 0.000733 -0.002160 -0.147634
v 0.000733 -0.002255 -0.151128
v 0.000733 -0.003020 -0.150957
v 0.000733 -0.002160 -0.147635
v 0.000733 -0.001835 -0.148863
v 0.000733 0.003041 -0.138688
v 0.000733 0.005072 -0.141185
v 0.000733 -0.001835 -0.148864
v 0.000733 -0.001767 -0.150137
v 0.000733 -0.001929 -0.151201
v 0.000733 -0.002036 -0.151177
v 0.000733 -0.001767 -0.150138
v 0.000733 0.005077 -0.141191
v 0.000733 0.006550 -0.144069
v 0.000733 0.006553 -0.144074
v 0.000733 0.007404 -0.147208
v 0.000733 0.006281 -0.153153
v 0.000733 0.004351 -0.152705
v 0.000733 0.007405 -0.147212
v 0.000733 0.007596 -0.150466
v 0.000733 0.007167 -0.153360
v 0.000733 0.007596 -0.150468
v 0.000733 0.006875 -0.153292
v 0.000733 0.069327 -0.246223
v 0.000733 0.069330 -0.246218
v 0.000733 0.071601 -0.243827
v 0.000733 0.067581 -0.249045
v 0.000733 0.066510 -0.253262
v 0.000733 0.066282 -0.253219
v 0.000733 0.067831 -0.253509
v 0.000733 0.067580 -0.249048
v 0.000733 0.066437 -0.252178
v 0.000733 0.071219 -0.254143
v 0.000733 0.071607 -0.243820
v 0.000733 0.074304 -0.241963
v 0.000733 0.066437 -0.252179
v 0.000733 0.083981 -0.256530
v 0.000733 0.074313 -0.241957
v 0.000733 0.077318 -0.240715
v 0.000733 0.077329 -0.240710
v 0.000733 0.080511 -0.240136
v 0.000733 0.080524 -0.240133
v 0.000733 0.083744 -0.240252
v 0.000733 0.083758 -0.240252
v 0.000733 0.086877 -0.241058
v 0.000733 0.085039 -0.256729
v 0.000374 0.092644 -0.256729
v 0.000733 0.086890 -0.241061
v 0.000733 0.089771 -0.242520
v 0.000733 0.089782 -0.242525
v 0.000733 0.092299 -0.244573
v 0.000733 0.092309 -0.244580
v 0.000733 0.094353 -0.247129
v 0.000733 0.094359 -0.247137
v 0.000733 0.095840 -0.250076
v 0.000733 0.095844 -0.250083
v 0.000176 0.096856 -0.256729
v 0.000176 0.096854 -0.256729
v 0.000302 0.094163 -0.256729
v 0.000733 0.096697 -0.253284
v 0.000733 0.096698 -0.253289
v 0.000733 0.096884 -0.256614
v 0.000286 0.096863 -0.256729
v 0.000733 0.096884 -0.256616
v 0.000288 0.096863 -0.256729
v 0.000733 0.096868 -0.256729
vn 0.9686 0.0458 0.2443
vn 0.9686 0.0456 0.2443
vn 0.1099 -0.9605 -0.2558
vn 0.1555 -0.8771 -0.4545
vn 0.1538 -0.8824 -0.4447
vn 0.9686 0.0457 0.2442
vn 0.9686 0.0457 0.2443
vn 0.2480 -0.2424 -0.9380
vn 0.2462 -0.0379 -0.9685
vn 0.2459 -0.0356 -0.9686
vn 0.9686 0.0457 0.2445
vn 0.2332 0.1728 -0.9570
vn 0.2104 0.3708 -0.9046
vn 0.2102 0.3736 -0.9035
vn 0.1783 0.5559 -0.8119
vn -0.0401 0.9990 -0.0205
vn -0.0100 0.9891 -0.1468
vn 0.1915 -0.7631 -0.6172
vn 0.1910 -0.7657 -0.6142
vn 0.2201 -0.6126 -0.7591
vn 0.2390 -0.4403 -0.8655
vn 0.2392 -0.4385 -0.8663
vn 0.2478 -0.2418 -0.9382
vn 0.2199 -0.6156 -0.7568
vn 0.0926 0.8457 -0.5256
vn 0.0922 0.8468 -0.5239
vn 0.0335 0.9490 -0.3134
vn 0.9686 0.0455 0.2444
vn 0.0421 0.9385 -0.3428
vn 0.1781 0.5580 -0.8105
vn 0.1374 0.7224 -0.6777
vn 0.1381 0.7181 -0.6821
vn 0.2338 0.1680 -0.9577
vn 0.1072 -0.9619 -0.2515
vn 0.1744 -0.9834 0.0508
vn 0.1753 -0.9829 0.0565
vn 0.9592 0.1572 -0.2348
vn 0.9593 0.1573 -0.2347
vn 0.2176 -0.9416 0.2570
vn 0.9592 0.1576 -0.2348
vn 0.1253 -0.9812 -0.1466
vn 0.0740 -0.9414 -0.3290
vn 0.0699 -0.9367 -0.3431
vn 0.9592 0.1570 -0.2350
vn 0.0524 0.6961 0.7160
vn 0.1057 0.5707 0.8143
vn 0.1045 0.5740 0.8122
vn 0.1572 0.3927 0.9061
vn 0.9592 0.1577 -0.2347
vn 0.1568 0.3943 0.9055
vn 0.9592 0.1576 -0.2345
vn 0.9592 0.1578 -0.2346
vn 0.2023 0.1975 0.9592
vn 0.2392 -0.0079 0.9709
vn 0.2390 -0.0080 0.9710
vn 0.9592 0.1576 -0.2347
vn 0.2653 -0.2135 0.9402
vn 0.2014 0.2022 0.9584
vn 0.0476 0.7285 0.6834
vn 0.2652 -0.2131 0.9404
vn 0.2798 -0.4126 0.8669
vn 0.2798 -0.4089 0.8686
vn 0.2819 -0.5876 0.7585
vn 0.2725 -0.7383 0.6169
vn 0.2722 -0.7392 0.6161
vn 0.2507 -0.8576 0.4490
vn 0.2504 -0.8592 0.4463
vn 0.2178 -0.9411 0.2587
vn 0.9592 0.1575 -0.2347
vn 0.2822 -0.5869 0.7589
vn 0.1239 -0.9800 -0.1555
vn 0.0970 -0.9949 -0.0284
vn 0.1024 -0.9947 -0.0017
vn 0.9697 0.1000 -0.2227
vn 0.1462 -0.9686 0.2010
vn 0.9697 0.1003 -0.2229
vn 0.0539 -0.9774 -0.2044
vn 0.9697 0.1001 -0.2228
vn 0.0467 0.8013 0.5965
vn 0.9697 0.1007 -0.2226
vn 0.9697 0.1003 -0.2228
vn 0.0475 0.8172 0.5744
vn 0.0998 0.6637 0.7413
vn 0.1432 0.5056 0.8508
vn 0.1409 0.5157 0.8451
vn 0.1764 0.3384 0.9243
vn 0.1793 0.3275 0.9277
vn 0.9698 0.1002 -0.2226
vn 0.2099 0.1249 0.9697
vn 0.2304 -0.0719 0.9704
vn 0.2313 -0.0830 0.9693
vn 0.2418 -0.2877 0.9267
vn 0.2092 0.1315 0.9690
vn 0.0963 0.6813 0.7256
vn 0.2426 -0.2873 0.9266
vn 0.2435 -0.4782 0.8438
vn 0.2433 -0.4791 0.8434
vn 0.2333 -0.6517 0.7217
vn 0.2132 -0.7953 0.5675
vn 0.2132 -0.7924 0.5716
vn 0.1831 -0.9012 0.3928
vn 0.1837 -0.9002 0.3949
vn 0.1467 -0.9675 0.2058
vn 0.9698 0.0999 -0.2225
vn 0.2333 -0.6499 0.7233
vn 0.9697 0.1001 -0.2227
vn 0.9697 0.1005 -0.2228
vn 0.0451 -0.9691 -0.2425
vn 0.0536 -0.9986 0.0000
vn 0.0622 -0.9967 -0.0530
vn 0.9745 0.0501 0.2189
vn 0.9745 0.0506 0.2185
vn 0.9745 0.0492 0.2188
vn 0.9745 0.0483 0.2191
vn 0.1057 -0.9613 -0.2544
vn 0.1508 -0.8652 -0.4781
vn 0.1444 -0.8839 -0.4448
vn 0.9747 0.0485 0.2184
vn 0.9745 0.0491 0.2189
vn 0.9745 0.0492 0.2189
vn 0.9745 0.0493 0.2188
vn 0.9746 0.0491 0.2187
vn 0.9746 0.0490 0.2187
vn 0.2241 -0.2460 -0.9430
vn 0.2194 -0.0029 -0.9756
vn 0.2208 -0.0393 -0.9745
vn 0.9745 0.0492 0.2191
vn 0.2078 0.1691 -0.9635
vn 0.1826 0.3996 -0.8983
vn 0.1857 0.3700 -0.9103
vn 0.1539 0.5680 -0.8085
vn -0.0845 0.9964 0.0000
vn -0.0168 0.9884 -0.1508
vn 0.1785 -0.7580 -0.6274
vn 0.1769 -0.7680 -0.6156
vn 0.2044 -0.5986 -0.7745
vn 0.2188 -0.4229 -0.8794
vn 0.2176 -0.4419 -0.8703
vn 0.2239 -0.2454 -0.9432
vn 0.2017 -0.6184 -0.7595
vn 0.0469 0.9093 -0.4134
vn 0.0764 0.8447 -0.5298
vn 0.0051 0.9718 -0.2358
vn 0.9745 0.0489 0.2191
vn 0.0308 0.9370 -0.3479
vn 0.9746 0.0497 0.2185
vn 0.9745 0.0490 0.2188
vn 0.9745 0.0488 0.2191
vn 0.1555 0.5548 -0.8173
vn 0.1204 0.7070 -0.6969
vn 0.1186 0.7154 -0.6886
vn 0.2064 0.1928 -0.9593
vn 0.0846 -0.9842 -0.1555
vn 0.0477 -0.9987 -0.0150
vn 0.0565 -0.9967 -0.0585
vn 0.9806 0.0446 0.1908
vn 0.9806 0.0447 0.1906
vn 0.9806 0.0443 0.1907
vn 0.9806 0.0440 0.1908
vn 0.0941 -0.9608 -0.2609
vn 0.1306 -0.8736 -0.4688
vn 0.1278 -0.8829 -0.4519
vn 0.9807 0.0440 0.1905
vn 0.9806 0.0442 0.1907
vn 0.9807 0.0443 0.1907
vn 0.9807 0.0442 0.1906
vn 0.1957 -0.2433 -0.9500
vn 0.1925 -0.0378 -0.9806
vn 0.1924 -0.0365 -0.9806
vn 0.9807 0.0443 0.1904
vn 0.9806 0.0443 0.1908
vn 0.1806 0.1719 -0.9684
vn 0.1605 0.3754 -0.9129
vn 0.1609 0.3728 -0.9139
vn 0.1352 0.5502 -0.8240
vn -0.0473 0.9989 0.0000
vn -0.0166 0.9891 -0.1466
vn 0.1557 -0.7670 -0.6225
vn 0.1558 -0.7663 -0.6233
vn 0.1769 -0.6170 -0.7668
vn 0.1906 -0.4373 -0.8789
vn 0.1906 -0.4394 -0.8779
vn 0.1957 -0.2436 -0.9499
vn 0.1771 -0.6163 -0.7673
vn 0.0618 0.8531 -0.5181
vn 0.0646 0.8464 -0.5287
vn 0.0290 0.9297 -0.3672
vn 0.9806 0.0440 0.1910
vn 0.0249 0.9382 -0.3452
vn 0.9806 0.0441 0.1908
vn 0.9806 0.0444 0.1907
vn 0.1342 0.5573 -0.8194
vn 0.1016 0.7170 -0.6896
vn 0.1016 0.7175 -0.6891
vn 0.1803 0.1758 -0.9678
vn 0.0998 -0.9516 -0.2906
vn -0.0000 -1.0000 0.0000
vn -0.0000 -0.0000 -1.0000
vn -1.0000 0.0000 -0.0000
vn -0.0000 0.0000 1.0000
vn 1.0000 -0.0000 0.0000
vn 0.0000 1.0000 -0.0000
vn 0.9698 0.0996 -0.2228
vn 0.9592 0.1581 -0.2344
vn 0.0611 -0.9966 -0.0558
vn 0.9745 0.0491 0.2188
vn 0.9592 0.1575 -0.2348
vn 0.0604 -0.9971 -0.0457
vn 0.0162 -0.9891 0.1465
vn 0.0161 -0.9884 0.1508
vn -0.0033 0.9173 0.3981
vn 0.9592 0.1574 -0.2348
vn 0.0096 -0.9890 0.1473
vn 0.9697 0.1002 -0.2228
vn 0.9592 0.1573 -0.2350
vn -0.0112 0.8512 0.5247
usemtl Default_OBJ
s off
f 2//1 276//1 275//1 1//1
f 2//2 277//2 276//2
f 1//3 278//3 274//3 2//3
f 2//4 274//4 273//4
f 2//5 273//5 272//5 3//5
f 2//6 3//6 6//6
f 2//6 255//6 264//6 265//6
f 8//6 4//6 2//6
f 2//7 265//7 277//7
f 7//7 2//7 5//7
f 5//6 2//6 6//6
f 8//7 2//7 7//7
f 7//8 263//8 262//8 8//8
f 8//9 262//9 261//9
f 8//10 261//10 260//10 9//10
f 10//7 8//7 9//7
f 8//11 10//11 4//11
f 9//12 259//12 258//12 10//12
f 10//13 258//13 257//13
f 10//14 257//14 256//14 4//14
f 4//15 256//15 253//15
f 11//16 250//16 254//16
f 11//17 254//17 247//17
f 3//18 272//18 271//18
f 3//19 271//19 270//19 6//19
f 6//20 270//20 269//20
f 5//21 268//21 267//21
f 5//22 267//22 266//22 7//22
f 7//23 266//23 263//23
f 6//24 269//24 268//24 5//24
f 12//25 243//25 242//25
f 12//26 242//26 245//26 13//26
f 13//27 245//27 249//27
f 13//28 14//28 12//28
f 13//29 249//29 250//29 11//29
f 13//1 11//1 247//1 246//1
f 13//1 246//1 248//1
f 4//2 14//2 13//2
f 4//30 253//30 252//30 14//30
f 14//31 252//31 244//31
f 14//32 244//32 243//32 12//32
f 9//33 260//33 259//33
f 1//34 279//34 278//34
f 15//35 110//35 112//35
f 15//36 112//36 113//36 16//36
f 20//37 15//37 16//37
f 15//38 19//38 17//38
f 17//39 109//39 110//39 15//39
f 20//40 18//40 15//40
f 15//40 18//40 19//40
f 16//41 114//41 115//41 20//41
f 20//42 115//42 117//42
f 20//43 117//43 118//43 119//43
f 20//44 119//44 120//44
f 20//40 92//40 91//40 21//40
f 20//40 21//40 18//40
f 22//45 87//45 84//45
f 23//46 83//46 82//46
f 23//47 82//47 81//47 24//47
f 24//48 81//48 90//48
f 24//49 22//49 23//49
f 24//50 90//50 89//50 25//50
f 24//51 25//51 26//51
f 24//52 86//52 85//52 22//52
f 25//53 96//53 95//53 26//53
f 26//54 95//54 98//54
f 26//55 98//55 97//55 21//55
f 26//56 21//56 91//56 88//56
f 21//57 97//57 100//57
f 25//58 89//58 96//58
f 22//59 84//59 83//59 23//59
f 21//60 100//60 99//60 27//60
f 27//61 99//61 102//61
f 27//62 102//62 101//62 18//62
f 18//63 101//63 104//63
f 28//64 103//64 105//64
f 28//65 105//65 106//65 19//65
f 19//66 106//66 108//66
f 19//67 108//67 107//67 17//67
f 17//68 107//68 109//68
f 19//69 18//69 28//69
f 18//70 104//70 103//70 28//70
f 27//69 18//69 21//69
f 16//71 113//71 114//71
f 29//72 155//72 159//72
f 29//73 159//73 158//73 30//73
f 29//74 33//74 31//74
f 31//75 156//75 155//75 29//75
f 29//76 32//76 33//76
f 30//77 160//77 161//77 157//77
f 34//78 128//78 127//78 126//78
f 34//79 134//79 124//79
f 34//80 131//80 130//80
f 34//81 130//81 132//81
f 34//82 124//82 123//82 36//82
f 36//83 123//83 122//83
f 37//84 125//84 135//84
f 37//85 135//85 136//85 38//85
f 38//86 136//86 138//86
f 38//78 36//78 37//78
f 38//87 138//87 137//87 39//87
f 38//88 39//88 40//88
f 38//78 34//78 36//78
f 34//78 38//78 40//78
f 39//89 140//89 139//89 40//89
f 40//90 139//90 141//90
f 40//91 141//91 142//91 35//91
f 40//78 35//78 34//78
f 35//92 142//92 144//92
f 39//93 137//93 140//93
f 36//94 122//94 125//94 37//94
f 35//95 144//95 145//95 41//95
f 41//96 145//96 147//96
f 41//97 147//97 146//97 32//97
f 32//98 146//98 149//98
f 42//99 148//99 151//99
f 42//100 151//100 152//100 33//100
f 33//101 152//101 153//101
f 33//102 153//102 154//102 31//102
f 31//103 154//103 156//103
f 33//104 32//104 42//104
f 32//105 149//105 148//105 42//105
f 41//106 32//106 35//106
f 34//107 126//107 133//107
f 30//108 158//108 160//108
f 43//109 230//109 227//109
f 43//110 227//110 226//110 44//110
f 45//111 43//111 44//111
f 43//112 229//112 228//112
f 45//113 221//113 220//113 43//113
f 43//114 220//114 229//114
f 44//115 223//115 222//115 45//115
f 45//116 222//116 219//116
f 45//117 219//117 218//117 46//117
f 45//118 46//118 49//118
f 45//119 198//119 205//119
f 51//120 47//120 45//120
f 45//121 205//121 221//121
f 50//113 45//113 48//113
f 48//122 45//122 49//122
f 51//123 45//123 50//123
f 50//124 207//124 206//124 51//124
f 51//125 206//125 204//125
f 51//126 204//126 203//126 52//126
f 53//127 51//127 52//127
f 51//113 53//113 47//113
f 52//128 202//128 201//128 53//128
f 53//129 201//129 197//129
f 53//130 197//130 196//130 47//130
f 47//131 196//131 195//131
f 54//132 185//132 193//132
f 54//133 193//133 190//133
f 46//134 218//134 217//134
f 46//135 217//135 216//135 49//135
f 49//136 216//136 213//136
f 48//137 212//137 211//137
f 48//138 211//138 210//138 50//138
f 50//139 210//139 207//139
f 49//140 213//140 212//140 48//140
f 55//141 191//141 188//141
f 55//142 188//142 187//142 56//142
f 56//143 187//143 186//143
f 56//144 57//144 55//144
f 56//145 186//145 185//145 54//145
f 56//146 54//146 190//146 189//146
f 56//147 189//147 183//147
f 47//148 57//148 56//148
f 47//149 195//149 194//149 57//149
f 57//150 194//150 192//150
f 57//151 192//151 191//151 55//151
f 52//152 203//152 202//152
f 44//153 226//153 223//153
f 58//154 240//154 238//154
f 58//155 238//155 237//155 59//155
f 60//156 58//156 59//156
f 58//157 241//157 239//157
f 60//158 236//158 235//158 58//158
f 58//159 235//159 241//159
f 59//160 234//160 233//160 60//160
f 60//161 233//161 232//161
f 60//162 232//162 231//162 61//162
f 60//163 61//163 64//163
f 60//158 177//158 182//158
f 66//158 62//158 60//158
f 60//164 182//164 236//164
f 65//158 60//158 63//158
f 63//165 60//165 64//165
f 66//166 60//166 65//166
f 65//167 200//167 199//167 66//167
f 66//168 199//168 181//168
f 66//169 181//169 180//169 67//169
f 68//170 66//170 67//170
f 66//171 68//171 62//171
f 67//172 179//172 178//172 68//172
f 68//173 178//173 176//173
f 68//174 176//174 175//174 62//174
f 62//175 175//175 174//175
f 69//176 168//176 172//176
f 69//177 172//177 167//177
f 61//178 231//178 225//178
f 61//179 225//179 224//179 64//179
f 64//180 224//180 215//180
f 63//181 214//181 209//181
f 63//182 209//182 208//182 65//182
f 65//183 208//183 200//183
f 64//184 215//184 214//184 63//184
f 70//185 170//185 165//185
f 70//186 165//186 164//186 71//186
f 71//187 164//187 166//187
f 71//188 72//188 70//188
f 71//189 166//189 168//189 69//189
f 71//190 69//190 167//190 163//190
f 71//191 163//191 162//191
f 62//158 72//158 71//158
f 62//192 174//192 173//192 72//192
f 72//193 173//193 171//193
f 72//194 171//194 170//194 70//194
f 67//195 180//195 179//195
f 59//196 237//196 234//196
f 77//197 73//197 74//197
f 73//198 75//198 284//198 283//198 281//198 275//198 276//198 277//198 265//198 264//198 74//198
f 73//198 76//198 75//198
f 77//199 76//199 73//199
f 77//199 78//199 76//199
f 78//200 77//200 79//200
f 77//197 74//197 79//197
f 74//201 80//201 161//201 160//201 158//201 159//201 155//201 156//201 154//201 153//201 152//201 151//201 148//201 149//201 146//201 147//201 145//201 144//201 142//201 141//201 139//201 140//201 137//201 138//201 136//201 135//201 125//201 122//201 123//201 124//201 134//201 132//201 130//201 131//201 133//201 126//201 127//201 118//201 117//201 115//201 114//201 113//201 112//201 110//201 109//201 107//201 108//201 106//201 105//201 103//201 104//201 101//201 102//201 99//201 100//201 97//201 98//201 95//201 96//201 89//201 90//201 81//201 82//201 83//201 84//201 87//201 85//201 86//201 88//201 91//201 92//201 93//201 79//201
f 78//200 79//200 93//200 94//200 111//200 116//200 121//200 120//200 119//200 118//200 127//200 128//200 129//200 143//200 150//200 157//200 161//200 80//200
f 76//202 78//202 80//202
f 76//202 80//202 75//202
f 74//201 264//201 255//201 251//201 248//201 246//201 247//201 254//201 250//201 249//201 245//201 242//201 243//201 244//201 252//201 253//201 256//201 257//201 258//201 259//201 260//201 261//201 262//201 263//201 266//201 267//201 268//201 269//201 270//201 271//201 272//201 273//201 274//201 278//201 279//201 280//201 282//201 284//201 75//201 238//201 227//201 230//201 228//201 229//201 220//201 221//201 205//201 198//201 184//201 183//201 189//201 190//201 167//201
f 184//113 47//113 56//113 183//113
f 190//201 189//201 183//201 184//201 198//201 205//201 221//201 220//201 229//201 228//201 230//201 227//201 226//201 223//201 222//201 219//201 218//201 217//201 216//201 213//201 212//201 211//201 210//201 207//201 206//201 204//201 203//201 202//201 201//201 197//201 196//201 195//201 194//201 192//201 191//201 188//201 187//201 186//201 185//201 193//201
f 193//199 185//199 186//199 187//199 188//199 191//199 192//199 194//199 195//199 196//199 197//199 201//199 202//199 203//199 204//199 206//199 207//199 210//199 211//199 212//199 213//199 216//199 217//199 218//199 219//199 222//199 223//199 226//199 227//199 238//199 240//199 239//199 241//199 235//199 236//199 182//199 177//199 169//199 162//199 163//199 167//199 190//199
f 167//201 172//201 168//201 166//201 164//201 165//201 170//201 171//201 173//201 174//201 175//201 176//201 178//201 179//201 180//201 181//201 199//201 200//201 208//201 209//201 214//201 215//201 224//201 225//201 231//201 232//201 233//201 234//201 237//201 238//201 75//201 80//201 74//201
f 237//201 234//201 233//201 232//201 231//201 225//201 224//201 215//201 214//201 209//201 208//201 200//201 199//201 181//201 180//201 179//201 178//201 176//201 175//201 174//201 173//201 171//201 170//201 165//201 164//201 166//201 168//201 172//201 167//201 163//201 162//201 169//201 177//201 182//201 236//201 235//201 241//201 239//201 240//201 238//201
f 131//203 34//203 133//203
f 177//158 60//158 62//158 169//158
f 116//204 20//204 121//204
f 281//205 280//205 279//205 1//205 275//205
f 94//56 20//56 111//56
f 198//206 45//206 47//206 184//206
f 86//207 24//207 26//207 88//207
f 283//208 282//208 280//208 281//208
f 143//78 32//78 29//78 150//78
f 240//209 58//209 239//209
f 230//210 43//210 228//210
f 129//78 35//78 32//78 143//78
f 92//40 20//40 94//40 93//40
f 134//211 34//211 132//211
f 255//7 2//7 4//7 251//7
f 121//212 20//212 120//212
f 282//213 283//213 284//213
f 128//214 34//214 35//214 129//214
f 150//78 29//78 30//78 157//78
f 251//7 4//7 13//7 248//7
f 111//215 20//215 116//215
f 87//216 22//216 85//216
f 169//158 62//158 71//158 162//158
