# Blender v2.81 (sub 16) OBJ File: 'teaser.blend'
# www.blender.org
mtllib 7.mtl
o Star_01
v 0.884027 1.289331 -0.800717
v 0.719552 1.417122 -0.932653
v 0.842403 1.063534 -0.826905
v 0.901404 1.383599 -0.590446
v 0.929521 1.536129 -0.983048
v 0.960405 1.703665 -0.826905
v 0.901404 1.383599 -1.095734
v 0.937869 1.581411 -1.209504
v 0.873287 1.231069 -0.983048
v 0.864939 1.185788 -1.209504
v 1.083256 1.350077 -0.932653
v 0.918782 1.477868 -0.800717
vt 0.373591 0.935591
vt 0.500000 0.837500
vt 0.400000 0.500470
vt 0.450000 0.500470
vt 0.425000 0.500470
vt 0.548284 0.695147
vt 0.500000 0.500470
vt 0.656250 0.843750
vt 0.550000 0.500470
vt 0.548284 0.992353
vt 0.600000 0.500470
vt 0.500000 0.150000
vt 0.475000 0.500470
vt 0.373591 0.248091
vt 0.575000 0.500470
vt 0.656250 0.156250
vt 0.373591 0.751909
vt 0.375000 0.500470
vt 0.525000 0.500470
vt 0.373591 0.064409
vt 0.548284 0.304853
vt 0.625000 0.500470
vt 0.548284 0.007647
vn -0.7304 -0.3136 0.6068
vn -0.6151 0.0220 0.7881
vn -0.7297 -0.5994 0.3290
vn -0.5212 0.8214 -0.2318
vn -0.5017 0.6375 -0.5848
vn -0.6505 0.1199 -0.7500
vn -0.6696 -0.2737 -0.6904
vn -0.7798 -0.5816 -0.2318
vn -0.7397 -0.6541 0.1581
vn 0.5706 -0.5534 0.6068
vn 0.5825 -0.1988 0.7881
vn 0.7304 0.3136 0.6068
vn 0.7297 0.5994 0.3290
vn 0.6151 -0.0220 0.7881
vn 0.6505 -0.1199 -0.7500
vn 0.5280 -0.4944 -0.6904
vn 0.6696 0.2737 -0.6904
vn -0.5706 0.5534 0.6068
vn -0.4680 0.8202 0.3290
vn -0.5825 0.1988 0.7881
vn -0.6960 -0.4167 -0.5848
vn -0.5280 0.4944 -0.6904
vn -0.4579 0.8748 0.1581
vn 0.4680 -0.8202 0.3290
vn 0.7798 0.5816 -0.2318
vn 0.6960 0.4167 -0.5848
vn 0.7397 0.6541 0.1580
vn 0.5212 -0.8214 -0.2318
vn 0.4579 -0.8748 0.1581
vn 0.5017 -0.6375 -0.5848
usemtl blinn2SG
s 1
f 1/1/1 2/2/1 3/3/2
f 4/4/3 2/2/1 1/5/1
f 5/6/4 2/2/4 6/7/5
f 7/8/6 2/2/6 8/9/7
f 9/10/8 2/2/8 10/11/9
f 1/5/10 3/3/11 11/12/10
f 12/13/12 4/4/13 11/12/12
f 11/12/12 6/7/14 12/14/12
f 7/15/15 8/9/16 11/12/15
f 11/12/15 10/11/17 7/16/15
f 12/17/18 2/2/18 4/4/19
f 2/2/18 12/13/18 6/7/20
f 2/2/8 9/18/8 3/3/21
f 2/2/6 7/15/6 10/11/22
f 2/2/4 5/19/4 8/9/23
f 4/4/24 1/20/10 11/12/10
f 5/19/25 6/7/26 11/12/25
f 8/9/27 5/21/25 11/12/25
f 9/22/28 10/11/29 11/12/28
f 3/3/30 9/23/28 11/12/28
