# Blender v2.81 (sub 16) OBJ File: 'airport.blend'
# www.blender.org
mtllib 17.mtl
o Sandal_Cube.000
v 3.197829 83.683121 2.460590
v 3.240866 83.693596 2.412914
v 3.278681 83.758270 2.461260
v 3.235644 83.747795 2.508937
v 3.004232 84.003914 2.356326
v 3.063511 84.033020 2.416232
v 3.106548 84.043495 2.368555
v 3.047270 84.014389 2.308649
v 3.128611 83.969810 2.461107
v 3.171648 83.980286 2.413430
v 3.247637 83.854370 2.454355
v 3.204599 83.843895 2.502031
v 3.188206 83.682426 2.451751
v 3.226384 83.746490 2.500293
v 3.269422 83.756973 2.452616
v 3.231243 83.692902 2.404074
v 3.001166 83.992355 2.351017
v 3.044203 84.002831 2.303341
v 3.103118 84.032539 2.363051
v 3.060081 84.022064 2.410728
v 3.167987 83.969711 2.407801
v 3.124950 83.959236 2.455478
v 3.195570 83.842216 2.493511
v 3.238607 83.852692 2.445835
v 3.004151 83.748314 2.820802
v 2.976459 83.720840 2.787693
v 3.034444 83.761887 2.748067
v 3.047761 83.782928 2.788086
v 2.863929 83.980659 2.745284
v 2.923085 83.989517 2.720940
v 2.909768 83.968475 2.680921
v 2.836237 83.953186 2.712174
v 2.988470 83.944756 2.722721
v 2.975152 83.923706 2.682702
v 3.030191 83.832512 2.712344
v 3.043509 83.853554 2.752363
v 2.997690 83.755455 2.814067
v 3.037588 83.785385 2.789622
v 3.024539 83.764763 2.750409
v 2.971473 83.729950 2.784271
v 2.868334 83.969803 2.744400
v 2.842118 83.944290 2.714605
v 2.906510 83.960335 2.686842
v 2.919559 83.980957 2.726056
v 2.970381 83.917648 2.687478
v 2.983699 83.938690 2.727497
v 3.034848 83.853935 2.755045
v 3.021531 83.832893 2.715026
v 2.821603 83.955437 2.786976
v 2.803031 83.934776 2.757905
v 2.932387 83.720436 2.827571
v 2.950959 83.741089 2.856642
v 2.797287 83.943703 2.755324
v 2.757208 83.921402 2.819371
v 2.789903 83.947998 2.840479
v 2.814755 83.963188 2.782842
v 2.860354 83.797722 2.920669
v 2.805315 83.888924 2.891027
v 2.772619 83.862328 2.869919
v 2.827658 83.771133 2.899560
v 2.881884 83.714813 2.886517
v 2.914579 83.741409 2.907625
v 2.937509 83.711357 2.830842
v 2.954977 83.730843 2.858361
v 2.883153 83.720894 2.877954
v 2.915191 83.746948 2.898637
v 2.797162 83.942520 2.835071
v 2.765124 83.916466 2.814387
v 2.811523 83.886002 2.885088
v 2.778828 83.859413 2.863980
v 2.829978 83.774658 2.891527
v 2.862673 83.801247 2.912636
v 2.883267 83.645760 2.729726
v 2.925370 83.656006 2.683084
v 3.232955 83.759308 2.497863
v 3.226197 83.758362 2.491554
v 3.203708 83.828224 2.486605
v 3.210298 83.829445 2.492823
v 3.022234 83.767197 2.753829
v 3.019164 83.821060 2.731884
v 3.013191 83.820206 2.727941
v 3.016181 83.766556 2.749751
v 3.112399 83.753967 2.610852
v 3.118804 83.754761 2.616045
v 3.105940 83.816765 2.602552
v 3.099659 83.815720 2.597472
v 2.878170 83.654839 2.726427
v 2.920421 83.665123 2.679622
v 2.791065 83.879471 2.609956
v 2.748815 83.869186 2.656761
v 2.743045 83.878105 2.654208
v 2.785148 83.888351 2.607566
v 2.906554 83.637917 2.693051
v 2.930408 83.660957 2.719646
v 2.814437 83.648773 2.834217
v 2.790583 83.625732 2.807622
v 3.156017 83.655708 2.453890
v 3.179871 83.678749 2.480485
v 3.136117 83.668098 2.528955
v 3.112264 83.645058 2.502360
v 3.107461 83.644218 2.493911
v 2.998437 83.762398 2.489316
v 3.070539 83.779953 2.409440
v 3.146691 83.653763 2.450452
v 2.918667 83.965851 2.398096
v 2.942521 83.988892 2.424691
v 2.986274 83.999542 2.376221
v 2.962420 83.976501 2.349626
v 2.684454 83.782417 2.767073
v 2.708308 83.805458 2.793668
v 2.692626 83.879280 2.743783
v 2.668772 83.856239 2.717187
v 2.785922 83.855942 2.680318
v 2.777940 83.914360 2.636871
v 2.992923 83.761063 2.495419
v 3.101239 83.643646 2.499985
v 2.901986 83.636734 2.684691
v 2.821320 83.719749 2.685121
v 2.844160 83.749718 2.720106
v 2.750354 83.727997 2.823061
v 2.934830 83.872986 2.450564
v 3.004202 83.889870 2.373713
v 3.066595 83.786484 2.407315
v 2.993623 83.768723 2.488155
v 2.726501 83.704956 2.796465
v 2.815706 83.718414 2.691314
v 2.895604 83.636185 2.690887
v 2.786200 83.624695 2.798970
v 2.727005 83.697876 2.788664
v 2.746940 83.881653 2.611573
v 2.753894 83.830765 2.649420
v 2.681516 83.783691 2.755122
v 2.667633 83.849045 2.710958
v 3.233205 83.826714 2.236514
v 3.257059 83.849754 2.263109
v 3.283445 83.725456 2.347124
v 3.259591 83.702415 2.320529
v 2.754086 83.891319 2.610276
v 3.033437 83.921387 2.401621
v 2.958937 83.903252 2.484154
v 3.021446 83.792397 2.524122
v 3.099775 83.811470 2.437348
v 2.911863 83.956146 2.399122
v 2.926753 83.878464 2.453059
v 2.759828 83.832825 2.642319
v 2.752818 83.884125 2.604164
v 3.258825 83.697968 2.393019
v 3.234972 83.674927 2.366424
v 3.163039 83.935707 2.205028
v 3.186893 83.958748 2.231623
v 2.761737 83.825729 2.646752
v 2.929626 83.871635 2.456400
v 2.988374 83.767448 2.493963
v 2.816388 83.726044 2.684089
v 3.229895 83.675903 2.356647
v 3.154734 83.800446 2.316169
v 3.226339 83.817879 2.236844
v 3.251384 83.699898 2.316589
v 2.683792 83.775818 2.759897
v 2.757030 83.823463 2.652938
v 2.811120 83.724800 2.689893
v 2.722611 83.704308 2.787033
v 3.088019 83.990974 2.224434
v 3.111873 84.014015 2.251029
v 2.932581 83.879936 2.446561
v 2.917538 83.958405 2.392071
v 2.957038 83.968025 2.348312
v 3.000258 83.896408 2.371589
v 3.112392 83.940613 2.314155
v 3.178730 83.830688 2.349882
v 3.088397 83.910370 2.280442
v 3.157768 83.927254 2.203591
v 3.223763 83.824745 2.233205
v 3.150790 83.806984 2.314044
v 3.084452 83.916901 2.278317
v 3.041898 83.987419 2.255399
v 3.083369 83.983200 2.221859
v 3.151273 83.933167 2.204293
v 3.065228 84.018761 2.288754
v 3.041375 83.995720 2.262159
v 3.149494 83.799171 2.321974
v 3.225645 83.672989 2.362986
v 3.151931 83.655045 2.444647
v 3.075779 83.781227 2.403635
v 3.083156 83.909096 2.286247
v 3.145550 83.805702 2.319849
v 3.071835 83.787758 2.401511
v 3.009442 83.891151 2.367908
v 3.035993 83.987244 2.260846
v 3.079212 83.915627 2.284122
v 3.005498 83.897682 2.365784
v 2.962278 83.969299 2.342507
v 2.997592 83.769363 2.497527
v 3.075922 83.788429 2.410753
v 2.820306 83.726677 2.693511
v 2.935083 83.880211 2.457559
v 3.009584 83.898354 2.375026
v 2.762068 83.832901 2.653723
v 3.154876 83.807648 2.323287
v 3.088538 83.917572 2.287560
vn 0.6187 -0.6693 0.4114
vn -0.3473 0.9314 -0.1087
vn 0.3861 0.7644 0.5164
vn 0.6845 0.2698 0.6772
vn 0.5611 0.5420 0.6256
vn -0.6153 0.6751 -0.4070
vn 0.3526 -0.9288 0.1142
vn -0.3852 -0.7652 -0.5159
vn -0.6850 -0.2685 -0.6773
vn -0.5611 -0.5420 -0.6256
vn -0.6611 -0.1610 0.7328
vn -0.6613 -0.1610 0.7326
vn -0.6613 -0.1610 0.7327
vn 0.6615 0.1611 -0.7324
vn 0.6615 0.1611 -0.7325
vn 0.6614 0.1610 -0.7326
vn 0.6614 0.1610 -0.7325
vn -0.6614 -0.1610 0.7325
vn -0.6614 -0.1610 0.7326
vn -0.7124 0.4400 -0.5468
vn 0.6615 0.1610 -0.7325
vn 0.6616 0.1610 -0.7324
vn -0.6616 -0.1611 0.7324
vn 0.1476 -0.9855 -0.0837
vn 0.6506 -0.7480 0.1314
vn -0.3211 0.8621 -0.3919
vn 0.4896 0.6941 -0.5278
vn 0.9577 -0.0818 -0.2757
vn 0.8200 0.3469 -0.4553
vn -0.6276 0.7633 -0.1530
vn 0.3511 -0.8584 0.3741
vn -0.4755 -0.7036 0.5280
vn -0.9585 0.0969 0.2680
vn -0.8200 -0.3469 0.4552
vn 0.0910 0.5919 0.8009
vn -0.2969 -0.4620 -0.8357
vn -0.2828 -0.4467 -0.8488
vn -0.2602 -0.4572 -0.8504
vn 0.2591 0.4458 0.8568
vn 0.4978 -0.8248 0.2681
vn -0.3059 -0.4468 -0.8407
vn -0.2794 -0.4247 -0.8612
vn 0.2681 0.4309 0.8616
vn 0.3176 0.2155 0.9234
vn -0.4978 0.8248 -0.2681
vn -0.4978 0.8249 -0.2680
vn 0.2826 0.4465 0.8490
vn -0.6231 0.7766 -0.0932
vn -0.5206 -0.0370 0.8530
vn -0.2254 -0.4205 0.8788
vn 0.3483 -0.8330 0.4299
vn -0.6936 0.3553 0.6267
vn -0.3752 0.8351 -0.4023
vn 0.6038 -0.7873 0.1249
vn 0.6968 -0.3679 -0.6157
vn 0.2137 0.4325 -0.8759
vn 0.5206 0.0370 -0.8530
vn -0.5873 -0.5856 -0.5587
vn 0.7102 0.5573 0.4302
vn 0.6938 0.5642 0.4476
vn 0.6290 0.6265 0.4603
vn -0.6861 -0.5558 -0.4694
vn 0.4908 0.4292 0.7582
vn 0.7010 0.5724 0.4254
vn 0.7093 0.4943 0.5026
vn -0.6768 -0.5707 -0.4651
vn -0.6278 -0.5180 -0.5809
vn -0.6935 -0.5641 -0.4481
vn -0.5561 0.2862 0.7803
vn 0.0313 -0.9932 0.1118
vn 0.8010 0.2731 0.5327
vn -0.0866 0.9921 -0.0910
vn -0.8046 -0.2708 -0.5285
vn -0.6875 -0.2775 -0.6711
vn -0.1493 0.9884 -0.0280
vn 0.6827 0.2783 0.6756
vn 0.0893 -0.9948 0.0483
vn 0.3975 0.5836 0.7081
vn 0.4978 -0.8248 0.2682
vn -0.7852 -0.2345 0.5732
vn -0.4978 0.8248 -0.2680
vn -0.5609 -0.5420 -0.6258
vn -0.5612 -0.5422 -0.6254
vn 0.8076 0.2361 -0.5404
vn -0.7415 -0.3068 0.5967
vn 0.7453 0.3390 -0.5741
vn 0.4265 -0.8371 0.3426
vn -0.8094 0.2010 0.5518
vn 0.5612 0.5420 0.6256
vn -0.5425 -0.3300 0.7725
vn -0.5612 -0.5420 -0.6256
vn 0.8094 -0.2011 -0.5518
vn -0.5658 0.8028 -0.1881
vn 0.3843 -0.8400 0.3830
vn -0.5800 0.7967 -0.1700
vn 0.7144 -0.6988 -0.0354
vn 0.6391 0.1966 -0.7436
vn -0.6931 -0.1056 0.7131
vn 0.2528 0.6075 -0.7530
vn -0.2904 0.8367 -0.4643
vn -0.5611 -0.5419 -0.6257
vn -0.6684 -0.5996 0.4401
vn -0.6892 0.5163 -0.5083
vn 0.3601 -0.0847 -0.9291
vn 0.2121 -0.9770 -0.0228
vn 0.1916 0.1389 -0.9716
vn 0.1092 -0.9907 0.0808
vn -0.6429 -0.6270 0.4400
vn -0.6878 0.5165 -0.5100
vn -0.6890 0.5161 -0.5088
vn 0.3601 -0.0846 -0.9291
vn 0.2122 -0.9770 -0.0228
vn -0.8562 -0.3436 0.3859
vn 0.1658 0.1661 -0.9721
vn 0.1474 -0.9881 0.0432
vn -0.7296 -0.5291 0.4333
vn -0.6838 0.5174 -0.5145
vn 0.5043 -0.4700 -0.7244
vn 0.3366 -0.9241 -0.1812
vn -0.9711 -0.0485 0.2337
vn -0.7506 0.4964 -0.4360
vn 0.4973 -0.4284 -0.7544
vn 0.2240 -0.9739 -0.0376
vn -0.9812 0.0092 0.1927
vn -0.7634 0.4909 -0.4199
vn -0.7013 0.5132 -0.4948
vn 0.3792 -0.1172 -0.9179
vn 0.2111 -0.9772 -0.0221
vn -0.8635 -0.3306 0.3809
vn -0.8371 -0.3761 0.3973
vn -0.6888 0.5162 -0.5090
vn 0.4939 -0.4124 -0.7654
vn 0.4080 -0.8631 -0.2976
vn -0.8138 0.4634 -0.3508
vn 0.3865 -0.1303 -0.9130
vn 0.2068 -0.9782 -0.0176
vn -0.8660 -0.3260 0.3792
vn -0.9744 -0.0323 0.2225
vn -0.6891 0.5161 -0.5087
vn 0.3603 -0.0847 -0.9290
vn 0.2119 -0.9770 -0.0228
vn -0.6892 0.5162 -0.5084
vn 0.3399 -0.0524 -0.9390
vn 0.2118 -0.9770 -0.0233
vn -0.8372 -0.3762 0.3969
vn -0.8371 -0.3761 0.3974
vn -0.5012 0.5270 -0.6864
vn -0.0097 0.3196 -0.9475
vn 0.2124 -0.9769 -0.0230
vn 0.3601 -0.0847 -0.9290
vn 0.2118 -0.9770 -0.0235
vn -0.8373 -0.3762 0.3968
vn -0.6891 0.5163 -0.5085
vn 0.3602 -0.0847 -0.9290
vn 0.2123 -0.9769 -0.0230
vn -0.8370 -0.3760 0.3975
vn 0.3600 -0.0846 -0.9291
vn 0.2123 -0.9769 -0.0235
vn -0.6890 0.5162 -0.5088
usemtl 009688
s 1
f 1//1 2//1 3//1 4//1
f 5//2 6//2 7//2 8//2
f 6//3 9//3 10//3 7//3
f 4//4 3//4 11//4 12//4
f 11//5 10//5 9//5 12//5
f 13//6 14//6 15//6 16//6
f 17//7 18//7 19//7 20//7
f 20//8 19//8 21//8 22//8
f 14//9 23//9 24//9 15//9
f 24//10 23//10 22//10 21//10
f 1//11 4//12 14//13 13//11
f 10//14 21//14 19//15 7//14
f 10//14 11//16 24//17 21//14
f 7//14 19//15 18//17 8//17
f 4//12 12//18 23//19 14//13
f 8//20 18//20 17//20 5//20
f 11//16 3//16 15//21 24//17
f 3//16 2//22 16//22 15//21
f 6//12 20//18 22//12 9//13
f 5//23 17//23 20//18 6//12
f 2//24 1//24 13//24 16//24
f 12//18 9//13 22//12 23//19
f 25//25 26//25 27//25 28//25
f 29//26 30//26 31//26 32//26
f 30//27 33//27 34//27 31//27
f 28//28 27//28 35//28 36//28
f 35//29 34//29 33//29 36//29
f 37//30 38//30 39//30 40//30
f 41//31 42//31 43//31 44//31
f 44//32 43//32 45//32 46//32
f 38//33 47//33 48//33 39//33
f 48//34 47//34 46//34 45//34
f 25//35 28//35 38//35 37//35
f 34//36 45//36 43//36 31//36
f 34//37 35//37 48//37 45//37
f 31//38 43//38 42//38 32//38
f 28//39 36//39 47//39 38//39
f 41//40 49//40 50//40 42//40
f 35//41 27//41 39//41 48//41
f 27//42 26//42 40//42 39//42
f 30//43 44//43 46//43 33//43
f 29//44 41//44 44//44 30//44
f 40//45 51//45 52//46 37//46
f 36//47 33//47 46//47 47//47
f 53//48 54//48 55//48 56//48
f 57//49 58//49 59//49 60//49
f 61//50 62//50 57//50 60//50
f 63//51 64//51 62//51 61//51
f 54//52 59//52 58//52 55//52
f 51//53 65//53 66//53 52//53
f 50//54 49//54 67//54 68//54
f 68//55 67//55 69//55 70//55
f 65//56 71//56 72//56 66//56
f 72//57 71//57 70//57 69//57
f 63//58 61//58 65//58 51//58
f 58//59 69//59 67//59 55//59
f 58//60 57//60 72//60 69//60
f 55//61 67//61 49//61 56//61
f 61//62 60//62 71//62 65//62
f 29//63 56//63 49//63 41//63
f 57//64 62//64 66//64 72//64
f 62//65 64//65 52//65 66//65
f 54//66 68//66 70//66 59//66
f 53//67 50//67 68//67 54//67
f 26//40 63//40 73//40 74//40
f 60//68 59//68 70//68 71//68
f 75//16 76//16 77//16 78//16
f 79//69 80//69 81//69 82//69
f 83//70 84//70 79//70 82//70
f 84//71 85//71 80//71 79//71
f 85//72 86//72 81//72 80//72
f 86//73 83//73 82//73 81//73
f 77//74 76//74 83//74 86//74
f 78//75 77//75 86//75 85//75
f 75//76 78//76 85//76 84//76
f 76//77 75//77 84//77 83//77
f 37//78 52//78 64//78 25//78
f 25//79 64//79 63//40 26//40
f 63//80 51//80 87//80 73//80
f 32//45 53//45 56//81 29//81
f 74//82 73//82 87//82 88//82
f 89//83 90//83 91//83 92//83
f 53//45 32//45 92//45 91//45
f 51//45 40//45 88//45 87//45
f 40//84 26//84 74//84 88//84
f 50//85 53//85 91//85 90//85
f 42//40 50//40 90//40 89//40
f 32//86 42//86 89//86 92//86
usemtl 1A1A1A
f 93//87 94//87 95//87 96//87
f 97//79 98//79 99//79 100//79
f 101//10 102//10 103//10 104//10
f 105//45 106//45 107//45 108//45
f 109//88 110//88 111//88 112//88
f 113//5 114//5 111//89 110//5
f 115//10 116//10 117//10 118//10
f 94//5 119//5 120//5 95//5
f 121//10 122//10 123//10 124//10
f 96//90 95//90 120//90 125//90
f 126//10 127//10 128//10 129//10
f 130//91 131//91 132//91 133//91
f 134//92 135//92 136//92 137//92
f 114//93 138//93 112//93 111//93
f 139//5 140//5 141//5 142//5
f 94//94 93//94 100//94 99//94
f 143//10 144//10 145//10 146//10
f 99//5 141//5 119//5 94//5
f 106//95 105//95 138//95 114//95
f 140//5 106//5 114//5 113//5
f 106//5 140//5 139//5 107//5
f 137//96 136//96 147//96 148//96
f 135//97 134//97 149//97 150//97
f 110//98 109//98 125//98 120//98
f 151//91 152//91 153//91 154//91
f 119//5 141//5 140//5 113//5
f 155//10 156//10 157//10 158//10
f 159//10 160//10 161//10 162//10
f 141//5 99//5 98//5 142//5
f 113//5 110//5 120//5 119//5
f 163//99 164//99 150//99 149//99
f 165//10 166//10 167//10 168//10
f 150//5 169//5 170//5 135//5
f 171//10 172//10 173//10 174//10
f 175//91 176//91 177//91 178//91
f 179//5 169//5 150//5 164//5
f 180//100 179//100 164//100 163//100
f 181//10 182//10 183//10 184//10
f 179//45 180//45 108//45 107//45
f 147//5 170//5 142//5 98//5
f 169//5 179//5 107//5 139//5
f 185//101 186//101 187//101 188//101
f 139//5 142//5 170//5 169//5
f 189//10 190//10 191//10 192//10
f 98//79 97//79 148//79 147//79
f 170//5 147//5 136//5 135//5
f 100//102 193//102 102//102 101//102
f 193//103 194//103 103//103 102//103
f 194//104 97//104 104//104 103//104
f 97//105 100//105 101//105 104//105
f 193//106 100//106 116//106 115//106
f 100//107 93//107 117//107 116//107
f 93//108 195//108 118//108 117//108
f 195//109 193//109 115//109 118//109
f 196//110 197//110 122//110 121//110
f 197//111 194//111 123//111 122//111
f 194//112 193//112 124//112 123//112
f 193//113 196//113 121//113 124//113
f 195//114 93//114 127//114 126//114
f 93//115 96//115 128//115 127//115
f 96//116 125//116 129//116 128//116
f 125//117 195//117 126//117 129//117
f 138//118 198//118 131//118 130//118
f 198//119 109//119 132//119 131//119
f 109//120 112//120 133//120 132//120
f 112//121 138//121 130//121 133//121
f 105//122 196//122 144//122 143//122
f 196//123 198//123 145//123 144//123
f 198//124 138//124 146//124 145//124
f 138//125 105//125 143//125 146//125
f 198//126 196//126 152//126 151//126
f 196//127 193//127 153//127 152//127
f 193//128 195//128 154//128 153//128
f 195//129 198//129 151//129 154//129
f 148//130 199//130 156//130 155//130
f 199//131 134//131 157//131 156//131
f 134//132 137//132 158//132 157//132
f 137//133 148//133 155//133 158//133
f 109//134 198//134 160//134 159//134
f 198//135 195//135 161//135 160//135
f 195//136 125//136 162//136 161//136
f 125//137 109//137 159//137 162//137
f 196//138 105//138 166//138 165//138
f 105//139 108//139 167//139 166//139
f 108//140 197//140 168//140 167//140
f 197//141 196//141 165//141 168//141
f 200//142 149//142 172//142 171//142
f 149//143 134//143 173//143 172//143
f 134//144 199//144 174//144 173//144
f 199//145 200//145 171//145 174//145
f 200//146 180//146 176//146 175//146
f 180//147 163//147 177//147 176//147
f 163//148 149//148 178//148 177//148
f 149//149 200//149 175//149 178//149
f 199//150 148//150 182//150 181//150
f 148//151 97//151 183//151 182//151
f 97//152 194//152 184//152 183//152
f 194//153 199//153 181//153 184//153
f 200//154 199//154 186//154 185//154
f 199//155 194//155 187//155 186//155
f 194//156 197//156 188//156 187//156
f 197//153 200//153 185//153 188//153
f 180//157 200//157 190//157 189//157
f 200//158 197//158 191//158 190//158
f 197//130 108//130 192//130 191//130
f 108//159 180//159 189//159 192//159
