# Blender v2.81 (sub 16) OBJ File: 'halloween-groundstructure-visibility.blend'
# www.blender.org
mtllib ghost-head.mtl
o ghost1-head-copy_Cube.007
v -44.647301 -32.896004 9.046640
v -44.647301 -32.248890 21.046640
v -46.647301 -32.896004 9.046640
v -46.647301 -32.248890 21.046640
v -44.647301 -29.218407 9.046640
v -44.647301 -29.865520 21.046640
v -46.647301 -29.218407 9.046640
v -46.647301 -29.865520 21.046640
v -44.647301 -34.434856 18.782087
v -46.647301 -34.434856 18.782087
v -46.647301 -27.679554 18.782087
v -44.647301 -27.679554 18.782087
v -46.647301 -34.404560 11.333908
v -46.647301 -27.709850 11.333908
v -44.647301 -27.709850 11.333908
v -44.647301 -34.404560 11.333908
v -44.647301 -35.152000 16.557159
v -46.647301 -35.152000 16.557159
v -46.647301 -26.962410 16.557159
v -44.647301 -26.962410 16.557159
v -46.647301 -35.189396 13.945534
v -46.647301 -26.925014 13.945534
v -44.647301 -26.925014 13.945534
v -44.647301 -35.189396 13.945534
v -45.212818 -33.080109 9.046640
v -45.212818 -32.368202 21.046640
v -45.212818 -29.034302 9.046640
v -45.212818 -29.746208 21.046640
v -45.212818 -27.341375 18.782087
v -45.212818 -34.773033 18.782087
v -45.212818 -34.739704 11.333908
v -45.212818 -27.374706 11.333908
v -45.212818 -35.561981 16.557159
v -45.212818 -26.552429 16.557159
v -45.212818 -26.511290 13.945534
v -45.212818 -35.603119 13.945534
v -46.124813 -32.368202 21.046640
v -46.124813 -29.034302 9.046640
v -46.124813 -34.773033 18.782087
v -46.124813 -34.739704 11.333908
v -46.124813 -35.561981 16.557159
v -46.124813 -35.603119 13.945534
v -46.124813 -33.080109 9.046640
v -46.124813 -29.746208 21.046640
v -46.124813 -27.341375 18.782087
v -46.124813 -27.374706 11.333908
v -46.124813 -26.552429 16.557159
v -46.124813 -26.511290 13.945534
vt 0.577822 0.184689
vt 0.625000 0.184689
vt 0.625000 0.250000
vt 0.577822 0.250000
vt 0.625000 0.500000
vt 0.577822 0.500000
vt 0.577822 0.679310
vt 0.625000 0.679310
vt 0.625000 0.750000
vt 0.577822 0.750000
vt 0.625000 1.000000
vt 0.577822 1.000000
vt 0.125000 0.679310
vt 0.375000 0.679310
vt 0.375000 0.750000
vt 0.125000 0.750000
vt 0.875000 0.679310
vt 0.875000 0.750000
vt 0.531469 0.750000
vt 0.531469 1.000000
vt 0.531469 0.679310
vt 0.531469 0.250000
vt 0.531469 0.500000
vt 0.531469 0.184689
vt 0.375000 0.184689
vt 0.422651 0.184689
vt 0.422651 0.250000
vt 0.375000 0.250000
vt 0.422651 0.500000
vt 0.375000 0.500000
vt 0.422651 0.679310
vt 0.422651 0.750000
vt 0.422651 1.000000
vt 0.375000 1.000000
vt 0.477060 0.184689
vt 0.477060 0.250000
vt 0.477060 0.500000
vt 0.477060 0.679310
vt 0.477060 0.750000
vt 0.477060 1.000000
vt 0.422651 0.000000
vt 0.477060 0.000000
vt 0.477060 0.070690
vt 0.422651 0.070690
vt 0.422651 0.565311
vt 0.477060 0.565311
vt 0.531469 0.565311
vt 0.531469 0.000000
vt 0.531469 0.070690
vt 0.375000 0.565311
vt 0.375000 0.000000
vt 0.375000 0.070690
vt 0.577822 0.000000
vt 0.577822 0.070690
vt 0.577822 0.565311
vt 0.625000 0.565311
vt 0.875000 0.565311
vt 0.125000 0.565311
vt 0.625000 0.000000
vt 0.625000 0.070690
vt 0.125000 0.500000
vt 0.875000 0.500000
vn -0.2939 -0.6713 0.6804
vn -1.0000 0.0000 0.0000
vn 0.2733 0.6756 0.6848
vn 1.0000 0.0000 0.0000
vn 0.0000 0.0000 -1.0000
vn 0.0000 0.0000 1.0000
vn 0.5310 0.8027 0.2717
vn -0.5613 -0.7839 0.2653
vn -0.3782 -0.7610 -0.5271
vn 0.3531 0.7691 -0.5327
vn -0.6190 -0.7853 0.0118
vn 0.5887 0.8083 0.0122
vn 0.5339 0.8064 -0.2545
vn -0.5642 -0.7873 -0.2485
vn 0.5339 -0.8064 -0.2545
vn 0.0000 0.9495 -0.3139
vn 0.0000 0.9999 0.0158
vn 0.5887 -0.8083 0.0122
vn 0.0000 0.8094 -0.5873
vn 0.3531 -0.7691 -0.5327
vn 0.5310 -0.8027 0.2717
vn 0.0000 0.9425 0.3342
vn 0.0000 0.6856 0.7280
vn 0.2733 -0.6756 0.6848
vn -0.2939 0.6713 0.6804
vn -0.5613 0.7839 0.2653
vn -0.3782 0.7610 -0.5271
vn -0.6190 0.7853 0.0118
vn -0.5642 0.7873 -0.2485
vn 0.0000 -0.9495 -0.3139
vn 0.0000 -0.9999 0.0157
vn 0.0000 -0.8094 -0.5873
vn 0.0000 -0.9425 0.3342
vn 0.0000 -0.6856 0.7280
usemtl None
s off
f 39/1/1 37/2/1 4/3/1 10/4/1
f 10/4/2 4/3/2 8/5/2 11/6/2
f 29/7/3 28/8/3 6/9/3 12/10/3
f 12/10/4 6/9/4 2/11/4 9/12/4
f 25/13/5 27/14/5 5/15/5 1/16/5
f 28/8/6 26/17/6 2/18/6 6/9/6
f 20/19/4 12/10/4 9/12/4 17/20/4
f 34/21/7 29/7/7 12/10/7 20/19/7
f 18/22/2 10/4/2 11/6/2 19/23/2
f 41/24/8 39/1/8 10/4/8 18/22/8
f 43/25/9 40/26/9 13/27/9 3/28/9
f 3/28/2 13/27/2 14/29/2 7/30/2
f 27/14/10 32/31/10 15/32/10 5/15/10
f 5/15/4 15/32/4 16/33/4 1/34/4
f 42/35/11 41/24/11 18/22/11 21/36/11
f 21/36/2 18/22/2 19/23/2 22/37/2
f 35/38/12 34/21/12 20/19/12 23/39/12
f 23/39/4 20/19/4 17/20/4 24/40/4
f 15/32/4 23/39/4 24/40/4 16/33/4
f 32/31/13 35/38/13 23/39/13 15/32/13
f 13/27/2 21/36/2 22/37/2 14/29/2
f 40/26/14 42/35/14 21/36/14 13/27/14
f 16/41/15 24/42/15 36/43/15 31/44/15
f 46/45/16 48/46/16 35/38/16 32/31/16
f 48/46/17 47/47/17 34/21/17 35/38/17
f 24/42/18 17/48/18 33/49/18 36/43/18
f 38/50/19 46/45/19 32/31/19 27/14/19
f 1/51/20 16/41/20 31/44/20 25/52/20
f 17/48/21 9/53/21 30/54/21 33/49/21
f 47/47/22 45/55/22 29/7/22 34/21/22
f 44/56/6 37/57/6 26/17/6 28/8/6
f 43/58/5 38/50/5 27/14/5 25/13/5
f 45/55/23 44/56/23 28/8/23 29/7/23
f 9/53/24 2/59/24 26/60/24 30/54/24
f 11/6/25 8/5/25 44/56/25 45/55/25
f 3/61/5 7/30/5 38/50/5 43/58/5
f 8/5/6 4/62/6 37/57/6 44/56/6
f 19/23/26 11/6/26 45/55/26 47/47/26
f 7/30/27 14/29/27 46/45/27 38/50/27
f 22/37/28 19/23/28 47/47/28 48/46/28
f 14/29/29 22/37/29 48/46/29 46/45/29
f 31/44/30 36/43/30 42/35/30 40/26/30
f 36/43/31 33/49/31 41/24/31 42/35/31
f 25/52/32 31/44/32 40/26/32 43/25/32
f 33/49/33 30/54/33 39/1/33 41/24/33
f 30/54/34 26/60/34 37/2/34 39/1/34
