# Blender v2.81 (sub 16) OBJ File: 'halloween-groundstructure-visibility.blend'
# www.blender.org
mtllib wall.mtl
o gate_Cube.004_Cube.005
v 0.749995 -42.750000 -38.195683
v 0.750004 -42.750000 35.746223
v 0.750004 -45.250000 35.746223
v 0.749995 -45.250000 -38.195683
v -0.749996 -45.250000 35.746223
v -0.750005 -45.250000 -38.195683
v -0.749996 -42.750000 35.746223
v -0.750005 -42.750000 -38.195683
v 0.749995 1.250000 -38.120556
v 0.750004 1.250000 35.821346
v 0.750004 -1.250000 35.821346
v 0.749995 -1.250000 -38.120556
v -0.749996 -1.250000 35.821346
v -0.750005 -1.250000 -38.120556
v -0.749996 1.250000 35.821346
v -0.750005 1.250000 -38.120556
v 0.749995 -9.750000 -38.004784
v 0.750004 -9.750000 35.937122
v 0.750004 -12.249998 35.937122
v 0.749995 -12.249998 -38.004784
v -0.749996 -12.249998 35.937122
v -0.750005 -12.249998 -38.004784
v -0.749996 -9.750000 35.937122
v -0.750005 -9.750000 -38.004784
v 0.749995 -20.750000 -38.002876
v 0.750004 -20.750000 35.939030
v 0.750004 -23.250000 35.939030
v 0.749995 -23.250000 -38.002876
v -0.749996 -23.250000 35.939030
v -0.750005 -23.250000 -38.002876
v -0.749996 -20.750000 35.939030
v -0.750005 -20.750000 -38.002876
v 0.749995 -31.749998 -38.799458
v 0.750004 -31.749998 35.142441
v 0.750004 -34.250000 35.142441
v 0.749995 -34.250000 -38.799458
v -0.749996 -34.250000 35.142441
v -0.750005 -34.250000 -38.799458
v -0.749996 -31.749998 35.142441
v -0.750005 -31.749998 -38.799458
v 1.000004 2.000000 34.833805
v 1.000004 0.556156 36.942249
v 1.000004 -0.556152 36.942249
v 1.000004 -1.999996 34.833805
v -0.999996 -0.556152 36.942249
v -0.999996 -1.999996 34.833805
v -0.999996 0.556156 36.942249
v -0.999996 2.000000 34.833805
v 1.000004 -0.940872 31.942249
v -0.999996 -0.940872 31.942249
v -0.999996 0.940872 31.942249
v 1.000004 0.940872 31.942249
v -0.999996 2.000000 33.894691
v 1.000004 2.000000 33.894691
v -0.999996 -1.999996 33.894691
v 1.000004 -1.999996 33.894691
v 1.000004 -8.999996 34.833805
v 1.000004 -10.443844 36.942249
v 1.000004 -11.556152 36.942249
v 1.000004 -12.999998 34.833805
v -0.999996 -11.556152 36.942249
v -0.999996 -12.999998 34.833805
v -0.999996 -10.443844 36.942249
v -0.999996 -8.999996 34.833805
v 1.000004 -11.940872 31.942249
v -0.999996 -11.940872 31.942249
v -0.999996 -10.059124 31.942249
v 1.000004 -10.059124 31.942249
v -0.999996 -8.999996 33.894691
v 1.000004 -8.999996 33.894691
v -0.999996 -12.999998 33.894691
v 1.000004 -12.999998 33.894691
v 1.000004 -20.000000 34.833805
v 1.000004 -21.443846 36.942249
v 1.000004 -22.556154 36.942249
v 1.000004 -24.000000 34.833805
v -0.999996 -22.556154 36.942249
v -0.999996 -24.000000 34.833805
v -0.999996 -21.443846 36.942249
v -0.999996 -20.000000 34.833805
v 1.000004 -22.940872 31.942249
v -0.999996 -22.940872 31.942249
v -0.999996 -21.059126 31.942249
v 1.000004 -21.059126 31.942249
v -0.999996 -20.000000 33.894691
v 1.000004 -20.000000 33.894691
v -0.999996 -24.000000 33.894691
v 1.000004 -24.000000 33.894691
v 1.000004 -30.999998 34.833805
v 1.000004 -32.443844 36.942249
v 1.000004 -33.556152 36.942249
v 1.000004 -35.000000 34.833805
v -0.999996 -33.556152 36.942249
v -0.999996 -35.000000 34.833805
v -0.999996 -32.443844 36.942249
v -0.999996 -30.999998 34.833805
v 1.000004 -33.940872 31.942249
v -0.999996 -33.940872 31.942249
v -0.999996 -32.059128 31.942249
v 1.000004 -32.059128 31.942249
v -0.999996 -30.999998 33.894691
v 1.000004 -30.999998 33.894691
v -0.999996 -35.000000 33.894691
v 1.000004 -35.000000 33.894691
v 1.000004 -42.000000 34.833805
v 1.000004 -43.443844 36.942249
v 1.000004 -44.556156 36.942249
v 1.000004 -46.000000 34.833805
v -0.999996 -44.556156 36.942249
v -0.999996 -46.000000 34.833805
v -0.999996 -43.443844 36.942249
v -0.999996 -42.000000 34.833805
v 1.000004 -44.940872 31.942249
v -0.999996 -44.940872 31.942249
v -0.999996 -43.059128 31.942249
v 1.000004 -43.059128 31.942249
v -0.999996 -42.000000 33.894691
v 1.000004 -42.000000 33.894691
v -0.999996 -46.000000 33.894691
v 1.000004 -46.000000 33.894691
v 0.750003 -0.350246 25.704535
v 0.750003 -0.350246 28.704536
v 0.750003 -43.350246 28.704536
v 0.750003 -43.350246 25.704535
v -0.749997 -43.350246 28.704536
v -0.749997 -43.350246 25.704535
v -0.749997 -0.350246 28.704536
v -0.749997 -0.350246 25.704535
v 0.750002 -0.350246 17.704536
v 0.750002 -0.350246 20.704536
v 0.750002 -43.350246 20.704536
v 0.750002 -43.350246 17.704536
v -0.749998 -43.350246 20.704536
v -0.749998 -43.350246 17.704536
v -0.749998 -0.350246 20.704536
v -0.749998 -0.350246 17.704536
v 0.749999 -0.350246 -8.295464
v 0.749999 -0.350246 -5.295463
v 0.749999 -43.350246 -5.295463
v 0.749999 -43.350246 -8.295464
v -0.750001 -43.350246 -5.295463
v -0.750001 -43.350246 -8.295464
v -0.750001 -0.350246 -5.295463
v -0.750001 -0.350246 -8.295464
v 0.749998 -0.350246 -16.295464
v 0.749998 -0.350246 -13.295465
v 0.749998 -43.350246 -13.295465
v 0.749998 -43.350246 -16.295464
v -0.750002 -43.350246 -13.295465
v -0.750002 -43.350246 -16.295464
v -0.750002 -0.350246 -13.295465
v -0.750002 -0.350246 -16.295464
vt 0.375000 0.000000
vt 0.625000 0.000000
vt 0.625000 0.250000
vt 0.375000 0.250000
vt 0.625000 0.500000
vt 0.375000 0.500000
vt 0.625000 0.750000
vt 0.375000 0.750000
vt 0.625000 1.000000
vt 0.375000 1.000000
vt 0.125000 0.500000
vt 0.125000 0.750000
vt 0.875000 0.500000
vt 0.875000 0.750000
vt 0.375000 0.000000
vt 0.625000 0.000000
vt 0.625000 0.250000
vt 0.375000 0.250000
vt 0.625000 0.500000
vt 0.375000 0.500000
vt 0.625000 0.750000
vt 0.375000 0.750000
vt 0.625000 1.000000
vt 0.375000 1.000000
vt 0.125000 0.500000
vt 0.125000 0.750000
vt 0.875000 0.500000
vt 0.875000 0.750000
vt 0.375000 0.000000
vt 0.625000 0.000000
vt 0.625000 0.250000
vt 0.375000 0.250000
vt 0.625000 0.500000
vt 0.375000 0.500000
vt 0.625000 0.750000
vt 0.375000 0.750000
vt 0.625000 1.000000
vt 0.375000 1.000000
vt 0.125000 0.500000
vt 0.125000 0.750000
vt 0.875000 0.500000
vt 0.875000 0.750000
vt 0.375000 0.000000
vt 0.625000 0.000000
vt 0.625000 0.250000
vt 0.375000 0.250000
vt 0.625000 0.500000
vt 0.375000 0.500000
vt 0.625000 0.750000
vt 0.375000 0.750000
vt 0.625000 1.000000
vt 0.375000 1.000000
vt 0.125000 0.500000
vt 0.125000 0.750000
vt 0.875000 0.500000
vt 0.875000 0.750000
vt 0.375000 0.000000
vt 0.625000 0.000000
vt 0.625000 0.250000
vt 0.375000 0.250000
vt 0.625000 0.500000
vt 0.375000 0.500000
vt 0.625000 0.750000
vt 0.375000 0.750000
vt 0.625000 1.000000
vt 0.375000 1.000000
vt 0.125000 0.500000
vt 0.125000 0.750000
vt 0.875000 0.500000
vt 0.875000 0.750000
vt 0.519578 0.000000
vt 0.625000 0.000000
vt 0.625000 0.250000
vt 0.519578 0.250000
vt 0.625000 0.500000
vt 0.519578 0.500000
vt 0.625000 0.750000
vt 0.519578 0.750000
vt 0.625000 1.000000
vt 0.519578 1.000000
vt 0.125000 0.500000
vt 0.375000 0.500000
vt 0.375000 0.750000
vt 0.125000 0.750000
vt 0.875000 0.500000
vt 0.875000 0.750000
vt 0.472622 0.750000
vt 0.472622 1.000000
vt 0.472622 0.500000
vt 0.472622 0.250000
vt 0.472622 0.000000
vt 0.375000 0.000000
vt 0.375000 0.250000
vt 0.375000 1.000000
vt 0.519578 0.000000
vt 0.625000 0.000000
vt 0.625000 0.250000
vt 0.519578 0.250000
vt 0.625000 0.500000
vt 0.519578 0.500000
vt 0.625000 0.750000
vt 0.519578 0.750000
vt 0.625000 1.000000
vt 0.519578 1.000000
vt 0.125000 0.500000
vt 0.375000 0.500000
vt 0.375000 0.750000
vt 0.125000 0.750000
vt 0.875000 0.500000
vt 0.875000 0.750000
vt 0.472622 0.750000
vt 0.472622 1.000000
vt 0.472622 0.500000
vt 0.472622 0.250000
vt 0.472622 0.000000
vt 0.375000 0.000000
vt 0.375000 0.250000
vt 0.375000 1.000000
vt 0.519578 0.000000
vt 0.625000 0.000000
vt 0.625000 0.250000
vt 0.519578 0.250000
vt 0.625000 0.500000
vt 0.519578 0.500000
vt 0.625000 0.750000
vt 0.519578 0.750000
vt 0.625000 1.000000
vt 0.519578 1.000000
vt 0.125000 0.500000
vt 0.375000 0.500000
vt 0.375000 0.750000
vt 0.125000 0.750000
vt 0.875000 0.500000
vt 0.875000 0.750000
vt 0.472622 0.750000
vt 0.472622 1.000000
vt 0.472622 0.500000
vt 0.472622 0.250000
vt 0.472622 0.000000
vt 0.375000 0.000000
vt 0.375000 0.250000
vt 0.375000 1.000000
vt 0.519578 0.000000
vt 0.625000 0.000000
vt 0.625000 0.250000
vt 0.519578 0.250000
vt 0.625000 0.500000
vt 0.519578 0.500000
vt 0.625000 0.750000
vt 0.519578 0.750000
vt 0.625000 1.000000
vt 0.519578 1.000000
vt 0.125000 0.500000
vt 0.375000 0.500000
vt 0.375000 0.750000
vt 0.125000 0.750000
vt 0.875000 0.500000
vt 0.875000 0.750000
vt 0.472622 0.750000
vt 0.472622 1.000000
vt 0.472622 0.500000
vt 0.472622 0.250000
vt 0.472622 0.000000
vt 0.375000 0.000000
vt 0.375000 0.250000
vt 0.375000 1.000000
vt 0.519578 0.000000
vt 0.625000 0.000000
vt 0.625000 0.250000
vt 0.519578 0.250000
vt 0.625000 0.500000
vt 0.519578 0.500000
vt 0.625000 0.750000
vt 0.519578 0.750000
vt 0.625000 1.000000
vt 0.519578 1.000000
vt 0.125000 0.500000
vt 0.375000 0.500000
vt 0.375000 0.750000
vt 0.125000 0.750000
vt 0.875000 0.500000
vt 0.875000 0.750000
vt 0.472622 0.750000
vt 0.472622 1.000000
vt 0.472622 0.500000
vt 0.472622 0.250000
vt 0.472622 0.000000
vt 0.375000 0.000000
vt 0.375000 0.250000
vt 0.375000 1.000000
vt 0.375000 0.000000
vt 0.625000 0.000000
vt 0.625000 0.250000
vt 0.375000 0.250000
vt 0.625000 0.500000
vt 0.375000 0.500000
vt 0.625000 0.750000
vt 0.375000 0.750000
vt 0.625000 1.000000
vt 0.375000 1.000000
vt 0.125000 0.500000
vt 0.125000 0.750000
vt 0.875000 0.500000
vt 0.875000 0.750000
vt 0.375000 0.000000
vt 0.625000 0.000000
vt 0.625000 0.250000
vt 0.375000 0.250000
vt 0.625000 0.500000
vt 0.375000 0.500000
vt 0.625000 0.750000
vt 0.375000 0.750000
vt 0.625000 1.000000
vt 0.375000 1.000000
vt 0.125000 0.500000
vt 0.125000 0.750000
vt 0.875000 0.500000
vt 0.875000 0.750000
vt 0.375000 0.000000
vt 0.625000 0.000000
vt 0.625000 0.250000
vt 0.375000 0.250000
vt 0.625000 0.500000
vt 0.375000 0.500000
vt 0.625000 0.750000
vt 0.375000 0.750000
vt 0.625000 1.000000
vt 0.375000 1.000000
vt 0.125000 0.500000
vt 0.125000 0.750000
vt 0.875000 0.500000
vt 0.875000 0.750000
vt 0.375000 0.000000
vt 0.625000 0.000000
vt 0.625000 0.250000
vt 0.375000 0.250000
vt 0.625000 0.500000
vt 0.375000 0.500000
vt 0.625000 0.750000
vt 0.375000 0.750000
vt 0.625000 1.000000
vt 0.375000 1.000000
vt 0.125000 0.500000
vt 0.125000 0.750000
vt 0.875000 0.500000
vt 0.875000 0.750000
vn 1.0000 0.0000 -0.0000
vn 0.0000 -1.0000 0.0000
vn -1.0000 0.0000 0.0000
vn 0.0000 1.0000 -0.0000
vn 0.0000 0.0000 -1.0000
vn 0.0000 0.0000 1.0000
vn 0.0000 -0.8251 0.5650
vn 0.0000 0.8251 0.5650
vn 0.0000 -0.8790 -0.4768
vn 0.0000 0.8790 -0.4768
usemtl None
s 1
f 1/1/1 2/2/1 3/3/1 4/4/1
f 4/4/2 3/3/2 5/5/2 6/6/2
f 6/6/3 5/5/3 7/7/3 8/8/3
f 8/8/4 7/7/4 2/9/4 1/10/4
f 4/11/5 6/6/5 8/8/5 1/12/5
f 5/5/6 3/13/6 2/14/6 7/7/6
f 9/15/1 10/16/1 11/17/1 12/18/1
f 12/18/2 11/17/2 13/19/2 14/20/2
f 14/20/3 13/19/3 15/21/3 16/22/3
f 16/22/4 15/21/4 10/23/4 9/24/4
f 12/25/5 14/20/5 16/22/5 9/26/5
f 13/19/6 11/27/6 10/28/6 15/21/6
f 17/29/1 18/30/1 19/31/1 20/32/1
f 20/32/2 19/31/2 21/33/2 22/34/2
f 22/34/3 21/33/3 23/35/3 24/36/3
f 24/36/4 23/35/4 18/37/4 17/38/4
f 20/39/5 22/34/5 24/36/5 17/40/5
f 21/33/6 19/41/6 18/42/6 23/35/6
f 25/43/1 26/44/1 27/45/1 28/46/1
f 28/46/2 27/45/2 29/47/2 30/48/2
f 30/48/3 29/47/3 31/49/3 32/50/3
f 32/50/4 31/49/4 26/51/4 25/52/4
f 28/53/5 30/48/5 32/50/5 25/54/5
f 29/47/6 27/55/6 26/56/6 31/49/6
f 33/57/1 34/58/1 35/59/1 36/60/1
f 36/60/2 35/59/2 37/61/2 38/62/2
f 38/62/3 37/61/3 39/63/3 40/64/3
f 40/64/4 39/63/4 34/65/4 33/66/4
f 36/67/5 38/62/5 40/64/5 33/68/5
f 37/61/6 35/69/6 34/70/6 39/63/6
f 41/71/1 42/72/1 43/73/1 44/74/1
f 44/74/7 43/73/7 45/75/7 46/76/7
f 46/76/3 45/75/3 47/77/3 48/78/3
f 48/78/8 47/77/8 42/79/8 41/80/8
f 49/81/5 50/82/5 51/83/5 52/84/5
f 45/75/6 43/85/6 42/86/6 47/77/6
f 53/87/4 48/78/4 41/80/4 54/88/4
f 55/89/3 46/76/3 48/78/3 53/87/3
f 56/90/2 44/74/2 46/76/2 55/89/2
f 54/91/1 41/71/1 44/74/1 56/90/1
f 52/92/1 54/91/1 56/90/1 49/93/1
f 49/93/9 56/90/9 55/89/9 50/82/9
f 50/82/3 55/89/3 53/87/3 51/83/3
f 51/83/10 53/87/10 54/88/10 52/94/10
f 57/95/1 58/96/1 59/97/1 60/98/1
f 60/98/7 59/97/7 61/99/7 62/100/7
f 62/100/3 61/99/3 63/101/3 64/102/3
f 64/102/8 63/101/8 58/103/8 57/104/8
f 65/105/5 66/106/5 67/107/5 68/108/5
f 61/99/6 59/109/6 58/110/6 63/101/6
f 69/111/4 64/102/4 57/104/4 70/112/4
f 71/113/3 62/100/3 64/102/3 69/111/3
f 72/114/2 60/98/2 62/100/2 71/113/2
f 70/115/1 57/95/1 60/98/1 72/114/1
f 68/116/1 70/115/1 72/114/1 65/117/1
f 65/117/9 72/114/9 71/113/9 66/106/9
f 66/106/3 71/113/3 69/111/3 67/107/3
f 67/107/10 69/111/10 70/112/10 68/118/10
f 73/119/1 74/120/1 75/121/1 76/122/1
f 76/122/7 75/121/7 77/123/7 78/124/7
f 78/124/3 77/123/3 79/125/3 80/126/3
f 80/126/8 79/125/8 74/127/8 73/128/8
f 81/129/5 82/130/5 83/131/5 84/132/5
f 77/123/6 75/133/6 74/134/6 79/125/6
f 85/135/4 80/126/4 73/128/4 86/136/4
f 87/137/3 78/124/3 80/126/3 85/135/3
f 88/138/2 76/122/2 78/124/2 87/137/2
f 86/139/1 73/119/1 76/122/1 88/138/1
f 84/140/1 86/139/1 88/138/1 81/141/1
f 81/141/9 88/138/9 87/137/9 82/130/9
f 82/130/3 87/137/3 85/135/3 83/131/3
f 83/131/10 85/135/10 86/136/10 84/142/10
f 89/143/1 90/144/1 91/145/1 92/146/1
f 92/146/7 91/145/7 93/147/7 94/148/7
f 94/148/3 93/147/3 95/149/3 96/150/3
f 96/150/8 95/149/8 90/151/8 89/152/8
f 97/153/5 98/154/5 99/155/5 100/156/5
f 93/147/6 91/157/6 90/158/6 95/149/6
f 101/159/4 96/150/4 89/152/4 102/160/4
f 103/161/3 94/148/3 96/150/3 101/159/3
f 104/162/2 92/146/2 94/148/2 103/161/2
f 102/163/1 89/143/1 92/146/1 104/162/1
f 100/164/1 102/163/1 104/162/1 97/165/1
f 97/165/9 104/162/9 103/161/9 98/154/9
f 98/154/3 103/161/3 101/159/3 99/155/3
f 99/155/10 101/159/10 102/160/10 100/166/10
f 105/167/1 106/168/1 107/169/1 108/170/1
f 108/170/7 107/169/7 109/171/7 110/172/7
f 110/172/3 109/171/3 111/173/3 112/174/3
f 112/174/8 111/173/8 106/175/8 105/176/8
f 113/177/5 114/178/5 115/179/5 116/180/5
f 109/171/6 107/181/6 106/182/6 111/173/6
f 117/183/4 112/174/4 105/176/4 118/184/4
f 119/185/3 110/172/3 112/174/3 117/183/3
f 120/186/2 108/170/2 110/172/2 119/185/2
f 118/187/1 105/167/1 108/170/1 120/186/1
f 116/188/1 118/187/1 120/186/1 113/189/1
f 113/189/9 120/186/9 119/185/9 114/178/9
f 114/178/3 119/185/3 117/183/3 115/179/3
f 115/179/10 117/183/10 118/184/10 116/190/10
f 121/191/1 122/192/1 123/193/1 124/194/1
f 124/194/2 123/193/2 125/195/2 126/196/2
f 126/196/3 125/195/3 127/197/3 128/198/3
f 128/198/4 127/197/4 122/199/4 121/200/4
f 124/201/5 126/196/5 128/198/5 121/202/5
f 125/195/6 123/203/6 122/204/6 127/197/6
f 129/205/1 130/206/1 131/207/1 132/208/1
f 132/208/2 131/207/2 133/209/2 134/210/2
f 134/210/3 133/209/3 135/211/3 136/212/3
f 136/212/4 135/211/4 130/213/4 129/214/4
f 132/215/5 134/210/5 136/212/5 129/216/5
f 133/209/6 131/217/6 130/218/6 135/211/6
f 137/219/1 138/220/1 139/221/1 140/222/1
f 140/222/2 139/221/2 141/223/2 142/224/2
f 142/224/3 141/223/3 143/225/3 144/226/3
f 144/226/4 143/225/4 138/227/4 137/228/4
f 140/229/5 142/224/5 144/226/5 137/230/5
f 141/223/6 139/231/6 138/232/6 143/225/6
f 145/233/1 146/234/1 147/235/1 148/236/1
f 148/236/2 147/235/2 149/237/2 150/238/2
f 150/238/3 149/237/3 151/239/3 152/240/3
f 152/240/4 151/239/4 146/241/4 145/242/4
f 148/243/5 150/238/5 152/240/5 145/244/5
f 149/237/6 147/245/6 146/246/6 151/239/6
