# Blender v2.81 (sub 16) OBJ File: 'halloween-groundstructure-visibility.blend'
# www.blender.org
mtllib wall-corner.mtl
o wall_Plane.003
v 20.636978 -20.636982 -44.977352
v -20.636982 20.636978 -44.977352
v 20.636982 -20.636978 29.822186
v -20.636978 20.636982 29.822186
v -23.207253 -74.846710 -44.977352
v -23.207249 -74.846703 29.822186
v 18.596867 -20.744511 -44.977352
v -22.081570 19.192390 -44.977352
v 18.596870 -20.744507 29.822186
v -22.081566 19.192394 29.822186
v -24.795650 -73.561974 -44.977352
v -24.795647 -73.561966 29.822186
vt 0.000000 0.000000
vt 1.000000 0.000000
vt 1.000000 1.000000
vt 0.000000 1.000000
vt 0.000000 1.000000
vt 0.000000 0.000000
vt 0.000000 0.000000
vt 0.000000 1.000000
vt 1.000000 1.000000
vt 1.000000 0.000000
vt 0.000000 0.000000
vt 0.000000 1.000000
vn 0.7071 0.7071 -0.0000
vn 0.7775 -0.6289 -0.0000
vn -0.7006 -0.7136 0.0000
vn -0.7727 0.6348 -0.0000
vn 0.0000 0.0000 -1.0000
vn -0.7071 0.7071 0.0000
vn 0.0000 0.0000 1.0000
vn -0.6289 -0.7775 0.0000
usemtl None
s off
f 1/1/1 2/2/1 4/3/1 3/4/1
f 1/1/2 3/4/2 6/5/2 5/6/2
f 7/7/3 9/8/3 10/9/3 8/10/3
f 7/7/4 11/11/4 12/12/4 9/8/4
f 2/2/5 1/1/5 7/7/5 8/10/5
f 4/3/6 2/2/6 8/10/6 10/9/6
f 3/4/7 4/3/7 10/9/7 9/8/7
f 5/6/8 6/5/8 12/12/8 11/11/8
f 6/5/7 3/4/7 9/8/7 12/12/7
f 1/1/5 5/6/5 11/11/5 7/7/5
