# Blender v2.81 (sub 16) OBJ File: ''
# www.blender.org
mtllib bedroom-wall.mtl
o Star_01
v 0.657945 0.218595 0.904236
v 0.739152 0.285135 0.792465
v 0.463435 0.218595 0.882051
v 0.739152 0.218595 1.082371
v 0.870547 0.218595 0.749772
v 1.014869 0.218595 0.882051
v 0.739152 0.218595 0.654307
v 0.909554 0.218595 0.557926
v 0.607757 0.218595 0.749772
v 0.568749 0.218595 0.557926
v 0.739152 0.152054 0.792465
v 0.820359 0.218595 0.904236
v 0.011999 0.166452 0.696465
v -0.018116 0.166452 0.696465
v -0.018116 0.229055 0.696465
v 0.011999 0.229055 0.696465
v 0.011999 0.166452 0.666469
v -0.018116 0.166452 0.666469
v 0.011999 0.166451 0.111593
v -0.018116 0.166451 0.111593
v -0.018116 0.166451 0.081479
v -0.304236 0.166451 0.081479
v -0.304236 0.166451 0.111593
v 0.011999 0.166451 0.081479
v 0.298119 0.166451 0.111593
v 0.298119 0.166451 0.081479
v 0.011999 0.166451 -0.473396
v -0.018116 0.166451 -0.473396
v 0.011999 0.166451 -0.503393
v -0.018116 0.166451 -0.503393
v 0.011999 0.229054 -0.503393
v -0.018116 0.229054 -0.503393
v 0.011999 0.229054 -0.473397
v -0.018116 0.229054 -0.473397
v 0.011999 0.229054 0.081479
v -0.018116 0.229054 0.081479
v 0.011999 0.229055 0.111593
v 0.298119 0.229055 0.081479
v 0.298119 0.229055 0.111593
v -0.018116 0.229055 0.111593
v 0.011999 0.229055 0.666469
v -0.018116 0.229055 0.666469
v -0.304236 0.229054 0.111593
v -0.304236 0.229054 0.081479
v -0.342427 0.166451 0.081479
v -0.342427 0.166451 0.111593
v -0.342427 0.229054 0.081479
v -0.342427 0.229054 0.111593
v 0.336310 0.229055 0.081479
v 0.336310 0.229055 0.111593
v 0.336310 0.166451 0.081479
v 0.336310 0.166451 0.111593
v -0.342427 0.229055 0.696465
v -0.342427 0.166452 0.696465
v -0.342427 0.166451 -0.503393
v -0.342427 0.229054 -0.503393
v 0.336310 0.166452 0.696465
v 0.336310 0.229055 0.696465
v -0.304236 0.229054 -0.473397
v 0.298119 0.229055 0.666469
v -0.304236 0.229055 0.666469
v -0.304236 0.166452 0.666469
v 0.298119 0.166452 0.666469
v -0.304236 0.166451 -0.473396
v 0.336310 0.166451 -0.503393
v 0.298119 0.166451 -0.473396
v 0.336310 0.229054 -0.503393
v 0.298119 0.229054 -0.473397
v -0.304236 0.209540 0.666469
v -0.018116 0.209540 0.666469
v -0.018116 0.185966 0.666469
v -0.304236 0.185966 0.666469
v -0.304236 0.209540 0.111593
v -0.304236 0.185966 0.111593
v -0.018116 0.185966 0.111593
v -0.018116 0.209540 0.111593
v 0.298119 0.185966 0.666469
v 0.011999 0.185966 0.666469
v 0.011999 0.209540 0.666469
v 0.298119 0.209540 0.666469
v 0.298119 0.185966 0.111593
v 0.298119 0.209540 0.111593
v 0.011999 0.209540 0.111593
v 0.011999 0.185966 0.111593
v 0.298119 0.185966 0.081416
v 0.011999 0.185966 0.081416
v 0.011999 0.209540 0.081416
v 0.298119 0.209540 0.081416
v 0.298119 0.185965 -0.473459
v 0.298119 0.209540 -0.473459
v 0.011999 0.209540 -0.473459
v 0.011999 0.185965 -0.473459
v -0.304236 0.209540 0.081416
v -0.018116 0.209540 0.081416
v -0.018116 0.185966 0.081416
v -0.304236 0.185966 0.081416
v -0.304236 0.209540 -0.473459
v -0.304236 0.185965 -0.473459
v -0.018116 0.185965 -0.473459
v -0.018116 0.209540 -0.473459
v 1.326638 -0.200161 -1.326638
v 1.326638 -0.200161 1.326638
v -1.326638 -0.200161 -1.326638
v -1.326638 -0.200161 1.326638
v 1.326638 0.200161 -1.326638
v 1.326638 0.200161 1.326638
v -1.326638 0.200161 -1.326638
v -1.326638 0.200161 1.326638
v -0.837926 0.218595 0.212963
v -0.756719 0.285135 0.101191
v -1.032436 0.218595 0.190777
v -0.756719 0.218595 0.391097
v -0.625324 0.218595 0.058499
v -0.481002 0.218595 0.190777
v -0.756719 0.218595 -0.036966
v -0.586317 0.218595 -0.133347
v -0.888114 0.218595 0.058498
v -0.927122 0.218595 -0.133348
v -0.756719 0.152054 0.101191
v -0.675512 0.218595 0.212963
vt 0.373591 0.935591
vt 0.500000 0.837500
vt 0.400000 0.500470
vt 0.450000 0.500470
vt 0.425000 0.500470
vt 0.548284 0.695147
vt 0.500000 0.500470
vt 0.656250 0.843750
vt 0.550000 0.500470
vt 0.548284 0.992353
vt 0.600000 0.500470
vt 0.500000 0.150000
vt 0.475000 0.500470
vt 0.373591 0.248091
vt 0.575000 0.500470
vt 0.656250 0.156250
vt 0.373591 0.751909
vt 0.375000 0.500470
vt 0.525000 0.500470
vt 0.373591 0.064409
vt 0.548284 0.304853
vt 0.625000 0.500470
vt 0.548284 0.007647
vt 0.373591 0.935591
vt 0.500000 0.837500
vt 0.400000 0.500470
vt 0.450000 0.500470
vt 0.425000 0.500470
vt 0.548284 0.695147
vt 0.500000 0.500470
vt 0.656250 0.843750
vt 0.550000 0.500470
vt 0.548284 0.992353
vt 0.600000 0.500470
vt 0.500000 0.150000
vt 0.475000 0.500470
vt 0.373591 0.248091
vt 0.575000 0.500470
vt 0.656250 0.156250
vt 0.373591 0.751909
vt 0.375000 0.500470
vt 0.525000 0.500470
vt 0.373591 0.064409
vt 0.548284 0.304853
vt 0.625000 0.500470
vt 0.548284 0.007647
vt 0.493751 0.500000
vt 0.493751 0.621698
vt 0.493751 0.128302
vt 0.493751 0.250000
vt 0.375000 0.621698
vt 0.375000 0.128302
vt 0.506249 0.250000
vt 0.506249 0.500000
vt 0.625000 0.500000
vt 0.625000 0.250000
vt 0.506249 0.128302
vt 0.506249 0.621698
vt 0.625000 0.128302
vt 0.625000 0.621698
vt 0.506249 0.750000
vt 0.506249 0.628302
vt 0.506249 0.121698
vt 0.506250 0.000000
vt 0.625000 0.628303
vt 0.625000 0.121698
vt 0.625000 0.750000
vt 0.625000 0.000000
vt 0.375000 0.628302
vt 0.493751 0.628302
vt 0.493751 0.121698
vt 0.375000 0.121697
vt 0.493751 0.750000
vt 0.493751 0.000000
vt 0.375000 0.750000
vt 0.375000 0.000000
vt 0.375000 0.250000
vt 0.375000 0.500000
vt 0.505546 0.500000
vt 0.494454 0.500000
vt 0.494454 0.250000
vt 0.505546 0.250000
vt 0.505546 0.750000
vt 0.494454 0.750000
vt 0.505546 1.000000
vt 0.494454 1.000000
vt 0.494454 0.000000
vt 0.505546 0.000000
vt 0.375000 0.628137
vt 0.375000 0.621863
vt 0.125000 0.128137
vt 0.125000 0.121863
vt 0.375000 0.121863
vt 0.375000 0.128137
vt 0.625000 0.121863
vt 0.625000 0.128137
vt 0.875000 0.121863
vt 0.875000 0.128137
vt 0.625000 0.621863
vt 0.625000 0.628137
vt 0.375000 0.250000
vt 0.375000 0.500000
vt 0.375000 0.750000
vt 0.375000 1.000000
vt 0.875000 0.250000
vt 0.625000 0.250000
vt 0.125000 0.250000
vt 0.375000 0.000000
vt 0.625000 0.500000
vt 0.625000 0.750000
vt 0.625000 1.000000
vt 0.625000 0.000000
vt 0.125000 0.000000
vt 0.875000 0.000000
vt 0.187500 0.064151
vt 0.746875 0.064151
vt 0.746875 0.352046
vt 0.187500 0.352046
vt 0.187500 0.064151
vt 0.187500 0.352046
vt 0.746875 0.352046
vt 0.746875 0.064151
vt 0.187500 0.064151
vt 0.746875 0.064151
vt 0.746875 0.352046
vt 0.187500 0.352046
vt 0.187500 0.064151
vt 0.187500 0.352046
vt 0.746875 0.352046
vt 0.746875 0.064151
vt 0.187500 0.064151
vt 0.746875 0.064151
vt 0.746875 0.352046
vt 0.187500 0.352046
vt 0.187500 0.064151
vt 0.187500 0.352046
vt 0.746875 0.352046
vt 0.746875 0.064151
vt 0.187500 0.064151
vt 0.746875 0.064151
vt 0.746875 0.352046
vt 0.187500 0.352046
vt 0.187500 0.064151
vt 0.187500 0.352046
vt 0.746875 0.352046
vt 0.746875 0.064151
vt 0.625000 0.500000
vt 0.875000 0.500000
vt 0.875000 0.750000
vt 0.625000 0.750000
vt 0.375000 0.750000
vt 0.625000 1.000000
vt 0.375000 1.000000
vt 0.375000 0.000000
vt 0.625000 0.000000
vt 0.625000 0.250000
vt 0.375000 0.250000
vt 0.125000 0.500000
vt 0.375000 0.500000
vt 0.125000 0.750000
vn -0.2551 0.9010 0.3511
vn -0.0549 0.8750 0.4810
vn -0.4405 0.8750 0.2008
vn 0.4127 0.9010 -0.1341
vn 0.3271 0.8750 -0.3569
vn 0.0000 0.9010 -0.4339
vn -0.2384 0.8750 -0.4214
vn -0.4127 0.9010 -0.1341
vn -0.4744 0.8750 0.0965
vn -0.2551 -0.9010 0.3511
vn -0.0549 -0.8750 0.4810
vn 0.2551 -0.9010 0.3511
vn 0.4405 -0.8750 0.2008
vn 0.0549 -0.8750 0.4810
vn 0.0000 -0.9010 -0.4339
vn -0.2384 -0.8750 -0.4214
vn 0.2384 -0.8750 -0.4214
vn 0.2551 0.9010 0.3511
vn 0.4405 0.8750 0.2008
vn 0.0549 0.8750 0.4810
vn -0.3271 0.8750 -0.3569
vn 0.2384 0.8750 -0.4214
vn 0.4744 0.8750 0.0965
vn -0.4405 -0.8750 0.2008
vn 0.4127 -0.9010 -0.1341
vn 0.3271 -0.8750 -0.3569
vn 0.4744 -0.8750 0.0965
vn -0.4127 -0.9010 -0.1341
vn -0.4744 -0.8750 0.0965
vn -0.3271 -0.8750 -0.3569
vn -0.2551 -0.9010 0.3510
vn 1.0000 -0.0000 0.0000
vn 0.0000 -0.0000 -1.0000
vn 0.0000 0.0000 1.0000
vn -1.0000 -0.0000 0.0000
vn -0.0000 1.0000 -0.0000
vn 0.0000 -1.0000 0.0000
usemtl blinn2SG
s 1
f 1/1/1 2/2/1 3/3/2
f 4/4/3 2/2/1 1/5/1
f 5/6/4 2/2/4 6/7/5
f 7/8/6 2/2/6 8/9/7
f 9/10/8 2/2/8 10/11/9
f 1/5/10 3/3/11 11/12/10
f 12/13/12 4/4/13 11/12/12
f 11/12/12 6/7/14 12/14/12
f 7/15/15 8/9/16 11/12/15
f 11/12/15 10/11/17 7/16/15
f 12/17/18 2/2/18 4/4/19
f 2/2/18 12/13/18 6/7/20
f 2/2/8 9/18/8 3/3/21
f 2/2/6 7/15/6 10/11/22
f 2/2/4 5/19/4 8/9/23
f 4/4/24 1/20/10 11/12/10
f 5/19/25 6/7/26 11/12/25
f 8/9/27 5/21/25 11/12/25
f 9/22/28 10/11/29 11/12/28
f 3/3/30 9/23/28 11/12/28
f 109/24/1 110/25/1 111/26/2
f 112/27/3 110/25/1 109/28/1
f 113/29/4 110/25/4 114/30/5
f 115/31/6 110/25/6 116/32/7
f 117/33/8 110/25/8 118/34/9
f 109/28/10 111/26/11 119/35/31
f 120/36/12 112/27/13 119/35/12
f 119/35/12 114/30/14 120/37/12
f 115/38/15 116/32/16 119/35/15
f 119/35/15 118/34/17 115/39/15
f 120/40/18 110/25/18 112/27/19
f 110/25/18 120/36/18 114/30/20
f 110/25/8 117/41/8 111/26/21
f 110/25/6 115/38/6 118/34/22
f 110/25/4 113/42/4 116/32/23
f 112/27/24 109/43/10 119/35/31
f 113/42/25 114/30/26 119/35/25
f 116/32/27 113/44/25 119/35/25
f 117/45/28 118/34/29 119/35/28
f 111/26/30 117/46/28 119/35/28
usemtl blinn11SG
s off
f 18/47/32 20/48/32 40/49/32 42/50/32
f 20/48/33 23/51/33 43/52/33 40/49/33
f 41/53/34 17/54/34 63/55/34 60/56/34
f 41/53/35 37/57/35 19/58/35 17/54/35
f 37/57/33 39/59/33 25/60/33 19/58/33
f 39/59/32 60/56/32 63/55/32 25/60/32
f 27/61/35 24/62/35 35/63/35 33/64/35
f 24/62/34 26/65/34 38/66/34 35/63/34
f 26/65/32 66/67/32 68/68/32 38/66/32
f 66/67/33 27/61/33 33/64/33 68/68/33
f 22/69/34 21/70/34 36/71/34 44/72/34
f 21/70/32 28/73/32 34/74/32 36/71/32
f 28/73/33 64/75/33 59/76/33 34/74/33
f 64/75/35 22/69/35 44/72/35 59/76/35
f 18/47/34 42/50/34 61/77/34 62/78/34
f 62/78/35 61/77/35 43/52/35 23/51/35
s 1
f 13/79/33 14/80/33 15/81/33 16/82/33
f 14/80/36 13/79/36 17/54/36 18/47/36
f 18/47/36 17/54/36 19/58/36 20/48/36
f 20/48/36 21/70/36 22/69/36 23/51/36
f 24/62/36 19/58/36 25/60/36 26/65/36
f 21/70/36 24/62/36 27/61/36 28/73/36
f 28/73/36 27/61/36 29/83/36 30/84/36
f 30/84/34 29/83/34 31/85/34 32/86/34
f 32/87/37 31/88/37 33/64/37 34/74/37
f 34/74/37 33/64/37 35/63/37 36/71/37
f 37/57/37 35/63/37 38/66/37 39/59/37
f 40/49/37 37/57/37 41/53/37 42/50/37
f 36/71/37 40/49/37 43/52/37 44/72/37
f 42/50/37 41/53/37 16/82/37 15/81/37
f 23/51/36 22/69/36 45/89/36 46/90/36
f 46/91/32 45/92/32 47/93/32 48/94/32
f 48/94/37 47/93/37 44/72/37 43/52/37
f 39/59/37 38/66/37 49/95/37 50/96/37
f 50/96/35 49/95/35 51/97/35 52/98/35
f 52/99/36 51/100/36 26/65/36 25/60/36
f 53/101/33 15/81/33 14/80/33 54/102/33
f 55/103/34 30/84/34 32/86/34 56/104/34
f 50/96/35 52/98/35 57/105/35 58/106/35
f 46/91/32 48/94/32 53/101/32 54/107/32
f 56/108/37 32/87/37 34/74/37 59/76/37
f 50/96/37 58/106/37 60/56/37 39/59/37
f 15/81/37 53/101/37 61/77/37 42/50/37
f 53/101/37 48/94/37 43/52/37 61/77/37
f 54/102/36 14/80/36 18/47/36 62/78/36
f 57/109/36 52/99/36 25/60/36 63/55/36
f 30/84/36 55/103/36 64/75/36 28/73/36
f 46/90/36 54/102/36 62/78/36 23/51/36
f 13/79/36 57/109/36 63/55/36 17/54/36
f 65/110/36 29/83/36 27/61/36 66/67/36
f 31/85/34 29/83/34 65/110/34 67/111/34
f 33/64/37 31/88/37 67/112/37 68/68/37
f 58/106/37 16/82/37 41/53/37 60/56/37
f 13/79/33 16/82/33 58/106/33 57/109/33
f 55/103/36 45/89/36 22/69/36 64/75/36
f 55/113/32 56/108/32 47/93/32 45/92/32
f 44/72/37 47/93/37 56/108/37 59/76/37
f 67/112/37 49/95/37 38/66/37 68/68/37
f 67/112/35 65/114/35 51/97/35 49/95/35
f 26/65/36 51/100/36 65/110/36 66/67/36
f 20/48/36 19/58/36 24/62/36 21/70/36
f 37/57/37 40/49/37 36/71/37 35/63/37
usemtl Ambulance_01:blinn4SG
s off
f 69/115/33 70/116/33 71/117/33 72/118/33
f 73/119/34 74/120/34 75/121/34 76/122/34
f 73/119/37 76/122/37 70/116/37 69/115/37
f 76/122/35 75/121/35 71/117/35 70/116/35
f 75/121/36 74/120/36 72/118/36 71/117/36
f 74/120/32 73/119/32 69/115/32 72/118/32
f 77/123/33 78/124/33 79/125/33 80/126/33
f 81/127/34 82/128/34 83/129/34 84/130/34
f 81/127/36 84/130/36 78/124/36 77/123/36
f 84/130/32 83/129/32 79/125/32 78/124/32
f 83/129/37 82/128/37 80/126/37 79/125/37
f 82/128/35 81/127/35 77/123/35 80/126/35
f 85/131/33 86/132/33 87/133/33 88/134/33
f 89/135/34 90/136/34 91/137/34 92/138/34
f 89/135/36 92/138/36 86/132/36 85/131/36
f 92/138/32 91/137/32 87/133/32 86/132/32
f 91/137/37 90/136/37 88/134/37 87/133/37
f 90/136/35 89/135/35 85/131/35 88/134/35
f 93/139/33 94/140/33 95/141/33 96/142/33
f 97/143/34 98/144/34 99/145/34 100/146/34
f 97/143/37 100/146/37 94/140/37 93/139/37
f 100/146/35 99/145/35 95/141/35 94/140/35
f 99/145/36 98/144/36 96/142/36 95/141/36
f 98/144/32 97/143/32 93/139/32 96/142/32
usemtl Material
f 101/147/34 105/148/34 107/149/34 103/150/34
f 104/151/32 103/150/32 107/152/32 108/153/32
f 108/154/37 107/155/37 105/156/37 106/157/37
f 106/158/33 102/159/33 104/151/33 108/160/33
f 102/159/36 101/147/36 103/150/36 104/151/36
f 106/157/35 105/156/35 101/147/35 102/159/35
