# Blender v2.81 (sub 16) OBJ File: 'airport.blend'
# www.blender.org
mtllib 1.mtl
o clouds_01_Plane.001
v 0.430992 75.190483 4.958068
v 0.370786 75.190483 4.082092
v 0.147234 75.789368 4.078932
v 0.290904 75.608215 4.636355
v -0.505277 74.134377 2.781784
v -0.505276 73.709824 2.781784
v -0.836195 73.709824 2.876801
v -0.836196 74.134377 2.876801
v -0.110305 75.847229 4.157380
v -0.370231 75.789368 4.227511
v -0.196292 75.608215 4.776244
v 0.064320 75.656830 4.765556
v -0.326766 76.998199 3.403300
v -0.710678 76.925797 3.474704
v -0.583302 76.838890 3.757573
v -0.231785 76.906219 3.734298
v -0.251596 75.550446 3.665295
v -0.582515 75.550446 3.760312
v 0.094414 76.587250 3.839897
v -0.158330 76.600365 3.990123
v -0.125815 76.154068 4.103364
v 0.114267 76.184998 3.981971
v -0.452271 76.587250 3.996866
v -0.393727 76.184998 4.127831
v -0.902279 75.616356 3.143739
v -0.917207 76.173286 3.200660
v -0.836197 76.247536 2.876801
v -0.836197 75.638321 2.876801
v -0.722525 76.886864 3.272695
v -0.813962 76.696716 2.954240
v -0.886928 76.502899 3.249798
v 0.069304 73.616661 4.782909
v 0.168128 74.107719 5.127090
v -0.140993 74.134377 5.151705
v -0.191308 73.667175 4.793597
v 0.079324 73.797699 3.570278
v 0.252477 74.134377 3.458263
v 0.400102 74.134377 4.086718
v 0.147236 73.558777 4.078932
v 0.107283 74.134377 3.071841
v 0.115238 73.753761 3.099545
v -0.483141 76.766525 2.858884
v -0.391606 76.960335 3.177678
v -0.174359 75.638321 2.686768
v -0.505278 75.638321 2.781785
v -0.505278 76.305687 2.781785
v -0.174359 76.247505 2.686768
v -0.584222 74.134377 4.371543
v -0.370230 73.558777 4.227511
v -0.582514 73.797699 3.760311
v -0.803379 74.134377 3.761430
v -0.870646 74.134377 3.352633
v -0.862691 73.753761 3.380336
v -0.412847 75.893608 4.056818
v -0.854380 76.124527 3.480054
v -0.862692 75.594383 3.380337
v -0.149636 75.871132 4.020399
v -0.906256 74.134377 3.129887
v -0.902278 73.731789 3.143739
v 0.115237 75.594383 3.099545
v 0.023380 75.616356 2.877956
v 0.062214 76.175751 2.919642
v 0.154230 76.130142 3.190922
v 0.092802 75.893608 3.911631
v 0.079323 75.550446 3.570279
v 0.019404 74.134377 2.864104
v 0.023381 73.731789 2.877955
v 0.443221 74.134377 4.983961
v 0.295888 73.667175 4.653708
v 0.254090 75.190483 3.463883
v -0.110303 73.502724 4.157380
v -0.326763 72.328094 3.403299
v -0.231782 72.418129 3.734297
v -0.583299 72.509125 3.757573
v -0.710675 72.422493 3.474703
v -0.251595 73.797699 3.665295
v 0.062354 73.169838 2.919789
v -0.174357 73.098007 2.686768
v -0.174358 73.709824 2.686768
v -0.146231 72.696373 4.032250
v -0.119380 73.096657 4.125768
v -0.412424 73.068390 4.151441
v -0.440172 72.696373 4.038994
v -0.836195 73.097977 2.876800
v -0.917258 73.172302 3.200862
v -0.722522 72.461281 3.272694
v -0.885917 72.843079 3.251084
v -0.813231 72.649918 2.956775
v 0.015098 75.190483 2.849111
v 0.098672 75.190483 3.041855
v -0.144253 75.190483 5.123658
v -0.592969 75.190483 4.379149
v -0.151363 72.649857 2.766849
v -0.060684 72.461281 3.082661
v -0.391603 72.368759 3.177677
v -0.482835 72.577217 2.859941
v 0.100466 73.430305 3.942045
v 0.154405 73.215630 3.191326
v -0.910561 75.190483 3.114894
v -0.879256 75.190483 3.322646
v -0.801767 75.190483 3.767049
v -0.854341 73.221245 3.480500
v -0.403206 73.430305 4.086663
v -0.141971 73.463715 4.047088
v -0.821467 73.045029 3.517712
v 0.106512 72.696373 3.882025
v 0.142647 73.068390 3.992064
v -0.505277 75.190483 2.781784
v -0.836196 75.190483 2.876801
v 0.015098 74.674072 2.849110
v -0.174358 74.674072 2.686768
v -0.174359 75.190483 2.686768
v 0.481393 74.665627 5.125253
v 0.498367 74.674072 4.102225
v 0.236329 74.654755 3.402025
v -0.910561 74.674072 3.114894
v -0.836196 74.674072 2.876801
v -0.098337 74.662079 5.291921
v -0.655519 74.674072 4.433539
v -0.819527 74.662529 3.705192
v -0.505277 74.674072 2.781784
v -0.174358 74.134377 2.686768
v 0.208542 74.664238 5.267843
v 0.160383 75.217758 5.100120
v 0.098673 74.674072 3.041855
v -0.879256 74.674072 3.322646
v 0.078538 72.509125 3.567540
v 0.062595 72.840210 2.979170
v 0.036549 72.422493 3.260154
v -0.505276 73.039856 2.781784
v 0.146059 73.039253 3.240471
v 0.078535 76.838890 3.567541
v -0.060687 76.886864 3.082662
v 0.036546 76.925797 3.260155
v 0.062745 76.505753 2.977523
v -0.152099 76.696762 2.764295
v 0.146513 76.306252 3.239437
v -0.822421 76.300499 3.517097
vn 0.9499 0.3000 -0.0875
vn 0.9457 0.3112 -0.0942
vn 0.9467 0.3080 -0.0947
vn 0.9485 0.3003 -0.1012
vn -0.2760 -0.0000 -0.9612
vn -0.2761 0.0003 -0.9611
vn -0.1385 0.9301 0.3401
vn -0.1348 0.9295 0.3432
vn -0.1335 0.9314 0.3387
vn -0.1396 0.9313 0.3365
vn -0.1788 0.9231 0.3404
vn -0.1388 0.9360 0.3235
vn -0.0924 0.9473 0.3068
vn -0.1587 0.9469 0.2798
vn -0.2111 0.8849 -0.4153
vn -0.1954 0.8884 -0.4155
vn -0.2006 0.8845 -0.4213
vn -0.2063 0.8829 -0.4219
vn 0.4552 0.2822 0.8445
vn 0.0621 0.2822 0.9573
vn -0.9704 -0.0006 -0.2417
vn -0.9194 0.3931 0.0094
vn -0.0300 -0.5844 0.8109
vn -0.0183 -0.5817 0.8132
vn -0.0377 -0.5793 0.8142
vn -0.0255 -0.5876 0.8087
vn 0.8701 -0.4266 -0.2468
vn 0.8638 -0.4374 -0.2501
vn 0.8606 -0.4385 -0.2592
vn 0.8641 -0.4249 -0.2696
vn -0.0723 0.7026 0.7079
vn -0.0817 0.6272 0.7746
vn -0.0209 0.6233 0.7817
vn 0.0261 0.6705 0.7415
vn 0.9637 -0.2437 -0.1093
vn 0.9618 -0.2483 -0.1155
vn 0.9641 -0.2375 -0.1188
vn 0.9640 -0.2419 -0.1101
vn -0.3067 0.8516 -0.4251
vn -0.2755 -0.0008 -0.9613
vn -0.2755 0.0008 -0.9613
vn -0.8418 -0.3287 0.4283
vn -0.8401 -0.3389 0.4235
vn -0.8374 -0.3362 0.4310
vn -0.8461 -0.3296 0.4190
vn -0.8555 -0.4508 0.2549
vn -0.8635 -0.4351 0.2549
vn -0.8581 -0.4547 0.2386
vn -0.8568 -0.4511 0.2498
vn -0.8766 -0.2651 0.4016
vn -0.8760 -0.2661 0.4022
vn -0.8807 -0.2560 0.3986
vn -0.8761 -0.2713 0.3986
vn -0.2762 0.0009 -0.9611
vn -0.8079 -0.0990 0.5810
vn -0.9812 -0.0334 0.1902
vn 0.1237 -0.7204 0.6824
vn -0.9868 -0.0078 0.1618
vn -0.9867 -0.0066 0.1621
vn -0.9866 -0.0052 0.1628
vn -0.9880 -0.0061 0.1541
vn 0.9356 -0.0237 -0.3523
vn 0.2572 -0.7204 0.6441
vn 0.9214 -0.0020 -0.3886
vn 0.9192 -0.0078 -0.3937
vn 0.9220 -0.0062 -0.3872
vn 0.9226 -0.0051 -0.3856
vn 0.9426 -0.3224 -0.0868
vn 0.9392 -0.3280 -0.1018
vn 0.9445 -0.3142 -0.0964
vn 0.9383 -0.3337 -0.0911
vn 0.8912 0.3959 -0.2215
vn 0.8904 0.3934 -0.2290
vn 0.8886 0.3955 -0.2324
vn 0.8897 0.3949 -0.2292
vn -0.1513 -0.9587 0.2408
vn -0.1648 -0.9599 0.2270
vn -0.1612 -0.9612 0.2237
vn -0.1482 -0.9646 0.2180
vn -0.1887 -0.9225 0.3367
vn -0.2231 -0.9165 0.3322
vn -0.1789 -0.9355 0.3047
vn -0.1568 -0.9248 0.3466
vn -0.2001 -0.8905 -0.4086
vn -0.2178 -0.8826 -0.4167
vn -0.2115 -0.8785 -0.4285
vn -0.1891 -0.8872 -0.4209
vn 0.6989 -0.0023 -0.7152
vn 0.0658 -0.2615 0.9630
vn -0.9704 0.0006 -0.2417
vn -0.9195 -0.3930 0.0095
vn 0.9213 0.0138 -0.3886
vn 0.9215 0.0136 -0.3882
vn 0.9213 0.0107 -0.3887
vn 0.9207 0.0139 -0.3900
vn 0.9669 0.2262 -0.1177
vn 0.9671 0.2266 -0.1157
vn 0.9682 0.2191 -0.1211
vn 0.9669 0.2257 -0.1190
vn -0.1138 -0.7641 0.6350
vn -0.0800 -0.7885 0.6099
vn -0.0466 -0.7564 0.6524
vn -0.0922 -0.7395 0.6668
vn -0.8189 0.3455 0.4584
vn -0.8236 0.3560 0.4415
vn -0.8218 0.3531 0.4472
vn -0.8173 0.3625 0.4479
vn 0.0554 -0.8388 -0.5416
vn 0.9942 0.0935 0.0533
vn -0.9874 0.0122 0.1579
vn -0.9873 0.0146 0.1579
vn -0.9877 0.0130 0.1555
vn -0.9873 0.0104 0.1583
vn -0.8837 0.2468 0.3978
vn -0.8842 0.2502 0.3944
vn -0.8878 0.2419 0.3914
vn -0.8849 0.2435 0.3970
vn 0.9356 0.0237 -0.3522
vn -0.8114 0.1034 0.5752
vn -0.9812 0.0334 0.1902
vn 0.1125 0.7285 0.6757
vn -0.8662 0.4338 0.2481
vn -0.8639 0.4409 0.2434
vn -0.8658 0.4421 0.2344
vn -0.8678 0.4362 0.2380
vn -0.8927 -0.1872 0.4100
vn 0.4551 -0.2615 0.8512
vn -0.2764 0.0009 -0.9611
vn -0.2768 0.0004 -0.9609
vn 0.6495 0.0008 -0.7604
vn 0.6507 0.0000 -0.7594
vn 0.6512 0.0005 -0.7589
vn 0.6510 -0.0008 -0.7591
vn 0.9864 0.1631 -0.0216
vn 0.9855 0.1695 -0.0091
vn 0.9864 0.1633 -0.0187
vn 0.9850 0.1724 -0.0117
vn 0.9517 0.1230 -0.2813
vn 0.9597 0.1183 -0.2550
vn 0.9550 0.1106 -0.2753
vn 0.9548 0.1075 -0.2771
vn -0.9592 -0.0083 -0.2827
vn -0.9594 -0.0077 -0.2821
vn -0.8461 -0.1183 0.5197
vn -0.8414 -0.1249 0.5257
vn -0.8457 -0.1134 0.5215
vn -0.8424 -0.1311 0.5227
vn -0.9585 -0.0909 0.2701
vn -0.9507 -0.0886 0.2973
vn -0.9579 -0.0742 0.2774
vn -0.9604 -0.0749 0.2683
vn 0.4513 0.2992 0.8407
vn 0.4550 0.3019 0.8378
vn 0.4579 0.3116 0.8326
vn 0.4434 0.3082 0.8417
vn 0.9339 0.0283 -0.3565
vn 0.9368 0.0064 -0.3499
vn 0.9367 0.0040 -0.3500
vn 0.9364 0.0045 -0.3508
vn -0.9881 -0.0351 0.1499
vn -0.9885 -0.0107 0.1508
vn -0.9882 -0.0076 0.1530
vn -0.0413 0.6124 0.7895
vn -0.0339 0.6156 0.7873
vn -0.0502 0.6098 0.7910
vn -0.0247 0.6079 0.7936
vn -0.9870 0.0049 0.1607
vn -0.9864 0.0056 0.1642
vn -0.9864 0.0075 0.1643
vn -0.9899 0.0186 0.1402
vn 0.9337 -0.0021 -0.3582
vn 0.9352 -0.0057 -0.3540
vn 0.9356 -0.0079 -0.3529
vn 0.9267 -0.0153 -0.3756
vn 0.4485 -0.2633 0.8541
vn 0.4651 -0.2632 0.8452
vn 0.4575 -0.2524 0.8526
vn 0.4559 -0.2542 0.8530
vn -0.2762 -0.0008 -0.9611
vn -0.9625 0.0661 0.2632
vn -0.9607 0.0687 0.2689
vn -0.9561 0.0943 0.2775
vn -0.9638 0.0759 0.2557
vn -0.8310 0.1373 0.5390
vn -0.8371 0.1219 0.5333
vn -0.8365 0.1368 0.5306
vn -0.8384 0.1233 0.5309
vn -0.9541 -0.0005 -0.2995
vn -0.9543 0.0003 -0.2990
vn -0.9545 -0.0000 -0.2981
vn 0.9510 -0.0801 -0.2986
vn 0.9543 -0.0809 -0.2876
vn 0.9535 -0.1057 -0.2821
vn 0.9483 -0.0899 -0.3044
vn 0.9908 -0.1353 -0.0048
vn 0.9930 -0.1178 -0.0092
vn 0.9905 -0.1369 -0.0096
vn 0.9921 -0.1247 -0.0125
vn 0.6623 -0.0073 -0.7492
vn 0.6630 -0.0079 -0.7486
vn 0.6633 -0.0077 -0.7483
vn 0.0561 -0.2630 0.9632
vn 0.0742 -0.2646 0.9615
vn 0.0661 -0.2535 0.9651
vn 0.0633 -0.2520 0.9657
vn 0.4426 0.6143 0.6533
vn 0.4540 0.6119 0.6476
vn 0.4355 0.6136 0.6587
vn 0.4579 0.6125 0.6444
vn 0.0567 0.2979 0.9529
vn 0.0627 0.2980 0.9525
vn 0.0644 0.3115 0.9481
vn 0.0493 0.3147 0.9479
vn 0.3692 -0.7721 0.5172
vn 0.4050 -0.7825 0.4729
vn 0.4371 -0.7428 0.5071
vn 0.4042 -0.7450 0.5307
vn 0.7881 -0.3871 -0.4786
vn -0.2759 -0.0003 -0.9612
vn 0.9912 -0.1321 -0.0095
vn -0.8416 -0.1406 0.5215
vn -0.0588 -0.8900 -0.4522
vn -0.0668 -0.8863 -0.4582
vn -0.0540 -0.8775 -0.4765
vn -0.0404 -0.8856 -0.4626
vn 0.3407 -0.9223 0.1826
vn 0.3079 -0.9318 0.1924
vn 0.3336 -0.9307 0.1500
vn 0.3687 -0.9128 0.1758
vn 0.2597 -0.9578 0.1235
vn 0.2541 -0.9611 0.1082
vn 0.2573 -0.9607 0.1039
vn 0.2704 -0.9578 0.0973
vn 0.4995 0.6092 0.6159
vn 0.4077 0.6436 0.6477
vn 0.4699 0.6185 0.6298
vn 0.4951 0.6573 0.5681
vn 0.4539 -0.5852 0.6720
vn 0.4652 -0.5790 0.6696
vn 0.4478 -0.5810 0.6797
vn 0.4577 -0.5863 0.6684
vn 0.7880 0.3873 -0.4786
vn 0.6989 0.0023 -0.7153
vn 0.9939 0.1036 0.0378
vn 0.9942 -0.0890 0.0603
vn -0.0577 0.8861 -0.4599
vn -0.0462 0.8884 -0.4567
vn -0.0464 0.8836 -0.4659
vn -0.0493 0.8843 -0.4642
vn 0.2549 0.9375 0.2370
vn 0.2871 0.9361 0.2033
vn 0.3244 0.9305 0.1698
vn 0.2541 0.9519 0.1711
vn 0.2960 0.9306 0.2154
vn 0.2969 0.9301 0.2165
vn 0.3002 0.9299 0.2124
vn 0.2890 0.9336 0.2119
vn 0.1203 0.9651 -0.2327
vn 0.1232 0.9652 -0.2306
vn 0.1252 0.9642 -0.2337
vn 0.0817 0.9625 -0.2587
vn 0.1710 -0.9514 -0.2562
vn 0.1694 -0.9525 -0.2531
vn 0.1638 -0.9438 -0.2871
vn 0.1711 -0.9513 -0.2565
vn 0.9191 0.0009 -0.3941
vn 0.9165 -0.0041 -0.4000
vn -0.9890 -0.0005 0.1476
vn -0.9888 -0.0015 0.1495
vn -0.9882 -0.0061 0.1531
vn 0.9178 0.0004 -0.3971
vn 0.9172 -0.0007 -0.3984
vn -0.3342 -0.8388 -0.4297
vn -0.9634 0.0171 -0.2674
vn -0.9637 0.0177 -0.2663
vn -0.9628 0.0178 -0.2697
vn -0.9631 0.0183 -0.2684
vn 0.9760 -0.1773 -0.1262
vn 0.6744 0.0188 -0.7382
vn 0.6756 0.0186 -0.7370
vn 0.6752 0.0168 -0.7375
vn 0.6742 0.0188 -0.7383
vn -0.2776 -0.9526 -0.1246
vn -0.2809 -0.9514 -0.1262
vn -0.2612 -0.9523 -0.1577
vn -0.2761 -0.9526 -0.1279
vn 0.6857 -0.0089 -0.7279
vn 0.6847 -0.0086 -0.7288
vn 0.0345 0.8516 -0.5230
vn -0.9675 -0.0089 -0.2529
vn -0.9675 -0.0091 -0.2526
vn -0.9675 -0.0085 -0.2527
vn -0.9674 -0.0097 -0.2532
vn 0.9760 0.1775 -0.1263
vn 0.2631 0.7286 0.6324
vn -0.8927 0.1873 0.4099
vn -0.2302 0.9641 -0.1320
vn -0.2302 0.9642 -0.1317
vn -0.2271 0.9652 -0.1299
vn -0.2490 0.9528 -0.1734
vn -0.9625 -0.0773 0.2599
vn 0.9567 0.0728 -0.2819
vn 0.9569 -0.0755 -0.2805
vn -0.8257 0.0698 0.5597
vn -0.9631 0.0745 0.2585
vn 0.9973 0.0677 0.0271
vn 0.0934 0.1939 0.9766
vn -0.3032 0.1739 -0.9369
vn -0.8121 -0.0457 0.5818
vn 0.4389 -0.2639 0.8589
vn 0.9977 -0.0429 0.0534
vn -0.3064 -0.1777 -0.9352
vn 0.4389 0.1939 0.8774
vn -0.2399 0.1740 -0.9551
vn 0.0836 -0.2639 0.9609
vn -0.2362 -0.1778 -0.9553
vn -0.9748 -0.1014 -0.1985
vn 0.7275 0.0967 -0.6792
vn 0.7282 -0.0998 -0.6781
vn -0.9749 0.0982 -0.1998
vn -0.8179 0.1110 0.5646
vn 0.9962 0.0684 0.0544
vn -0.8100 0.0716 0.5821
vn -0.8341 -0.1017 0.5421
vn 0.9950 -0.0991 0.0084
usemtl FFFFFF
s 1
f 1//1 2//2 3//3 4//4
f 5//5 6//5 7//6 8//5
f 9//7 10//8 11//9 12//10
f 13//11 14//12 15//13 16//14
f 17//15 18//16 10//17 9//18
f 19//19 20//19 21//19 22//19
f 20//20 23//20 24//20 21//20
f 25//21 26//21 27//21 28//21
f 29//22 30//22 31//22 14//22
f 32//23 33//24 34//25 35//26
f 36//27 37//28 38//29 39//30
f 20//31 16//32 15//33 23//34
f 40//35 37//36 36//37 41//38
f 42//39 30//39 29//39 43//39
f 44//40 45//41 46//5 47//5
f 34//42 48//43 49//44 35//45
f 50//46 49//47 48//48 51//49
f 52//50 53//51 50//52 51//53
f 45//41 28//54 27//5 46//5
f 18//55 54//55 55//55 56//55
f 56//56 55//56 26//56 25//56
f 57//57 54//57 18//57 17//57
f 58//58 59//59 53//60 52//61
f 60//62 61//62 62//62 63//62
f 64//63 57//63 17//63 65//63
f 66//64 40//65 41//66 67//67
f 68//68 69//69 39//70 38//71
f 65//72 3//73 2//74 70//75
f 71//76 32//77 35//78 49//79
f 72//80 73//81 74//82 75//83
f 76//84 71//85 49//86 50//87
f 67//88 77//88 78//88 79//88
f 80//89 81//89 82//89 83//89
f 59//90 7//90 84//90 85//90
f 86//91 75//91 87//91 88//91
f 89//92 61//93 60//94 90//95
f 90//96 60//97 65//98 70//99
f 80//100 83//101 74//102 73//103
f 91//104 11//105 10//106 92//107
f 93//108 94//108 95//108 96//108
f 36//109 97//109 98//109 41//109
f 99//110 100//111 56//112 25//113
f 100//114 101//115 18//116 56//117
f 41//118 98//118 77//118 67//118
f 50//119 53//119 102//119 103//119
f 53//120 59//120 85//120 102//120
f 104//121 76//121 50//121 103//121
f 18//122 101//123 92//124 10//125
f 75//126 74//126 105//126 87//126
f 106//127 107//127 81//127 80//127
f 108//128 109//129 28//54 45//41
f 110//130 111//131 112//132 89//133
f 113//134 114//135 2//136 1//137
f 114//138 115//139 70//140 2//141
f 116//142 117//143 8//143 58//143
f 118//144 119//145 48//146 34//147
f 119//148 120//149 51//150 48//151
f 121//5 111//5 122//5 5//5
f 123//152 113//153 1//154 124//155
f 115//156 125//157 90//158 70//159
f 120//160 126//161 52//61 51//162
f 12//163 11//164 91//165 124//166
f 101//167 100//168 126//169 120//170
f 37//171 40//172 125//173 115//174
f 33//175 68//176 113//177 123//178
f 108//128 112//179 111//5 121//5
f 92//180 101//181 120//182 119//183
f 91//184 92//185 119//186 118//187
f 99//188 109//189 117//190 116//190
f 38//191 37//192 115//193 114//194
f 68//195 38//196 114//197 113//198
f 66//199 122//200 111//201 110//201
f 109//129 108//128 121//5 117//5
f 34//202 33//203 123//204 118//205
f 4//206 12//207 124//208 1//209
f 118//210 123//211 124//212 91//213
f 117//5 121//5 5//5 8//5
f 112//179 108//128 45//41 44//40
f 106//214 80//215 73//216 127//217
f 94//218 93//218 128//218 129//218
f 79//219 78//5 130//5 6//5
f 127//220 131//220 106//220
f 74//221 83//221 105//221
f 36//222 39//223 71//224 76//225
f 129//226 127//227 73//228 72//229
f 39//230 69//231 32//232 71//233
f 19//234 132//235 16//236 20//237
f 69//238 68//239 33//240 32//241
f 133//242 134//242 135//242 136//242
f 61//243 44//243 47//243 62//243
f 132//244 19//244 137//244
f 65//245 60//245 63//245 64//245
f 65//246 17//247 9//248 3//249
f 134//250 13//251 16//252 132//253
f 3//254 9//255 12//256 4//257
f 122//5 79//219 6//5 5//5
f 133//258 43//259 13//260 134//261
f 94//262 129//263 72//264 95//265
f 40//65 66//64 110//266 125//267
f 100//268 99//269 116//270 126//161
f 126//161 116//270 58//58 52//61
f 125//267 110//266 89//271 90//272
f 6//5 130//5 84//5 7//6
f 96//273 95//273 86//273 88//273
f 109//274 99//275 25//276 28//277
f 129//278 128//278 131//278 127//278
f 112//279 44//280 61//281 89//282
f 95//283 72//284 75//285 86//286
f 122//287 66//287 67//288 79//287
f 136//289 42//289 43//289 133//289
f 8//290 7//291 59//292 58//293
f 134//294 132//294 137//294 135//294
f 97//295 36//295 76//295 104//295
f 14//296 31//296 138//296 15//296
f 43//297 29//298 14//299 13//300
f 87//301 105//301 102//301 85//301
f 135//302 137//302 63//302 62//302
f 77//303 98//303 131//303 128//303
f 103//304 102//304 105//304 82//304
f 26//305 55//305 138//305 31//305
f 107//306 131//306 98//306 97//306
f 104//307 103//307 82//307 81//307
f 46//308 27//308 30//308 42//308
f 24//309 138//309 55//309 54//309
f 57//310 64//310 22//310 21//310
f 64//311 63//311 137//311 22//311
f 96//312 88//312 84//312 130//312
f 97//313 104//313 81//313 107//313
f 47//314 46//314 42//314 136//314
f 54//315 57//315 21//315 24//315
f 93//316 96//316 130//316 78//316
f 88//317 87//317 85//317 84//317
f 136//318 135//318 62//318 47//318
f 78//319 77//319 128//319 93//319
f 27//320 26//320 31//320 30//320
f 15//321 138//321 23//321
f 137//322 19//322 22//322
f 23//323 138//323 24//323
f 105//324 83//324 82//324
f 106//325 131//325 107//325
