# Blender v2.81 (sub 16) OBJ File: 'airport.blend'
# www.blender.org
mtllib 11.mtl
o Sandal_Cube.035
v -0.518060 67.184906 1.920758
v -0.507583 67.122520 1.936042
v -0.442911 67.147156 1.992260
v -0.453388 67.209541 1.976976
v -0.197268 67.184906 1.700870
v -0.168161 67.209541 1.781466
v -0.157684 67.147156 1.796751
v -0.186791 67.122520 1.716154
v -0.231370 67.218185 1.860060
v -0.220894 67.155800 1.875345
v -0.346808 67.155800 1.961653
v -0.357285 67.218185 1.946369
v -0.518756 67.181686 1.908094
v -0.454686 67.206322 1.964725
v -0.444209 67.143936 1.980009
v -0.508279 67.119301 1.923378
v -0.208828 67.181686 1.695653
v -0.198352 67.119301 1.710937
v -0.168642 67.143936 1.791121
v -0.179119 67.206322 1.775836
v -0.231470 67.152580 1.869453
v -0.241947 67.214966 1.854169
v -0.358965 67.214966 1.934379
v -0.348488 67.152580 1.949664
v -0.452869 67.593887 1.921038
v -0.480342 67.577866 1.880958
v -0.439296 67.515480 1.913221
v -0.418252 67.544403 1.943922
v -0.220520 67.593887 1.761774
v -0.211663 67.544403 1.802314
v -0.232707 67.515488 1.771613
v -0.247993 67.577866 1.721694
v -0.256427 67.514969 1.860726
v -0.277471 67.486046 1.830025
v -0.368671 67.486046 1.892538
v -0.347627 67.514969 1.923239
v -0.445725 67.591019 1.912157
v -0.415798 67.550583 1.935693
v -0.436419 67.522240 1.905610
v -0.471231 67.577217 1.874946
v -0.231381 67.591019 1.765234
v -0.256887 67.577217 1.728024
v -0.240843 67.522240 1.771552
v -0.220223 67.550583 1.801636
v -0.283534 67.492516 1.828088
v -0.262490 67.521439 1.858789
v -0.347246 67.521439 1.916886
v -0.368290 67.492516 1.886185
v -0.245745 67.650665 1.744278
v -0.266402 67.633873 1.714142
v -0.480746 67.633873 1.861065
v -0.460089 67.650665 1.891201
v -0.257475 67.634323 1.707861
v -0.279777 67.709717 1.702943
v -0.253185 67.712799 1.741738
v -0.237989 67.650269 1.736289
v -0.403457 67.750000 1.841789
v -0.312258 67.750000 1.779276
v -0.338850 67.746918 1.740480
v -0.430050 67.746918 1.802993
v -0.486367 67.709717 1.844550
v -0.459774 67.712799 1.883346
v -0.489824 67.634323 1.867125
v -0.470338 67.650269 1.895553
v -0.480290 67.701576 1.841608
v -0.454232 67.704597 1.879622
v -0.258657 67.704597 1.745564
v -0.284714 67.701576 1.707550
v -0.315177 67.741821 1.781926
v -0.341769 67.738739 1.743130
v -0.426525 67.738739 1.801226
v -0.399933 67.741821 1.840022
v -0.555424 67.571022 1.771423
v -0.545174 67.509987 1.786376
v -0.441873 67.201065 1.969358
v -0.442821 67.198715 1.960416
v -0.372960 67.205025 1.938269
v -0.371733 67.207375 1.947019
v -0.433981 67.526344 1.905203
v -0.380120 67.508484 1.892094
v -0.380975 67.507843 1.884966
v -0.434622 67.525627 1.897941
v -0.447212 67.357712 1.916791
v -0.446418 67.359245 1.924893
v -0.384417 67.353470 1.907170
v -0.385458 67.351974 1.899230
v -0.546339 67.570534 1.765371
v -0.536054 67.509293 1.780377
v -0.321710 67.509293 1.633454
v -0.331995 67.570534 1.618449
v -0.323075 67.571022 1.612158
v -0.312825 67.509987 1.627111
v -0.563264 67.527687 1.774536
v -0.540225 67.539795 1.808148
v -0.552408 67.695656 1.760369
v -0.575447 67.683548 1.726757
v -0.545471 67.198837 1.880768
v -0.522432 67.210938 1.914380
v -0.533083 67.274361 1.898841
v -0.556122 67.262253 1.865229
v -0.556964 67.257095 1.856995
v -0.438783 67.304741 1.758827
v -0.421230 67.200226 1.784434
v -0.547414 67.200226 1.870927
v -0.235330 67.262253 1.645341
v -0.212291 67.274361 1.678953
v -0.201640 67.210938 1.694492
v -0.224679 67.198837 1.660880
v -0.418762 67.698174 1.614090
v -0.395722 67.710274 1.647702
v -0.321902 67.673790 1.610241
v -0.344942 67.661690 1.576629
v -0.345237 67.573677 1.662290
v -0.286819 67.539207 1.634660
v -0.440120 67.312729 1.756867
v -0.557532 67.265388 1.854396
v -0.564450 67.522491 1.766549
v -0.481431 67.561119 1.695732
v -0.451460 67.581093 1.732430
v -0.473183 67.716217 1.698658
v -0.328196 67.300789 1.684450
v -0.311308 67.200226 1.709087
v -0.414694 67.200226 1.779954
v -0.432459 67.306007 1.754038
v -0.496222 67.704109 1.665046
v -0.482766 67.569237 1.693725
v -0.564996 67.530975 1.763869
v -0.576489 67.678009 1.718795
v -0.503306 67.697006 1.661791
v -0.319525 67.531639 1.595372
v -0.370412 67.561661 1.619440
v -0.417492 67.689041 1.605837
v -0.352138 67.656746 1.572672
v -0.374463 66.970848 1.845654
v -0.351424 66.982956 1.879266
v -0.475723 67.044411 1.942335
v -0.498763 67.032303 1.908722
v -0.309859 67.527107 1.601048
v -0.279790 67.210938 1.748061
v -0.297927 67.318932 1.721602
v -0.408781 67.324478 1.795589
v -0.389712 67.210938 1.823407
v -0.245037 67.266388 1.639837
v -0.322714 67.306816 1.678522
v -0.368359 67.552597 1.621297
v -0.317058 67.522324 1.597034
v -0.503211 67.096489 1.942420
v -0.526251 67.084389 1.908808
v -0.265473 66.976395 1.768947
v -0.242434 66.988503 1.802560
v -0.375452 67.555595 1.625080
v -0.329544 67.308395 1.682635
v -0.433730 67.313606 1.752171
v -0.475133 67.562553 1.690901
v -0.525277 67.078186 1.899703
v -0.400734 67.078186 1.814335
v -0.383303 66.974396 1.839765
v -0.501284 67.032730 1.899628
v -0.425360 67.692169 1.610105
v -0.377720 67.563271 1.623869
v -0.476379 67.570160 1.689015
v -0.496874 67.697655 1.657150
v -0.210204 67.029053 1.712099
v -0.187165 67.041161 1.745712
v -0.321247 67.298325 1.680573
v -0.242773 67.257484 1.641490
v -0.233157 67.200233 1.655519
v -0.304772 67.200226 1.704607
v -0.260570 67.096489 1.776101
v -0.370492 67.096489 1.851447
v -0.290812 67.078186 1.738989
v -0.273924 66.977631 1.763626
v -0.376434 66.972412 1.835771
v -0.394198 67.078186 1.809855
v -0.284276 67.078186 1.734509
v -0.213764 67.078186 1.686176
v -0.217983 67.028992 1.706784
v -0.268010 66.981331 1.758240
v -0.182419 67.096489 1.722532
v -0.205459 67.084389 1.688920
v -0.402010 67.085785 1.812474
v -0.528193 67.085785 1.898967
v -0.546138 67.192635 1.872788
v -0.419954 67.192635 1.786295
v -0.292088 67.085785 1.737128
v -0.395474 67.085785 1.807994
v -0.413419 67.192635 1.781815
v -0.310032 67.192635 1.710948
v -0.213937 67.085785 1.683559
v -0.285552 67.085785 1.732648
v -0.303497 67.192635 1.706468
v -0.231882 67.192635 1.657380
v -0.431820 67.312370 1.761977
v -0.412752 67.198837 1.789795
v -0.474500 67.568985 1.698818
v -0.320966 67.306824 1.687990
v -0.302830 67.198837 1.714449
v -0.368276 67.561569 1.628677
v -0.393532 67.084389 1.817835
v -0.283610 67.084389 1.742489
vn -0.6693 0.0689 0.7398
vn 0.9314 0.0688 -0.3574
vn 0.7643 0.2716 0.5849
vn 0.2698 0.2716 0.9238
vn 0.5420 0.2847 0.7907
vn 0.6751 -0.0666 -0.7347
vn -0.9288 -0.0666 0.3646
vn -0.7651 -0.2715 -0.5838
vn -0.2684 -0.2715 -0.9242
vn -0.5420 -0.2847 -0.7907
vn -0.1610 0.9586 -0.2348
vn -0.1610 0.9586 -0.2347
vn 0.1610 -0.9586 0.2348
vn 0.1610 -0.9586 0.2347
vn 0.1610 -0.9586 0.2349
vn 0.1610 -0.9587 0.2346
vn -0.1610 0.9587 -0.2346
vn 0.4400 -0.1433 -0.8865
vn 0.1610 -0.9586 0.2351
vn 0.1610 -0.9585 0.2354
vn -0.1610 0.9586 -0.2350
vn -0.1610 0.9586 -0.2349
vn -0.9855 -0.1433 0.0906
vn -0.7480 -0.1928 0.6351
vn 0.8622 -0.1928 -0.4685
vn 0.6941 -0.6969 0.1807
vn -0.0817 -0.6968 0.7126
vn 0.3469 -0.7897 0.5061
vn 0.7632 0.1628 -0.6253
vn -0.8584 0.1628 0.4865
vn -0.7035 0.6904 -0.1683
vn 0.0969 0.6905 -0.7168
vn -0.3469 0.7896 -0.5061
vn 0.5915 0.6620 0.4603
vn -0.4616 -0.5951 -0.6579
vn -0.4466 -0.6135 -0.6512
vn -0.4570 -0.6255 -0.6324
vn 0.4458 0.6315 0.6344
vn -0.8248 -0.0000 0.5654
vn -0.4469 -0.5952 -0.6679
vn -0.4248 -0.6256 -0.6544
vn 0.4310 0.6315 0.6446
vn 0.2157 0.6621 0.7177
vn 0.8248 0.0000 -0.5654
vn 0.4465 0.6133 0.6515
vn 0.7766 0.2134 -0.5927
vn -0.0370 0.9979 -0.0539
vn -0.4206 0.8806 0.2183
vn -0.8330 0.2134 0.5105
vn 0.3553 0.8806 -0.3136
vn 0.8351 -0.1763 -0.5211
vn -0.7873 -0.1763 0.5909
vn -0.3678 -0.8725 0.3215
vn 0.4325 -0.8725 -0.2271
vn 0.0370 -0.9979 0.0539
vn -0.5856 -0.2137 -0.7820
vn 0.5574 0.0423 0.8292
vn 0.5642 0.0653 0.8231
vn 0.6266 0.1066 0.7720
vn -0.5556 -0.0884 -0.8268
vn 0.4292 0.4347 0.7917
vn 0.5724 0.0423 0.8189
vn 0.4940 0.1066 0.8629
vn -0.5705 -0.0884 -0.8165
vn -0.5180 -0.2136 -0.8283
vn -0.5642 -0.0653 -0.8231
vn 0.2863 0.9507 -0.1189
vn -0.9933 0.0835 0.0804
vn 0.2731 0.0892 0.9578
vn 0.9921 -0.0393 -0.1192
vn -0.2708 -0.0838 -0.9590
vn -0.2775 -0.2648 -0.9235
vn 0.9884 0.0459 -0.1448
vn 0.2783 0.2711 0.9214
vn -0.9948 0.0002 0.1016
vn 0.5836 0.4346 0.6859
vn -0.2344 0.8769 -0.4197
vn -0.5419 -0.2847 -0.7907
vn -0.5421 -0.2847 -0.7906
vn 0.2362 -0.8588 0.4547
vn -0.3067 0.8769 -0.3701
vn 0.3388 -0.8588 0.3842
vn -0.8371 0.0995 0.5380
vn 0.2010 0.8697 -0.4509
vn 0.5420 0.2848 0.7907
vn -0.3301 0.9374 -0.1113
vn -0.5420 -0.2848 -0.7907
vn -0.2010 -0.8695 0.4512
vn 0.8028 0.1027 -0.5873
vn -0.8400 0.1551 0.5199
vn 0.7967 0.1253 -0.5912
vn -0.6989 -0.3699 0.6122
vn 0.1967 -0.9576 0.2103
vn -0.1056 0.9565 -0.2718
vn 0.6075 -0.7828 -0.1344
vn 0.8367 -0.2711 -0.4758
vn -0.5997 0.7043 -0.3799
vn 0.5164 -0.1210 -0.8478
vn -0.0842 -0.9889 -0.1226
vn -0.9770 -0.1210 0.1756
vn 0.1390 -0.9463 -0.2920
vn -0.9907 0.0193 0.1346
vn -0.6269 0.6924 -0.3571
vn 0.5165 -0.1227 -0.8474
vn 0.5162 -0.1210 -0.8479
vn -0.0842 -0.9889 -0.1227
vn -0.3433 0.7459 -0.5708
vn 0.1659 -0.9345 -0.3150
vn -0.9881 -0.0310 0.1509
vn -0.5290 0.7275 -0.4369
vn 0.5173 -0.1283 -0.8461
vn -0.4700 -0.8769 0.1008
vn -0.9241 -0.3190 0.2104
vn -0.0486 0.6663 -0.7441
vn 0.4963 -0.0281 -0.8677
vn -0.4286 -0.8999 0.0798
vn -0.9738 -0.1390 0.1799
vn 0.0093 0.6349 -0.7725
vn 0.4907 -0.0076 -0.8713
vn 0.5130 -0.1031 -0.8522
vn -0.1173 -0.9879 -0.1016
vn -0.9773 -0.1194 0.1751
vn -0.3303 0.7454 -0.5790
vn -0.3761 0.7464 -0.5490
vn -0.4125 -0.9081 0.0717
vn -0.8629 -0.4558 0.2185
vn 0.4633 0.0769 -0.8829
vn -0.1305 -0.9871 -0.0928
vn -0.9782 -0.1138 0.1739
vn -0.3259 0.7450 -0.5820
vn -0.0323 0.6577 -0.7526
vn 0.5162 -0.1210 -0.8478
vn -0.0844 -0.9888 -0.1229
vn -0.9770 -0.1210 0.1757
vn -0.0525 -0.9879 -0.1462
vn -0.9770 -0.1210 0.1758
vn -0.3762 0.7466 -0.5487
vn -0.3762 0.7465 -0.5488
vn 0.5270 -0.3664 -0.7668
vn 0.3193 -0.8297 -0.4579
vn -0.9769 -0.1210 0.1758
vn -0.0847 -0.9888 -0.1232
vn -0.3760 0.7462 -0.5493
vn 0.5161 -0.1210 -0.8479
vn -0.0847 -0.9887 -0.1234
usemtl 009688
s 1
f 1//1 2//1 3//1 4//1
f 5//2 6//2 7//2 8//2
f 6//3 9//3 10//3 7//3
f 4//4 3//4 11//4 12//4
f 11//5 10//5 9//5 12//5
f 13//6 14//6 15//6 16//6
f 17//7 18//7 19//7 20//7
f 20//8 19//8 21//8 22//8
f 14//9 23//9 24//9 15//9
f 24//10 23//10 22//10 21//10
f 1//11 4//12 14//12 13//11
f 10//13 21//14 19//15 7//15
f 10//13 11//16 24//16 21//14
f 7//15 19//15 18//13 8//13
f 4//12 12//17 23//17 14//12
f 8//18 18//18 17//18 5//18
f 11//16 3//15 15//19 24//16
f 3//15 2//20 16//20 15//19
f 6//21 20//22 22//12 9//11
f 5//22 17//22 20//22 6//21
f 2//23 1//23 13//23 16//23
f 12//17 9//11 22//12 23//17
f 25//24 26//24 27//24 28//24
f 29//25 30//25 31//25 32//25
f 30//26 33//26 34//26 31//26
f 28//27 27//27 35//27 36//27
f 35//28 34//28 33//28 36//28
f 37//29 38//29 39//29 40//29
f 41//30 42//30 43//30 44//30
f 44//31 43//31 45//31 46//31
f 38//32 47//32 48//32 39//32
f 48//33 47//33 46//33 45//33
f 25//34 28//34 38//34 37//34
f 34//35 45//35 43//35 31//35
f 34//36 35//36 48//36 45//36
f 31//37 43//37 42//37 32//37
f 28//38 36//38 47//38 38//38
f 41//39 49//39 50//39 42//39
f 35//40 27//40 39//40 48//40
f 27//41 26//41 40//41 39//41
f 30//42 44//42 46//42 33//42
f 29//43 41//43 44//43 30//43
f 40//44 51//44 52//44 37//44
f 36//45 33//45 46//45 47//45
f 53//46 54//46 55//46 56//46
f 57//47 58//47 59//47 60//47
f 61//48 62//48 57//48 60//48
f 63//49 64//49 62//49 61//49
f 54//50 59//50 58//50 55//50
f 51//51 65//51 66//51 52//51
f 50//52 49//52 67//52 68//52
f 68//53 67//53 69//53 70//53
f 65//54 71//54 72//54 66//54
f 72//55 71//55 70//55 69//55
f 63//56 61//56 65//56 51//56
f 58//57 69//57 67//57 55//57
f 58//58 57//58 72//58 69//58
f 55//59 67//59 49//59 56//59
f 61//60 60//60 71//60 65//60
f 29//61 56//61 49//61 41//61
f 57//62 62//62 66//62 72//62
f 62//63 64//63 52//63 66//63
f 54//64 68//64 70//64 59//64
f 53//65 50//65 68//65 54//65
f 26//39 63//39 73//39 74//39
f 60//66 59//66 70//66 71//66
f 75//13 76//13 77//13 78//13
f 79//67 80//67 81//67 82//67
f 83//68 84//68 79//68 82//68
f 84//69 85//69 80//69 79//69
f 85//70 86//70 81//70 80//70
f 86//71 83//71 82//71 81//71
f 77//72 76//72 83//72 86//72
f 78//73 77//73 86//73 85//73
f 75//74 78//74 85//74 84//74
f 76//75 75//75 84//75 83//75
f 37//76 52//76 64//76 25//76
f 25//39 64//39 63//39 26//39
f 63//77 51//77 87//77 73//77
f 32//44 53//44 56//44 29//44
f 74//78 73//78 87//78 88//78
f 89//79 90//79 91//79 92//79
f 53//44 32//44 92//44 91//44
f 51//44 40//44 88//44 87//44
f 40//80 26//80 74//80 88//80
f 50//81 53//81 91//81 90//81
f 42//39 50//39 90//39 89//39
f 32//82 42//82 89//82 92//82
usemtl 1A1A1A
f 93//83 94//83 95//83 96//83
f 97//39 98//39 99//39 100//39
f 101//10 102//10 103//10 104//10
f 105//44 106//44 107//44 108//44
f 109//84 110//84 111//84 112//84
f 113//85 114//85 111//85 110//85
f 115//10 116//10 117//10 118//10
f 94//85 119//85 120//85 95//85
f 121//10 122//10 123//10 124//10
f 96//86 95//86 120//86 125//86
f 126//87 127//87 128//87 129//87
f 130//78 131//78 132//78 133//78
f 134//88 135//88 136//88 137//88
f 114//89 138//89 112//89 111//89
f 139//5 140//5 141//5 142//5
f 94//90 93//90 100//90 99//90
f 143//87 144//87 145//87 146//87
f 99//5 141//5 119//85 94//85
f 106//91 105//91 138//91 114//91
f 140//5 106//5 114//85 113//85
f 106//5 140//5 139//5 107//5
f 137//92 136//92 147//92 148//92
f 135//93 134//93 149//93 150//93
f 110//94 109//94 125//94 120//94
f 151//10 152//10 153//10 154//10
f 119//85 141//5 140//5 113//85
f 155//87 156//87 157//87 158//87
f 159//10 160//10 161//10 162//10
f 141//5 99//5 98//5 142//5
f 113//85 110//85 120//85 119//85
f 163//95 164//95 150//95 149//95
f 165//78 166//78 167//78 168//78
f 150//85 169//5 170//85 135//85
f 171//10 172//10 173//10 174//10
f 175//87 176//87 177//87 178//87
f 179//5 169//5 150//85 164//85
f 180//96 179//96 164//96 163//96
f 181//87 182//87 183//87 184//87
f 179//44 180//44 108//44 107//44
f 147//85 170//85 142//5 98//5
f 169//5 179//5 107//5 139//5
f 185//87 186//87 187//87 188//87
f 139//5 142//5 170//85 169//5
f 189//10 190//10 191//10 192//10
f 98//39 97//39 148//39 147//39
f 170//85 147//85 136//85 135//85
f 100//97 193//97 102//97 101//97
f 193//98 194//98 103//98 102//98
f 194//99 97//99 104//99 103//99
f 97//100 100//100 101//100 104//100
f 193//101 100//101 116//101 115//101
f 100//102 93//102 117//102 116//102
f 93//103 195//103 118//103 117//103
f 195//104 193//104 115//104 118//104
f 196//105 197//105 122//105 121//105
f 197//106 194//106 123//106 122//106
f 194//100 193//100 124//100 123//100
f 193//107 196//107 121//107 124//107
f 195//108 93//108 127//108 126//108
f 93//109 96//109 128//109 127//109
f 96//110 125//110 129//110 128//110
f 125//111 195//111 126//111 129//111
f 138//112 198//112 131//112 130//112
f 198//113 109//113 132//113 131//113
f 109//114 112//114 133//114 132//114
f 112//115 138//115 130//115 133//115
f 105//116 196//116 144//116 143//116
f 196//117 198//117 145//117 144//117
f 198//118 138//118 146//118 145//118
f 138//119 105//119 143//119 146//119
f 198//120 196//120 152//120 151//120
f 196//121 193//121 153//121 152//121
f 193//122 195//122 154//122 153//122
f 195//123 198//123 151//123 154//123
f 148//124 199//124 156//124 155//124
f 199//105 134//105 157//105 156//105
f 134//125 137//125 158//125 157//125
f 137//126 148//126 155//126 158//126
f 109//127 198//127 160//127 159//127
f 198//128 195//128 161//128 160//128
f 195//129 125//129 162//129 161//129
f 125//130 109//130 159//130 162//130
f 196//131 105//131 166//131 165//131
f 105//132 108//132 167//132 166//132
f 108//133 197//133 168//133 167//133
f 197//134 196//134 165//134 168//134
f 200//105 149//105 172//105 171//105
f 149//135 134//135 173//135 172//135
f 134//136 199//136 174//136 173//136
f 199//137 200//137 171//137 174//137
f 200//138 180//138 176//138 175//138
f 180//139 163//139 177//139 176//139
f 163//140 149//140 178//140 177//140
f 149//141 200//141 175//141 178//141
f 199//142 148//142 182//142 181//142
f 148//136 97//136 183//136 182//136
f 97//143 194//143 184//143 183//143
f 194//144 199//144 181//144 184//144
f 200//145 199//145 186//145 185//145
f 199//136 194//136 187//136 186//136
f 194//124 197//124 188//124 187//124
f 197//144 200//144 185//144 188//144
f 180//145 200//145 190//145 189//145
f 200//136 197//136 191//136 190//136
f 197//138 108//138 192//138 191//138
f 108//105 180//105 189//105 192//105
