# Blender v2.81 (sub 16) OBJ File: 'airport.blend'
# www.blender.org
mtllib 12.mtl
o Sandal_Cube.000
v -1.436776 67.099045 2.460590
v -1.426299 67.056007 2.412914
v -1.361627 67.018188 2.461260
v -1.372104 67.061226 2.508937
v -1.115984 67.292641 2.356326
v -1.086877 67.233360 2.416232
v -1.076400 67.190323 2.368555
v -1.105508 67.249603 2.308649
v -1.150087 67.168259 2.461107
v -1.139610 67.125221 2.413430
v -1.265524 67.049232 2.454355
v -1.276001 67.092270 2.502031
v -1.437473 67.108665 2.451751
v -1.373403 67.070488 2.500293
v -1.362926 67.027451 2.452616
v -1.426996 67.065628 2.404074
v -1.127545 67.295708 2.351017
v -1.117068 67.252670 2.303341
v -1.087358 67.193756 2.363051
v -1.097835 67.236794 2.410728
v -1.150187 67.128883 2.407801
v -1.160663 67.171921 2.455478
v -1.277681 67.101303 2.493511
v -1.267205 67.058266 2.445835
v -1.371585 67.292725 2.820802
v -1.399059 67.320412 2.787693
v -1.358013 67.262428 2.748067
v -1.336969 67.249115 2.788086
v -1.139236 67.432945 2.745284
v -1.130379 67.373787 2.720940
v -1.151423 67.387108 2.680921
v -1.166710 67.460632 2.712174
v -1.175144 67.308403 2.722721
v -1.196188 67.321716 2.682702
v -1.287387 67.266678 2.712344
v -1.266343 67.253365 2.752363
v -1.364441 67.299179 2.814067
v -1.334514 67.259285 2.789622
v -1.355135 67.272331 2.750409
v -1.389947 67.325401 2.784271
v -1.150097 67.428535 2.744400
v -1.175603 67.454758 2.714605
v -1.159559 67.390366 2.686842
v -1.138939 67.377312 2.726056
v -1.202250 67.326492 2.687478
v -1.181206 67.313171 2.727497
v -1.265962 67.262024 2.755045
v -1.287006 67.275345 2.715026
v -1.164461 67.475273 2.786976
v -1.185118 67.493843 2.757905
v -1.399462 67.364487 2.827571
v -1.378805 67.345917 2.856642
v -1.176191 67.499588 2.755324
v -1.198494 67.539665 2.819371
v -1.171901 67.506966 2.840479
v -1.156705 67.482117 2.782842
v -1.322173 67.436516 2.920669
v -1.230974 67.491554 2.891027
v -1.257567 67.524254 2.869919
v -1.348766 67.469215 2.899560
v -1.405083 67.414986 2.886517
v -1.378491 67.382294 2.907625
v -1.408540 67.359367 2.830842
v -1.389054 67.341896 2.858361
v -1.399006 67.413719 2.877954
v -1.372949 67.381683 2.898637
v -1.177373 67.499710 2.835071
v -1.203430 67.531746 2.814387
v -1.233893 67.485352 2.885088
v -1.260486 67.518044 2.863980
v -1.345241 67.466896 2.891527
v -1.318649 67.434196 2.912636
v -1.474140 67.413605 2.729726
v -1.463891 67.371506 2.683084
v -1.360589 67.063919 2.497863
v -1.361537 67.070679 2.491554
v -1.291676 67.093163 2.486605
v -1.290450 67.086578 2.492823
v -1.352698 67.274635 2.753829
v -1.298836 67.277710 2.731884
v -1.299691 67.283684 2.727941
v -1.353338 67.280693 2.749751
v -1.365928 67.184471 2.610852
v -1.365134 67.178070 2.616045
v -1.303134 67.190933 2.602552
v -1.304174 67.197212 2.597472
v -1.465055 67.418701 2.726427
v -1.454770 67.376450 2.679622
v -1.240426 67.505806 2.609956
v -1.250712 67.548058 2.656761
v -1.241791 67.553825 2.654208
v -1.231542 67.511726 2.607566
v -1.481981 67.390320 2.693051
v -1.458941 67.366463 2.719646
v -1.471124 67.482437 2.834217
v -1.494164 67.506287 2.807622
v -1.464188 67.140854 2.453890
v -1.441148 67.117004 2.480485
v -1.451799 67.160751 2.528955
v -1.474839 67.184608 2.502360
v -1.475680 67.189415 2.493911
v -1.357499 67.298439 2.489316
v -1.339947 67.226334 2.409440
v -1.466130 67.150185 2.450452
v -1.154047 67.378204 2.398096
v -1.131007 67.354355 2.424691
v -1.120356 67.310600 2.376221
v -1.143396 67.334450 2.349626
v -1.337478 67.612419 2.767073
v -1.314439 67.588562 2.793668
v -1.240619 67.604248 2.743783
v -1.263658 67.628098 2.717187
v -1.263953 67.510948 2.680318
v -1.205536 67.518936 2.636871
v -1.358836 67.303947 2.495419
v -1.476249 67.195633 2.499985
v -1.483166 67.394890 2.684691
v -1.400148 67.475555 2.685121
v -1.370177 67.452713 2.720106
v -1.391899 67.546516 2.823061
v -1.246912 67.362045 2.450564
v -1.230025 67.292671 2.373713
v -1.333411 67.230278 2.407315
v -1.351175 67.303253 2.488155
v -1.414939 67.570374 2.796465
v -1.401483 67.481171 2.691314
v -1.483712 67.401268 2.690887
v -1.495205 67.510674 2.798970
v -1.422023 67.569870 2.788664
v -1.238242 67.549934 2.611573
v -1.289129 67.542976 2.649420
v -1.336208 67.615356 2.755122
v -1.270855 67.629242 2.710958
v -1.293180 67.063667 2.236514
v -1.270140 67.039818 2.263109
v -1.394440 67.013428 2.347124
v -1.417479 67.037285 2.320529
v -1.228575 67.542786 2.610276
v -1.198507 67.263435 2.401622
v -1.216643 67.337936 2.484154
v -1.327497 67.275429 2.524122
v -1.308429 67.197098 2.437348
v -1.163754 67.385010 2.399122
v -1.241431 67.370117 2.453059
v -1.287075 67.537041 2.642319
v -1.235775 67.544052 2.604164
v -1.421928 67.038048 2.393019
v -1.444967 67.061905 2.366424
v -1.184190 67.133835 2.205028
v -1.161150 67.109978 2.231623
v -1.294169 67.535133 2.646752
v -1.248261 67.367249 2.456400
v -1.352446 67.308502 2.493963
v -1.393850 67.480484 2.684089
v -1.443993 67.066978 2.356647
v -1.319450 67.142136 2.316169
v -1.302019 67.070534 2.236844
v -1.420001 67.045486 2.316589
v -1.344076 67.613083 2.759897
v -1.296437 67.539841 2.652938
v -1.395095 67.485756 2.689893
v -1.415591 67.574265 2.787033
v -1.128921 67.208855 2.224434
v -1.105881 67.184998 2.251029
v -1.239964 67.364288 2.446561
v -1.161490 67.379333 2.392071
v -1.151874 67.339836 2.348312
v -1.223489 67.296616 2.371589
v -1.179286 67.184479 2.314155
v -1.289209 67.118141 2.349882
v -1.209529 67.208473 2.280442
v -1.192641 67.139107 2.203591
v -1.295151 67.073112 2.233205
v -1.312915 67.146080 2.314044
v -1.202993 67.212418 2.278317
v -1.132481 67.254974 2.255399
v -1.136699 67.213501 2.221859
v -1.186726 67.145599 2.204293
v -1.101136 67.231644 2.288754
v -1.124175 67.255501 2.262159
v -1.320726 67.147377 2.321974
v -1.446910 67.071228 2.362986
v -1.464854 67.144943 2.444647
v -1.338671 67.221092 2.403635
v -1.210804 67.213715 2.286247
v -1.314191 67.151321 2.319849
v -1.332135 67.225037 2.401511
v -1.228749 67.287430 2.367908
v -1.132653 67.260880 2.260846
v -1.204269 67.217659 2.284122
v -1.222213 67.291374 2.365784
v -1.150598 67.334595 2.342507
v -1.350537 67.299278 2.497527
v -1.331468 67.220955 2.410753
v -1.393216 67.476562 2.693511
v -1.239683 67.361786 2.457559
v -1.221547 67.287292 2.375026
v -1.286993 67.534805 2.653723
v -1.312248 67.141998 2.323287
v -1.202326 67.208336 2.287560
vn -0.6693 -0.6187 0.4115
vn 0.9314 0.3473 -0.1088
vn 0.7644 -0.3861 0.5164
vn 0.2698 -0.6845 0.6773
vn 0.5420 -0.5611 0.6256
vn 0.6751 0.6153 -0.4071
vn -0.9288 -0.3526 0.1142
vn -0.7652 0.3852 -0.5159
vn -0.2685 0.6850 -0.6773
vn -0.5420 0.5611 -0.6257
vn -0.1610 0.6614 0.7326
vn -0.1610 0.6615 0.7325
vn -0.1610 0.6614 0.7325
vn 0.1609 -0.6613 -0.7326
vn 0.1609 -0.6614 -0.7326
vn 0.1609 -0.6611 -0.7328
vn 0.1609 -0.6612 -0.7327
vn 0.4400 0.7125 -0.5465
vn 0.1609 -0.6610 -0.7329
vn -0.1609 0.6613 0.7327
vn -0.1609 0.6613 0.7326
vn -0.1609 0.6612 0.7327
vn -0.1609 0.6615 0.7325
vn -0.9855 -0.1478 -0.0831
vn -0.7479 -0.6506 0.1314
vn 0.8621 0.3211 -0.3919
vn 0.6941 -0.4895 -0.5279
vn -0.0818 -0.9577 -0.2758
vn 0.3469 -0.8200 -0.4552
vn 0.7633 0.6276 -0.1532
vn -0.8584 -0.3511 0.3740
vn -0.7035 0.4755 0.5282
vn 0.0969 0.9585 0.2680
vn -0.3468 0.8200 0.4554
vn 0.5915 -0.0910 0.8011
vn -0.4619 0.2969 -0.8358
vn -0.4465 0.2824 -0.8490
vn -0.4570 0.2601 -0.8506
vn 0.4457 -0.2590 0.8569
vn -0.8249 -0.4978 0.2680
vn -0.8248 -0.4978 0.2681
vn -0.4472 0.3061 -0.8404
vn -0.4248 0.2795 -0.8610
vn 0.4309 -0.2681 0.8617
vn 0.2157 -0.3179 0.9232
vn 0.8248 0.4978 -0.2681
vn 0.4467 -0.2827 0.8488
vn 0.7766 0.6230 -0.0931
vn -0.0369 0.5206 0.8530
vn -0.4205 0.2254 0.8788
vn -0.8330 -0.3483 0.4300
vn 0.3553 0.6935 0.6267
vn 0.8350 0.3752 -0.4024
vn -0.7872 -0.6039 0.1249
vn -0.3679 -0.6968 -0.6158
vn 0.4325 -0.2137 -0.8759
vn 0.0370 -0.5207 -0.8530
vn -0.5856 0.5871 -0.5589
vn 0.5572 -0.7102 0.4304
vn 0.5644 -0.6941 0.4468
vn 0.6265 -0.6293 0.4598
vn -0.5557 0.6860 -0.4696
vn 0.4291 -0.4910 0.7581
vn 0.5724 -0.7010 0.4254
vn 0.4942 -0.7092 0.5029
vn -0.5706 0.6767 -0.4652
vn -0.5182 0.6279 -0.5807
vn -0.5642 0.6937 -0.4476
vn 0.1610 -0.6613 -0.7327
vn 0.2861 0.5556 0.7807
vn -0.9933 -0.0312 0.1116
vn 0.2731 -0.8010 0.5327
vn 0.9921 0.0864 -0.0911
vn -0.2708 0.8046 -0.5285
vn -0.2775 0.6875 -0.6710
vn 0.9884 0.1494 -0.0283
vn 0.2783 -0.6827 0.6756
vn -0.9948 -0.0894 0.0484
vn 0.5836 -0.3978 0.7079
vn -0.2344 0.7854 0.5729
vn 0.8248 0.4978 -0.2680
vn -0.5419 0.5612 -0.6256
vn -0.5421 0.5611 -0.6255
vn 0.2360 -0.8078 -0.5401
vn -0.3068 0.7417 0.5964
vn 0.3390 -0.7456 -0.5737
vn -0.8371 -0.4265 0.3427
vn -0.5420 0.5611 -0.6256
vn 0.2010 0.8094 0.5517
vn -0.3301 0.5426 0.7724
vn -0.2011 -0.8094 -0.5517
vn 0.8028 0.5658 -0.1881
vn -0.8400 -0.3842 0.3830
vn 0.7967 0.5800 -0.1700
vn -0.6989 -0.7144 -0.0353
vn 0.1966 -0.6391 -0.7436
vn -0.1056 0.6929 0.7133
vn -0.5420 0.5612 -0.6256
vn 0.6075 -0.2528 -0.7530
vn -0.5419 0.5611 -0.6257
vn 0.5420 -0.5612 0.6256
vn 0.8367 0.2904 -0.4643
vn 0.5420 -0.5612 0.6255
vn -0.5996 0.6685 0.4399
vn 0.5163 0.6891 -0.5085
vn -0.0847 -0.3601 -0.9291
vn -0.9770 -0.2120 -0.0231
vn 0.1390 -0.1917 -0.9716
vn -0.9907 -0.1093 0.0808
vn -0.6267 0.6427 0.4407
vn 0.5168 0.6879 -0.5097
vn -0.0845 -0.3600 -0.9291
vn -0.9770 -0.2121 -0.0233
vn -0.3434 0.8561 0.3862
vn 0.1661 -0.1657 -0.9721
vn -0.9881 -0.1475 0.0442
vn -0.5291 0.7296 0.4333
vn 0.5177 0.6839 -0.5140
vn -0.4699 -0.5042 -0.7246
vn -0.9240 -0.3368 -0.1809
vn -0.0483 0.9709 0.2345
vn 0.4966 0.7505 -0.4361
vn -0.4287 -0.4975 -0.7541
vn -0.9738 -0.2244 -0.0370
vn 0.0090 0.9813 0.1923
vn 0.4908 0.7634 -0.4199
vn 0.5131 0.7013 -0.4948
vn -0.1174 -0.3791 -0.9179
vn -0.9773 -0.2109 -0.0220
vn -0.3305 0.8632 0.3816
vn -0.3763 0.8374 0.3964
vn 0.5161 0.6892 -0.5086
vn -0.4123 -0.4941 -0.7654
vn -0.8629 -0.4082 -0.2979
vn 0.4633 0.8138 -0.3507
vn -0.1302 -0.3862 -0.9132
vn -0.9782 -0.2070 -0.0179
vn -0.3260 0.8660 0.3792
vn -0.0323 0.9744 0.2226
vn 0.5164 0.6891 -0.5083
vn -0.0847 -0.3600 -0.9291
vn -0.0524 -0.3400 -0.9390
vn -0.9770 -0.2121 -0.0234
vn -0.3763 0.8373 0.3965
vn -0.3763 0.8372 0.3969
vn 0.5268 0.5015 -0.6863
vn 0.3194 0.0097 -0.9476
vn -0.9770 -0.2121 -0.0232
vn -0.0846 -0.3603 -0.9290
vn -0.3762 0.8374 0.3965
vn 0.5160 0.6892 -0.5087
vn -0.0846 -0.3604 -0.9290
vn -0.3761 0.8369 0.3976
vn -0.0846 -0.3600 -0.9291
vn -0.3760 0.8369 0.3978
vn 0.5162 0.6891 -0.5085
usemtl 009688
s 1
f 1//1 2//1 3//1 4//1
f 5//2 6//2 7//2 8//2
f 6//3 9//3 10//3 7//3
f 4//4 3//4 11//4 12//4
f 11//5 10//5 9//5 12//5
f 13//6 14//6 15//6 16//6
f 17//7 18//7 19//7 20//7
f 20//8 19//8 21//8 22//8
f 14//9 23//9 24//9 15//9
f 24//10 23//10 22//10 21//10
f 1//11 4//12 14//13 13//11
f 10//14 21//14 19//15 7//14
f 10//14 11//16 24//17 21//14
f 7//14 19//15 18//15 8//15
f 4//12 12//12 23//13 14//13
f 8//18 18//18 17//18 5//18
f 11//16 3//19 15//19 24//17
f 3//19 2//19 16//19 15//19
f 6//20 20//21 22//20 9//22
f 5//23 17//23 20//21 6//20
f 2//24 1//24 13//24 16//24
f 12//12 9//22 22//20 23//13
f 25//25 26//25 27//25 28//25
f 29//26 30//26 31//26 32//26
f 30//27 33//27 34//27 31//27
f 28//28 27//28 35//28 36//28
f 35//29 34//29 33//29 36//29
f 37//30 38//30 39//30 40//30
f 41//31 42//31 43//31 44//31
f 44//32 43//32 45//32 46//32
f 38//33 47//33 48//33 39//33
f 48//34 47//34 46//34 45//34
f 25//35 28//35 38//35 37//35
f 34//36 45//36 43//36 31//36
f 34//37 35//37 48//37 45//37
f 31//38 43//38 42//38 32//38
f 28//39 36//39 47//39 38//39
f 41//40 49//40 50//41 42//41
f 35//42 27//42 39//42 48//42
f 27//43 26//43 40//43 39//43
f 30//44 44//44 46//44 33//44
f 29//45 41//45 44//45 30//45
f 40//46 51//46 52//46 37//46
f 36//47 33//47 46//47 47//47
f 53//48 54//48 55//48 56//48
f 57//49 58//49 59//49 60//49
f 61//50 62//50 57//50 60//50
f 63//51 64//51 62//51 61//51
f 54//52 59//52 58//52 55//52
f 51//53 65//53 66//53 52//53
f 50//54 49//54 67//54 68//54
f 68//55 67//55 69//55 70//55
f 65//56 71//56 72//56 66//56
f 72//57 71//57 70//57 69//57
f 63//58 61//58 65//58 51//58
f 58//59 69//59 67//59 55//59
f 58//60 57//60 72//60 69//60
f 55//61 67//61 49//61 56//61
f 61//62 60//62 71//62 65//62
f 29//63 56//63 49//63 41//63
f 57//64 62//64 66//64 72//64
f 62//65 64//65 52//65 66//65
f 54//66 68//66 70//66 59//66
f 53//67 50//67 68//67 54//67
f 26//41 63//41 73//41 74//41
f 60//68 59//68 70//68 71//68
f 75//69 76//69 77//69 78//69
f 79//70 80//70 81//70 82//70
f 83//71 84//71 79//71 82//71
f 84//72 85//72 80//72 79//72
f 85//73 86//73 81//73 80//73
f 86//74 83//74 82//74 81//74
f 77//75 76//75 83//75 86//75
f 78//76 77//76 86//76 85//76
f 75//77 78//77 85//77 84//77
f 76//78 75//78 84//78 83//78
f 37//79 52//79 64//79 25//79
f 25//41 64//41 63//41 26//41
f 63//80 51//80 87//80 73//80
f 32//46 53//46 56//81 29//81
f 74//82 73//82 87//82 88//82
f 89//83 90//83 91//83 92//83
f 53//46 32//46 92//46 91//46
f 51//46 40//46 88//46 87//46
f 40//84 26//84 74//84 88//84
f 50//85 53//85 91//85 90//85
f 42//41 50//41 90//41 89//41
f 32//86 42//86 89//86 92//86
usemtl 1A1A1A
f 93//87 94//87 95//87 96//87
f 97//41 98//41 99//41 100//41
f 101//88 102//88 103//88 104//88
f 105//46 106//46 107//46 108//46
f 109//89 110//89 111//89 112//89
f 113//5 114//5 111//5 110//5
f 115//88 116//88 117//88 118//88
f 94//5 119//5 120//5 95//5
f 121//88 122//88 123//88 124//88
f 96//90 95//90 120//90 125//90
f 126//88 127//88 128//88 129//88
f 130//88 131//88 132//88 133//88
f 134//91 135//91 136//91 137//91
f 114//92 138//92 112//92 111//92
f 139//5 140//5 141//5 142//5
f 94//93 93//93 100//93 99//93
f 143//88 144//88 145//88 146//88
f 99//5 141//5 119//5 94//5
f 106//94 105//94 138//94 114//94
f 140//5 106//5 114//5 113//5
f 106//5 140//5 139//5 107//5
f 137//95 136//95 147//95 148//95
f 135//96 134//96 149//96 150//96
f 110//97 109//97 125//97 120//97
f 151//88 152//88 153//88 154//88
f 119//5 141//5 140//5 113//5
f 155//98 156//98 157//98 158//98
f 159//88 160//88 161//88 162//88
f 141//5 99//5 98//5 142//5
f 113//5 110//5 120//5 119//5
f 163//99 164//99 150//99 149//99
f 165//100 166//100 167//100 168//100
f 150//101 169//5 170//5 135//101
f 171//88 172//88 173//88 174//88
f 175//88 176//88 177//88 178//88
f 179//5 169//5 150//101 164//5
f 180//102 179//102 164//102 163//102
f 181//88 182//88 183//88 184//88
f 179//46 180//46 108//46 107//46
f 147//5 170//5 142//5 98//5
f 169//5 179//5 107//5 139//5
f 185//88 186//88 187//88 188//88
f 139//5 142//5 170//5 169//5
f 189//88 190//88 191//88 192//88
f 98//41 97//41 148//41 147//41
f 170//5 147//5 136//103 135//101
f 100//104 193//104 102//104 101//104
f 193//105 194//105 103//105 102//105
f 194//106 97//106 104//106 103//106
f 97//107 100//107 101//107 104//107
f 193//108 100//108 116//108 115//108
f 100//109 93//109 117//109 116//109
f 93//110 195//110 118//110 117//110
f 195//111 193//111 115//111 118//111
f 196//105 197//105 122//105 121//105
f 197//112 194//112 123//112 122//112
f 194//113 193//113 124//113 123//113
f 193//114 196//114 121//114 124//114
f 195//115 93//115 127//115 126//115
f 93//116 96//116 128//116 127//116
f 96//117 125//117 129//117 128//117
f 125//118 195//118 126//118 129//118
f 138//119 198//119 131//119 130//119
f 198//120 109//120 132//120 131//120
f 109//121 112//121 133//121 132//121
f 112//122 138//122 130//122 133//122
f 105//123 196//123 144//123 143//123
f 196//124 198//124 145//124 144//124
f 198//125 138//125 146//125 145//125
f 138//126 105//126 143//126 146//126
f 198//127 196//127 152//127 151//127
f 196//128 193//128 153//128 152//128
f 193//129 195//129 154//129 153//129
f 195//130 198//130 151//130 154//130
f 148//131 199//131 156//131 155//131
f 199//132 134//132 157//132 156//132
f 134//133 137//133 158//133 157//133
f 137//134 148//134 155//134 158//134
f 109//135 198//135 160//135 159//135
f 198//136 195//136 161//136 160//136
f 195//137 125//137 162//137 161//137
f 125//138 109//138 159//138 162//138
f 196//139 105//139 166//139 165//139
f 105//140 108//140 167//140 166//140
f 108//141 197//141 168//141 167//141
f 197//113 196//113 165//113 168//113
f 200//132 149//132 172//132 171//132
f 149//142 134//142 173//142 172//142
f 134//143 199//143 174//143 173//143
f 199//144 200//144 171//144 174//144
f 200//145 180//145 176//145 175//145
f 180//146 163//146 177//146 176//146
f 163//147 149//147 178//147 177//147
f 149//148 200//148 175//148 178//148
f 199//149 148//149 182//149 181//149
f 148//113 97//113 183//113 182//113
f 97//150 194//150 184//150 183//150
f 194//151 199//151 181//151 184//151
f 200//152 199//152 186//152 185//152
f 199//143 194//143 187//143 186//143
f 194//153 197//153 188//153 187//153
f 197//151 200//151 185//151 188//151
f 180//154 200//154 190//154 189//154
f 200//148 197//148 191//148 190//148
f 197//155 108//155 192//155 191//155
f 108//156 180//156 189//156 192//156
