# Blender v2.81 (sub 16) OBJ File: 'airport.blend'
# www.blender.org
mtllib 13.mtl
o clouds_01_Plane.013_clouds_01_Plane.015
v -2.839518 65.468498 4.358824
v -3.093812 65.116722 4.022486
v -2.685554 65.379608 3.528735
v -2.566332 65.937218 4.527634
v -3.104220 65.588768 4.418625
v -2.818146 66.084259 4.587337
v -3.331139 65.195724 4.082091
v -3.340727 65.757866 4.359216
v -3.529807 65.867035 3.547632
v -3.518222 65.361755 4.022486
v -3.069564 66.231995 4.527830
v -2.798765 66.705490 4.386149
v -3.325821 66.365623 3.581486
v -2.975190 66.807343 3.542898
v -3.283542 66.354996 2.860887
v -3.010581 66.827782 2.917456
v -3.249181 66.321381 2.489458
v -3.556401 65.882385 2.923109
v -3.516073 65.859108 2.489458
v -3.564431 65.457390 2.975348
v -3.276159 65.290962 2.975348
v -3.625029 65.207214 3.466150
v -3.724818 65.497543 2.547488
v -3.673756 65.110924 3.296157
v -4.015162 65.032417 2.642372
v -3.441898 65.003891 3.332544
v -3.825375 64.850670 3.367249
v -4.050119 64.500320 3.229926
v -3.588125 64.750618 3.415998
v -4.088947 64.864990 2.685322
v -4.183698 64.678123 2.419715
v -4.230328 64.304024 2.972594
v -4.312389 64.247673 2.675743
v -3.976853 64.077316 3.044758
v -4.024346 63.994949 2.711825
v -3.818780 64.351105 3.302089
v -3.653782 63.971153 2.972594
v -3.573888 64.225372 3.229926
v -3.247980 64.372597 2.685832
v -3.661462 63.871857 2.675743
v -3.678576 63.928211 2.484859
v -3.357979 64.197990 2.420090
v -3.580330 64.098381 2.164616
v -3.174482 64.485916 2.366160
v -2.906992 64.999153 2.317060
v -3.139543 64.520180 2.642807
v -3.348143 64.500542 2.086633
v -3.033304 65.045860 2.086633
v -3.666486 64.614891 2.086633
v -3.321577 65.212296 2.086633
v -3.924705 64.833382 2.086633
v -3.904656 64.202370 2.164187
v -4.004823 64.028870 2.484859
v -4.156849 64.431290 2.164529
v -4.255121 64.261078 2.484859
v -4.026362 64.980690 2.365973
v -3.609849 65.378723 2.086633
v -3.713360 65.464706 2.317061
v -3.378396 65.779617 2.086633
v -3.090123 65.613182 2.086633
v -3.493261 65.845932 2.288046
v -3.111503 66.241890 2.086633
v -3.226368 66.308205 2.288046
v -2.832575 66.725006 2.086633
v -2.823231 66.075455 2.086633
v -2.544303 66.558571 2.086633
v -2.534958 65.909019 2.086633
v -2.420001 65.842651 2.288045
v -2.801851 65.446747 2.086633
v -2.256030 66.392143 2.086633
v -2.141073 66.325768 2.303127
v -2.036612 66.772186 2.086633
v -1.933009 66.686150 2.317060
v -1.720414 67.319862 2.086633
v -2.324884 66.938622 2.086633
v -2.613157 67.105057 2.086633
v -1.978633 67.538345 2.086633
v -2.296941 67.652756 2.086633
v -1.739529 67.952484 2.165250
v -1.488797 67.721031 2.167186
v -1.631792 68.139091 2.484859
v -2.065375 68.053841 2.167079
v -1.967884 68.222702 2.484859
v -2.291709 67.953964 2.421180
v -1.984981 68.278870 2.675743
v -2.405822 67.778816 2.686148
v -2.475474 67.667122 2.366148
v -2.739377 67.151703 2.317061
v -2.514753 67.631378 2.642796
v -2.773543 67.145210 2.547488
v -2.399806 67.315491 3.326464
v -2.658575 67.026390 2.975348
v -2.197690 67.158928 3.359391
v -2.235146 67.652390 3.384201
v -2.007988 67.487503 3.438534
v -2.039225 67.983299 3.272302
v -1.801109 67.845825 3.344466
v -1.992609 68.179878 2.972594
v -1.657310 68.094894 3.044758
v -1.610732 68.175461 2.711825
v -1.416064 67.847008 2.972594
v -1.562994 67.708351 3.272302
v -1.560128 67.297455 2.686672
v -1.334054 67.903061 2.675743
v -1.391339 67.889832 2.484859
v -1.464048 67.479546 2.421580
v -1.620880 67.176666 2.366334
v -1.633211 67.129128 2.643229
v -1.961044 67.062172 3.326464
v -1.921643 66.653366 2.547488
v -2.118352 66.312653 2.519621
v -2.082030 66.693520 2.975348
v -2.021432 66.943703 3.466150
v -2.090796 66.296745 2.917456
v -2.370302 66.859955 2.975348
v -2.217852 67.124008 3.470332
v -2.472210 67.203957 3.466150
v -2.276735 67.022018 4.099546
v -2.515048 67.099312 4.039941
v -2.530525 66.582436 4.445755
v -2.090638 66.854279 4.039941
v -2.289840 66.411659 4.386148
v -2.117210 66.311996 3.540855
v -2.320639 65.785286 3.581485
v -2.359738 65.830917 2.860887
v -2.636616 65.351349 2.923108
v -2.397280 65.829536 2.489458
v -2.664173 65.367264 2.489458
v -2.686893 65.380379 2.288045
v -2.872917 65.005707 2.547488
v -2.987886 65.124527 2.975348
v -3.233271 64.856613 3.296157
v -3.174250 64.946953 3.466150
v -3.429543 65.025291 3.470332
v -3.382847 64.595177 3.367249
v -1.751608 67.373222 3.384201
v -2.970253 66.804497 2.519622
v -2.947441 66.791328 2.303127
vn -0.0762 -0.6352 0.7686
vn -0.0631 -0.6370 0.7683
vn -0.0748 -0.6285 0.7742
vn -0.0643 -0.6399 0.7658
vn 0.6701 -0.7196 0.1820
vn 0.6770 -0.7173 0.1646
vn 0.6714 -0.7213 0.1700
vn 0.6691 -0.7226 0.1734
vn 0.7497 -0.6114 0.2531
vn 0.7418 -0.6199 0.2557
vn 0.7518 -0.6088 0.2532
vn 0.7413 -0.6207 0.2555
vn 0.0352 -0.3450 0.9379
vn 0.0259 -0.3554 0.9344
vn 0.0429 -0.3582 0.9327
vn 0.0369 -0.3474 0.9370
vn -0.3213 -0.1376 0.9369
vn -0.3371 -0.1405 0.9309
vn -0.3144 -0.1526 0.9369
vn -0.3165 -0.1409 0.9381
vn -0.5212 -0.3761 0.7661
vn -0.5040 -0.3880 0.7716
vn -0.5205 -0.3684 0.7703
vn -0.5155 -0.3866 0.7647
vn -0.8899 0.3585 0.2821
vn -0.8833 0.3766 0.2793
vn -0.8840 0.3696 0.2863
vn -0.8817 0.3797 0.2802
vn -0.9607 0.1697 0.2198
vn -0.9642 0.1637 0.2087
vn -0.9635 0.1708 0.2062
vn -0.9636 0.1730 0.2040
vn -0.0601 0.3209 0.9452
vn -0.0606 0.3082 0.9494
vn -0.0551 0.3085 0.9496
vn -0.0441 0.3128 0.9488
vn -0.7742 0.5743 0.2660
vn -0.7653 0.5840 0.2705
vn -0.7745 0.5719 0.2702
vn -0.7658 0.5853 0.2662
vn -0.8238 0.5668 -0.0113
vn -0.8304 0.5572 -0.0046
vn -0.8279 0.5609 0.0054
vn -0.8134 0.5816 0.0115
vn -0.8958 0.4442 -0.0145
vn -0.9024 0.4306 -0.0137
vn -0.9017 0.4321 0.0146
vn -0.8966 0.4428 -0.0059
vn -0.8469 0.5118 -0.1444
vn -0.8572 0.4999 -0.1234
vn -0.8580 0.4989 -0.1221
vn -0.8549 0.5020 -0.1308
vn -0.8619 0.4933 -0.1173
vn -0.8750 0.4684 -0.1227
vn -0.8639 0.4905 -0.1144
vn -0.8635 0.4914 -0.1134
vn -0.9500 0.2800 0.1383
vn -0.9492 0.2814 0.1409
vn -0.9490 0.2863 0.1319
vn -0.9510 0.2783 0.1347
vn -0.9950 0.0997 -0.0001
vn -0.9950 0.0991 -0.0085
vn -0.9959 0.0895 -0.0122
vn -0.9957 0.0920 -0.0051
vn 0.2862 0.6394 0.7136
vn -0.5119 -0.7150 -0.4761
vn -0.5114 -0.7095 -0.4849
vn -0.5069 -0.7116 -0.4865
vn -0.5041 -0.7193 -0.4781
vn -0.7655 0.5489 0.3357
vn -0.7937 0.5077 0.3351
vn -0.0368 0.3075 0.9508
vn -0.8471 0.4117 0.3361
vn -0.3106 -0.1270 0.9420
vn -0.8986 0.4383 -0.0173
vn -0.9307 0.3346 0.1479
vn -0.8683 0.3813 0.3172
vn -0.6665 -0.6675 0.3321
vn -0.7019 -0.6595 0.2691
vn -0.6681 -0.7031 0.2434
vn -0.6666 -0.6884 0.2860
vn -0.5986 -0.3845 0.7027
vn -0.5626 -0.4660 0.6829
vn -0.5003 -0.4375 0.7472
vn -0.5426 -0.3708 0.7537
vn -0.2835 -0.9014 0.3272
vn -0.3040 -0.9139 0.2689
vn -0.2592 -0.9351 0.2415
vn -0.2598 -0.9217 0.2880
vn -0.0270 -0.6461 0.7628
vn -0.1041 -0.7240 0.6819
vn -0.0416 -0.6701 0.7411
vn -0.1020 -0.6399 0.7617
vn 0.7704 -0.5567 0.3108
vn 0.7611 -0.6315 0.1482
vn -0.3115 -0.9290 -0.2000
vn -0.3519 -0.9093 -0.2223
vn -0.3121 -0.9277 -0.2048
vn -0.3095 -0.9291 -0.2026
vn 0.5948 -0.7657 -0.2449
vn 0.7231 -0.5220 -0.4523
vn 0.8299 -0.5579 -0.0069
vn 0.7516 -0.4364 -0.4946
vn 0.8741 -0.4791 -0.0804
vn 0.0000 -0.0010 -1.0000
vn -0.0000 0.0000 -1.0000
vn 0.0004 -0.0008 -1.0000
vn -0.0529 -0.1577 -0.9861
vn 0.0003 0.0009 -1.0000
vn -0.1100 -0.1247 -0.9861
vn -0.2565 -0.8165 -0.5172
vn -0.5789 -0.6304 -0.5172
vn -0.9608 0.1259 -0.2471
vn -0.8102 0.3616 -0.4614
vn -0.6480 -0.7350 -0.1997
vn -0.6795 -0.7013 -0.2158
vn -0.6498 -0.7325 -0.2030
vn -0.6472 -0.7343 -0.2048
vn -0.7497 0.4335 -0.5001
vn -0.7460 0.4116 -0.5235
vn -0.7471 0.4104 -0.5229
vn -0.7451 0.4137 -0.5231
vn -0.7462 0.4125 -0.5225
vn -0.0010 0.0001 -1.0000
vn -0.0005 0.0008 -1.0000
vn -0.7223 0.4187 -0.5504
vn -0.7231 0.4179 -0.5500
vn -0.7233 0.4176 -0.5500
vn -0.7236 0.4167 -0.5502
vn -0.7269 0.4288 -0.5364
vn -0.7275 0.4284 -0.5359
vn -0.0006 -0.0006 -1.0000
vn 0.7337 -0.4167 -0.5366
vn 0.7346 -0.4157 -0.5362
vn 0.7348 -0.4153 -0.5363
vn 0.7219 -0.4186 -0.5510
vn 0.7224 -0.4177 -0.5511
vn 0.7233 -0.4166 -0.5507
vn 0.7231 -0.4175 -0.5503
vn -0.0001 -0.0003 -1.0000
vn 0.7489 -0.4227 -0.5104
vn 0.7481 -0.4237 -0.5108
vn 0.7538 -0.4327 -0.4946
vn -0.0000 0.0003 -1.0000
vn 0.1151 0.1259 -0.9853
vn 0.0516 0.1625 -0.9854
vn 0.5946 0.6054 -0.5291
vn 0.2270 0.8176 -0.5291
vn -0.5896 0.7690 -0.2470
vn -0.7171 0.5235 -0.4602
vn -0.7552 0.6386 0.1480
vn -0.8275 0.5613 -0.0158
vn -0.8778 0.4708 -0.0879
vn -0.7502 0.4325 -0.5001
vn -0.8619 0.3858 0.3292
vn -0.8540 0.4177 0.3102
vn -0.4229 -0.5702 0.7043
vn -0.2469 -0.0673 0.9667
vn -0.0534 0.3144 0.9478
vn -0.7769 0.5584 0.2911
vn 0.1483 0.7937 0.5899
vn 0.1093 0.7685 0.6305
vn 0.1566 0.7511 0.6413
vn 0.1847 0.7617 0.6210
vn -0.7604 0.5910 0.2694
vn 0.2028 0.9371 0.2841
vn 0.2231 0.9235 0.3120
vn 0.2348 0.9343 0.2682
vn 0.2052 0.9458 0.2517
vn 0.7085 0.6468 0.2822
vn 0.7064 0.6336 0.3153
vn 0.7320 0.6240 0.2735
vn 0.7119 0.6550 0.2533
vn 0.6058 0.5356 0.5883
vn 0.5718 0.5286 0.6274
vn 0.6027 0.4796 0.6377
vn 0.6260 0.4958 0.6019
vn 0.8901 -0.3711 0.2647
vn 0.9274 -0.3435 0.1483
vn 0.6861 0.6954 -0.2137
vn 0.6869 0.6962 -0.2087
vn 0.7082 0.6714 -0.2185
vn 0.6885 0.6936 -0.2120
vn 0.9605 -0.1324 -0.2449
vn 0.8154 -0.3629 -0.4511
vn 0.8992 -0.4376 -0.0055
vn 0.8519 -0.5174 -0.0803
vn 0.7923 -0.5305 0.3014
vn 0.7715 -0.5465 0.3258
vn 0.8645 -0.4883 -0.1190
vn 0.8630 -0.4919 -0.1150
vn 0.8624 -0.4926 -0.1167
vn 0.8614 -0.4924 -0.1250
vn 0.9461 -0.2812 0.1608
vn 0.9455 -0.2825 0.1620
vn 0.9451 -0.2888 0.1526
vn 0.9482 -0.2762 0.1570
vn 0.5010 0.7232 -0.4754
vn 0.5112 0.7180 -0.4724
vn 0.5197 0.7034 -0.4849
vn 0.5031 0.7079 -0.4957
vn 0.9942 -0.1078 0.0031
vn 0.9930 -0.1179 -0.0060
vn 0.9952 -0.0969 -0.0133
vn 0.9952 -0.0976 -0.0009
vn -0.2824 -0.6513 0.7043
vn 0.3557 0.8019 -0.4801
vn 0.3712 0.7996 -0.4720
vn 0.3797 0.7930 -0.4765
vn 0.3594 0.7898 -0.4970
vn 0.2626 0.9481 0.1791
vn 0.2699 0.9417 0.2006
vn 0.2808 0.9418 0.1851
vn 0.2764 0.9437 0.1819
vn 0.6659 0.7221 0.1876
vn 0.6721 0.7127 0.2008
vn 0.6806 0.7092 0.1838
vn 0.6777 0.7124 0.1821
vn 0.0542 0.6160 0.7859
vn 0.0576 0.6123 0.7885
vn 0.0458 0.6129 0.7889
vn 0.0625 0.6049 0.7938
vn 0.5008 0.3598 0.7873
vn 0.5029 0.3547 0.7882
vn 0.4923 0.3576 0.7935
vn 0.5075 0.3449 0.7896
vn 0.9625 -0.2045 0.1783
vn 0.9664 -0.1926 0.1703
vn 0.9622 -0.2036 0.1807
vn 0.9647 -0.2036 0.1669
vn 0.8909 -0.3666 0.2683
vn 0.8876 -0.3797 0.2607
vn 0.8873 -0.3722 0.2724
vn 0.8848 -0.3818 0.2671
vn 0.2944 0.1166 0.9485
vn 0.2964 0.1025 0.9496
vn 0.2984 0.1032 0.9488
vn 0.3101 0.1061 0.9448
vn 0.8999 -0.4355 -0.0226
vn 0.9081 -0.4181 -0.0237
vn 0.9061 -0.4231 0.0038
vn 0.9006 -0.4345 -0.0147
vn 0.8069 -0.5905 -0.0147
vn 0.8105 -0.5858 -0.0047
vn 0.8099 -0.5866 -0.0017
vn 0.7973 -0.6036 0.0081
vn 0.8542 -0.5101 -0.1007
vn 0.8611 -0.5023 -0.0792
vn 0.8615 -0.5017 -0.0779
vn 0.8608 -0.5031 -0.0770
vn 0.8642 -0.4954 -0.0879
vn 0.8770 -0.4720 -0.0896
vn 0.8672 -0.4913 -0.0817
vn 0.8662 -0.4931 -0.0814
vn 0.8592 -0.4944 -0.1316
vn 0.8590 -0.4952 -0.1298
vn 0.8591 -0.4951 -0.1296
vn 0.8622 -0.4908 -0.1250
vn 0.8534 -0.5075 -0.1192
vn 0.8531 -0.5076 -0.1207
vn 0.8528 -0.5077 -0.1221
vn 0.8541 -0.5060 -0.1207
vn 0.7295 -0.6663 0.1543
vn 0.7295 -0.6665 0.1538
vn 0.7314 -0.6660 0.1465
vn 0.7318 -0.6643 0.1523
vn 0.8552 -0.3976 0.3325
vn 0.4106 0.5676 0.7136
vn -0.3669 -0.7993 -0.4760
vn -0.3635 -0.7967 -0.4829
vn -0.3602 -0.7959 -0.4867
vn -0.3556 -0.8010 -0.4817
vn 0.6235 -0.7814 0.0262
vn 0.6171 -0.7865 0.0259
vn 0.6148 -0.7883 0.0237
vn 0.6173 -0.7864 0.0242
vn -0.2529 -0.9175 0.3071
vn -0.2613 -0.9171 0.3010
vn -0.2530 -0.9191 0.3019
vn -0.2525 -0.9180 0.3057
vn -0.6677 -0.6783 0.3069
vn -0.6712 -0.6761 0.3041
vn -0.6677 -0.6803 0.3022
vn -0.6649 -0.6806 0.3077
vn 0.2847 0.1219 0.9508
vn 0.8378 -0.4374 0.3267
vn 0.7844 -0.5268 0.3273
vn 0.0453 -0.3325 0.9420
vn 0.7302 -0.4404 -0.5223
vn 0.7289 -0.4411 -0.5236
vn 0.7287 -0.4410 -0.5239
vn 0.7299 -0.4394 -0.5236
vn -0.6545 0.7343 0.1802
vn -0.6530 0.7392 0.1649
vn -0.6637 0.7296 0.1647
vn -0.6451 0.7441 0.1736
vn -0.5805 0.8143 -0.0009
vn -0.5670 0.8237 0.0013
vn -0.5677 0.8232 -0.0096
vn -0.5724 0.8197 -0.0194
vn 0.0651 -0.2475 0.9667
vn 0.8732 -0.3970 0.2828
vn 0.2990 0.1110 0.9478
vn 0.2564 0.9432 -0.2115
vn 0.2584 0.9432 -0.2088
vn 0.2874 0.9303 -0.2280
vn 0.2589 0.9419 -0.2138
vn -0.7045 0.6949 0.1444
vn -0.7031 0.6975 0.1382
vn -0.7070 0.6943 0.1343
vn -0.7061 0.6936 0.1427
vn -0.8584 0.4995 -0.1170
vn -0.8564 0.5027 -0.1178
vn -0.8572 0.5015 -0.1170
vn -0.8597 0.4952 -0.1256
vn -0.7407 0.4372 -0.5101
vn -0.7401 0.4373 -0.5108
vn -0.7404 0.4374 -0.5104
vn -0.8580 0.4970 -0.1302
vn -0.8586 0.4963 -0.1282
vn -0.8656 0.4858 -0.1214
vn -0.8657 0.4864 -0.1179
vn -0.8644 0.4879 -0.1211
vn -0.8658 0.4852 -0.1220
vn -0.8466 0.5248 -0.0880
usemtl FFFFFF
s 1
f 2//1 1//2 5//3 7//4
f 1//5 2//6 133//7 3//8
f 4//9 1//10 3//11 124//12
f 6//13 5//14 1//15 4//16
f 11//17 8//18 5//19 6//20
f 7//21 5//22 8//23 10//24
f 8//25 11//26 13//27 9//28
f 8//29 9//30 22//31 10//32
f 12//33 11//34 6//35 120//36
f 11//37 12//38 14//39 13//40
f 13//41 14//42 16//43 15//44
f 9//45 13//46 15//47 18//48
f 15//49 16//50 137//51 17//52
f 18//53 15//54 17//55 19//56
f 19//57 23//58 20//59 18//60
f 20//61 22//62 9//63 18//64
f 26//65 21//65 20//65 24//65
f 21//66 134//67 22//68 20//69
f 20//70 23//70 25//70 24//70
f 27//71 24//71 25//71 30//71
f 24//72 27//72 29//72 26//72
f 28//73 27//73 30//73
f 36//74 29//74 27//74 28//74
f 56//75 31//75 30//75 25//75
f 33//76 32//76 30//76 31//76
f 32//77 28//77 30//77
f 35//78 34//79 32//80 33//81
f 36//82 28//83 32//84 34//85
f 40//86 37//87 34//88 35//89
f 38//90 36//91 34//92 37//93
f 37//94 39//94 38//94
f 40//95 42//95 39//95 37//95
f 41//96 40//97 35//98 53//99
f 41//100 43//100 42//100 40//100
f 43//101 47//101 44//101 42//101
f 42//102 44//102 46//102 39//102
f 45//103 44//103 47//103 48//103
f 130//104 46//104 44//104 45//104
f 48//105 47//106 49//106 50//107
f 47//108 43//108 52//108 49//108
f 50//107 49//106 51//106 57//109
f 49//110 52//110 54//110 51//110
f 43//111 41//111 53//111 52//111
f 52//112 53//112 55//112 54//112
f 55//113 33//113 31//113 54//113
f 51//114 54//114 31//114 56//114
f 53//115 35//116 33//117 55//118
f 58//119 57//119 51//119 56//119
f 59//120 57//121 58//122 61//123
f 60//124 50//107 57//109 59//125
f 59//125 62//106 65//106 60//124
f 61//126 63//127 62//128 59//129
f 63//130 138//131 64//131 62//131
f 62//106 64//106 66//106 65//106
f 65//106 66//106 70//106 67//106
f 60//124 65//106 67//106 69//132
f 71//133 68//134 67//134 70//135
f 68//136 129//137 69//138 67//139
f 70//106 66//106 75//106 72//140
f 70//141 72//141 73//142 71//141
f 73//143 72//143 74//143 107//143
f 72//140 75//106 77//106 74//106
f 66//106 64//106 76//144 75//106
f 75//106 76//144 78//106 77//106
f 80//145 74//145 77//145 79//145
f 79//146 77//146 78//146 82//146
f 80//147 79//147 81//147 105//147
f 79//148 82//148 83//148 81//148
f 83//149 82//149 84//149 85//149
f 82//150 78//150 87//150 84//150
f 85//151 84//151 86//151 98//151
f 84//152 87//152 89//152 86//152
f 90//153 89//153 87//153 88//153
f 88//154 87//154 78//154 76//154
f 92//155 91//155 89//155 90//155
f 91//156 94//156 86//156 89//156
f 93//157 91//157 92//157 115//157
f 93//158 95//158 94//158 91//158
f 97//159 96//159 94//159 95//159
f 86//160 94//160 96//160
f 97//161 99//162 98//163 96//164
f 98//165 86//165 96//165
f 100//166 85//167 98//168 99//169
f 104//170 100//171 99//172 101//173
f 102//174 101//175 99//176 97//177
f 101//178 102//178 103//178
f 104//179 101//179 103//179 106//179
f 105//180 81//181 100//182 104//183
f 105//184 104//184 106//184 80//184
f 74//185 80//185 106//185 107//185
f 107//186 106//186 103//186 108//186
f 110//187 73//187 107//187 108//187
f 136//188 109//188 108//188 103//188
f 112//189 110//189 108//189 109//189
f 71//190 73//191 110//192 111//193
f 111//194 110//195 112//196 114//197
f 112//198 115//199 116//200 113//201
f 112//202 113//203 123//204 114//205
f 109//206 93//206 115//206 112//206
f 115//207 92//208 117//209 116//210
f 116//211 117//212 119//213 118//214
f 113//215 116//216 118//217 121//218
f 118//219 119//220 12//221 120//222
f 121//223 118//224 120//225 122//226
f 122//227 123//228 113//229 121//230
f 122//231 4//232 124//233 123//234
f 120//235 6//236 4//237 122//238
f 123//239 124//240 125//241 114//242
f 124//243 3//244 126//245 125//246
f 125//247 126//248 128//249 127//250
f 114//251 125//252 127//253 111//254
f 127//255 128//256 129//257 68//258
f 111//193 127//255 68//258 71//190
f 129//259 128//260 130//261 45//262
f 128//263 126//264 131//265 130//266
f 131//267 132//267 46//267 130//267
f 132//268 131//268 21//268 26//268
f 131//269 133//270 134//271 21//272
f 131//273 126//274 3//275 133//276
f 133//277 2//278 7//279 134//280
f 134//281 7//282 10//283 22//284
f 26//285 29//285 135//285 132//285
f 132//286 135//286 39//286 46//286
f 39//287 135//287 38//287
f 38//288 135//288 29//288 36//288
f 69//289 129//290 45//291 48//292
f 12//293 119//294 117//295 14//296
f 92//297 16//298 14//299 117//300
f 109//301 136//301 95//301 93//301
f 102//302 136//302 103//302
f 102//303 97//303 95//303 136//303
f 81//304 83//305 85//306 100//307
f 137//308 16//309 92//310 90//311
f 138//312 137//51 90//313 88//314
f 17//52 137//51 138//312 63//315
f 64//316 138//317 88//318 76//316
f 69//132 48//105 50//107 60//124
f 19//319 17//52 63//315 61//320
f 61//321 58//322 23//323 19//324
f 23//325 58//325 56//325 25//325
