# Blender v2.81 (sub 16) OBJ File: 'airport.blend'
# www.blender.org
mtllib 2.mtl
o clouds_01_Plane.003
v -0.065446 66.319115 7.171113
v 0.197493 66.319115 5.943415
v -0.108508 65.403564 5.850852
v -0.131024 65.680496 6.673670
v -0.493431 67.933647 3.810554
v -0.493431 68.582687 3.810554
v -0.985742 68.582687 3.810554
v -0.985741 67.933647 3.810554
v -0.493426 65.315109 5.857038
v -0.878345 65.403564 5.850852
v -0.855830 65.680496 6.673670
v -0.493427 65.606186 6.761827
v -0.493346 63.555546 4.735209
v -1.049171 63.666233 4.681845
v -0.985735 63.799099 5.120886
v -0.493425 63.696167 5.227615
v -0.493427 65.768822 5.124959
v -0.985738 65.768822 5.124960
v -0.086772 64.183792 5.501478
v -0.493425 64.163750 5.608208
v -0.493426 64.846024 5.776678
v -0.115552 64.798737 5.704578
v -0.900078 64.183792 5.501478
v -0.871299 64.798737 5.704579
v -1.181904 65.668060 4.151355
v -1.224881 64.816643 4.223696
v -0.985737 64.703133 3.810554
v -0.985738 65.634476 3.810554
v -0.985735 63.725761 4.399528
v -0.985736 64.016449 3.925761
v -1.202656 64.312744 4.303180
v -0.493431 68.725113 6.787643
v -0.493429 67.974403 7.299683
v -0.927999 67.933647 7.211526
v -0.855834 68.647881 6.699487
v -0.001120 68.448341 5.124959
v 0.281067 67.933647 5.039337
v 0.235956 67.933647 5.961341
v -0.108512 68.813599 5.850852
v 0.234006 67.933647 4.450941
v 0.234005 68.515518 4.492156
v -0.493425 63.909729 3.925255
v -0.493425 63.613430 4.399528
v -0.001117 65.634476 3.810553
v -0.493428 65.634476 3.810554
v -0.493426 64.614235 3.810554
v -0.001116 64.703186 3.810553
v -1.229297 67.933647 5.964362
v -0.878350 68.813599 5.850852
v -0.985741 68.448341 5.124960
v -1.289739 67.933647 5.039337
v -1.220866 67.933647 4.450942
v -1.220867 68.515518 4.492157
v -0.869556 65.244209 5.599433
v -1.248789 64.891182 4.632489
v -1.220863 65.701645 4.492157
v -0.493426 65.278564 5.653250
v -1.181907 67.933647 4.130748
v -1.181908 68.549103 4.151355
v 0.234009 65.701645 4.492156
v 0.195207 65.668060 4.151355
v 0.232132 64.812874 4.223973
v 0.251543 64.882599 4.633132
v -0.117297 65.244209 5.599433
v -0.001117 65.768822 5.124959
v 0.195204 67.933647 4.130747
v 0.195203 68.549103 4.151355
v -0.058860 67.933647 7.211526
v -0.131027 68.647888 6.699487
v 0.281069 66.319115 5.047697
v -0.493431 68.899284 5.857038
v -0.493355 70.695015 4.735209
v -0.493434 70.557373 5.227615
v -0.985744 70.418266 5.120886
v -1.049180 70.550705 4.681845
v -0.493431 68.448341 5.124959
v 0.232257 69.408203 4.224231
v -0.001122 69.518005 3.810553
v -0.001121 68.582687 3.810553
v -0.493433 70.132011 5.670882
v -0.493432 69.520065 5.810009
v -0.906324 69.563286 5.729650
v -0.900086 70.132011 5.564153
v -0.985743 69.518051 3.810554
v -1.225040 69.404427 4.223954
v -0.985744 70.491402 4.399528
v -1.201785 69.907722 4.305346
v -0.985744 70.203026 3.929533
v 0.195206 66.319115 4.108442
v 0.234008 66.319115 4.406330
v -0.921409 66.319115 7.171693
v -1.244318 66.319115 5.971364
v -0.001123 70.203125 3.929691
v -0.001123 70.491402 4.399528
v -0.493434 70.632851 4.399528
v -0.493434 70.314163 3.926828
v -0.118773 69.010002 5.644258
v 0.251615 69.338196 4.633757
v -1.181905 66.319115 4.108442
v -1.220864 66.319115 4.406330
v -1.289737 66.319115 5.047697
v -1.248919 69.329605 4.633117
v -0.868089 69.009995 5.644258
v -0.493431 68.958931 5.692957
v -1.218424 69.598999 4.697233
v -0.086780 70.132011 5.564153
v -0.080540 69.563286 5.729650
v -0.493428 66.319115 3.810554
v -0.985739 66.319115 3.810554
v 0.195205 67.108582 4.108442
v -0.001119 67.108582 3.810553
v -0.001118 66.319115 3.810553
v -0.062153 67.121490 7.420783
v 0.364894 67.108582 6.021433
v 0.281068 67.138123 4.955671
v -1.181906 67.108582 4.108442
v -0.985740 67.108582 3.810554
v -0.924704 67.126915 7.421072
v -1.351751 67.108582 6.021433
v -1.289738 67.126228 4.955671
v -0.493429 67.108582 3.810554
v -0.001120 67.933647 3.810553
v -0.493428 67.123619 7.509084
v -0.493427 66.277412 7.259559
v 0.234007 67.108582 4.406330
v -1.220865 67.108582 4.406330
v -0.001123 70.418266 5.120885
v 0.209154 69.912125 4.305939
v 0.062470 70.550705 4.681844
v -0.493433 69.606903 3.810554
v 0.220750 69.607834 4.698009
v -0.001114 63.799099 5.120885
v -0.001114 63.725761 4.399528
v 0.062479 63.666237 4.681844
v 0.210021 64.308388 4.303735
v -0.001115 64.016373 3.925890
v 0.221793 64.613373 4.696766
v -1.219482 64.622162 4.696012
vn 0.9401 -0.2882 0.1820
vn 0.9450 -0.2827 0.1646
vn 0.9421 -0.2889 0.1700
vn 0.9408 -0.2913 0.1734
vn -0.0000 -0.0000 -1.0000
vn -0.0002 0.0003 -1.0000
vn -0.2390 -0.9212 0.3070
vn -0.2432 -0.9211 0.3041
vn -0.2381 -0.9230 0.3022
vn -0.2356 -0.9218 0.3077
vn -0.2435 -0.9113 0.3321
vn -0.2781 -0.9221 0.2691
vn -0.2270 -0.9430 0.2433
vn -0.2330 -0.9295 0.2860
vn -0.0859 -0.8752 -0.4761
vn -0.0882 -0.8701 -0.4849
vn -0.0832 -0.8697 -0.4865
vn -0.0769 -0.8749 -0.4781
vn 0.2055 -0.2653 0.9420
vn -0.2055 -0.2653 0.9420
vn -0.8660 0.0006 -0.5001
vn -0.8950 -0.3713 -0.2471
vn -0.2611 0.5605 0.7859
vn -0.2563 0.5591 0.7885
vn -0.2668 0.5537 0.7889
vn -0.2483 0.5551 0.7938
vn 0.9149 0.4038 0.0031
vn 0.9189 0.3944 -0.0060
vn 0.9103 0.4137 -0.0133
vn 0.9107 0.4131 -0.0009
vn -0.3261 -0.6323 0.7027
vn -0.2542 -0.6849 0.6829
vn -0.2145 -0.6290 0.7472
vn -0.2844 -0.5924 0.7537
vn 0.9599 0.2295 0.1608
vn 0.9601 0.2281 0.1620
vn 0.9629 0.2224 0.1526
vn 0.9593 0.2349 0.1570
vn -0.1861 -0.8354 -0.5172
vn 0.0005 -0.0008 -1.0000
vn 0.0008 -0.0005 -1.0000
vn -0.9340 0.3086 0.1802
vn -0.9351 0.3136 0.1649
vn -0.9396 0.3001 0.1647
vn -0.9307 0.3219 0.1736
vn -0.9098 0.4149 -0.0010
vn -0.9029 0.4299 0.0013
vn -0.9032 0.4290 -0.0096
vn -0.9056 0.4237 -0.0194
vn -0.9576 0.2495 0.1443
vn -0.9577 0.2525 0.1382
vn -0.9595 0.2478 0.1343
vn -0.9583 0.2476 0.1427
vn -0.0002 0.0009 -1.0000
vn -0.9374 0.0926 0.3357
vn -0.9956 0.0312 -0.0880
vn -0.0718 0.6969 0.7136
vn -0.9931 0.0034 -0.1170
vn -0.9925 0.0030 -0.1221
vn -0.9930 0.0072 -0.1178
vn -0.9931 0.0058 -0.1170
vn 0.9965 0.0222 -0.0804
vn 0.0718 0.6969 0.7136
vn 0.9928 0.0093 -0.1190
vn 0.9933 0.0055 -0.1150
vn 0.9932 0.0047 -0.1167
vn 0.9922 0.0042 -0.1250
vn 0.9358 0.3042 0.1783
vn 0.9332 0.3164 0.1703
vn 0.9351 0.3048 0.1807
vn 0.9373 0.3060 0.1669
vn 0.9306 -0.3650 0.0262
vn 0.9277 -0.3725 0.0259
vn 0.9266 -0.3753 0.0237
vn 0.9278 -0.3724 0.0242
vn -0.2467 0.9524 0.1791
vn -0.2371 0.9505 0.2007
vn -0.2276 0.9560 0.1851
vn -0.2324 0.9555 0.1819
vn -0.2929 0.9129 0.2842
vn -0.2685 0.9113 0.3120
vn -0.2639 0.9265 0.2682
vn -0.2952 0.9217 0.2518
vn -0.0929 0.8723 -0.4801
vn -0.0784 0.8781 -0.4720
vn -0.0677 0.8766 -0.4765
vn -0.0837 0.8637 -0.4970
vn 0.8691 0.0021 -0.4946
vn -0.2034 0.2456 0.9478
vn -0.8660 -0.0006 -0.5001
vn -0.8951 0.3712 -0.2470
vn 0.9928 -0.0129 -0.1192
vn 0.9926 -0.0131 -0.1208
vn 0.9924 -0.0133 -0.1221
vn 0.9926 -0.0111 -0.1208
vn 0.9650 -0.2123 0.1543
vn 0.9650 -0.2125 0.1538
vn 0.9664 -0.2110 0.1465
vn 0.9659 -0.2094 0.1523
vn -0.2685 0.7615 0.5899
vn -0.2896 0.7202 0.6305
vn -0.2399 0.7288 0.6413
vn -0.2209 0.7520 0.6210
vn -0.9168 -0.3334 0.2198
vn -0.9169 -0.3403 0.2087
vn -0.9198 -0.3339 0.2062
vn -0.9210 -0.3320 0.2040
vn 0.2122 0.8216 -0.5291
vn 0.9414 -0.0875 0.3258
vn -0.9925 -0.0120 -0.1213
vn -0.9930 -0.0116 -0.1179
vn -0.9926 -0.0096 -0.1211
vn -0.9925 -0.0127 -0.1220
vn -0.9627 -0.2325 0.1383
vn -0.9627 -0.2309 0.1408
vn -0.9650 -0.2265 0.1319
vn -0.9627 -0.2345 0.1347
vn 0.9965 -0.0221 -0.0803
vn -0.9393 -0.0968 0.3292
vn -0.9956 -0.0312 -0.0879
vn -0.0811 -0.7053 0.7043
vn -0.9116 -0.4112 -0.0001
vn -0.9113 -0.4117 -0.0085
vn -0.9072 -0.4204 -0.0122
vn -0.9083 -0.4182 -0.0051
vn -0.9733 0.1755 0.1480
vn 0.2034 0.2456 0.9478
vn -0.0009 -0.0004 -1.0000
vn -0.0009 0.0004 -1.0000
vn 0.8345 -0.0015 -0.5509
vn 0.8346 -0.0004 -0.5509
vn 0.8347 0.0007 -0.5507
vn 0.8350 0.0000 -0.5503
vn 0.9550 -0.1546 0.2531
vn 0.9524 -0.1660 0.2557
vn 0.9555 -0.1513 0.2532
vn 0.9523 -0.1668 0.2555
vn 0.9940 -0.1080 -0.0148
vn 0.9948 -0.1021 -0.0047
vn 0.9947 -0.1029 -0.0017
vn 0.9922 -0.1241 0.0081
vn -0.8439 0.0079 -0.5364
vn -0.8443 0.0072 -0.5359
vn -0.9576 0.1103 0.2660
vn -0.9548 0.1231 0.2705
vn -0.9567 0.1080 0.2702
vn -0.9559 0.1240 0.2662
vn -0.9968 0.0790 -0.0113
vn -0.9977 0.0674 -0.0046
vn -0.9974 0.0718 0.0054
vn -0.9952 0.0970 0.0115
vn 0.2030 -0.2812 0.9379
vn 0.2001 -0.2948 0.9344
vn 0.2163 -0.2887 0.9327
vn 0.2057 -0.2825 0.9370
vn 0.9948 -0.0146 -0.1007
vn 0.9969 -0.0045 -0.0790
vn 0.9970 -0.0037 -0.0779
vn 0.9970 -0.0053 -0.0770
vn -0.9893 0.0197 -0.1444
vn -0.9924 0.0044 -0.1234
vn -0.9914 0.0074 -0.1308
vn -0.2633 -0.5863 0.7661
vn -0.2425 -0.5881 0.7716
vn -0.2666 -0.5793 0.7703
vn -0.2531 -0.5926 0.7647
vn -0.9931 -0.0038 -0.1173
vn -0.9919 -0.0318 -0.1227
vn -0.9934 -0.0071 -0.1144
vn -0.9935 -0.0062 -0.1134
vn 0.9961 0.0031 -0.0879
vn 0.9955 0.0297 -0.0896
vn 0.9966 0.0081 -0.0816
vn 0.9967 0.0060 -0.0813
vn 0.1966 0.2482 0.9485
vn 0.2054 0.2369 0.9496
vn 0.2069 0.2386 0.9488
vn 0.2155 0.2469 0.9448
vn -0.0002 -0.0008 -1.0000
vn -0.9979 -0.0632 -0.0145
vn -0.9968 -0.0783 -0.0137
vn -0.9969 -0.0767 0.0146
vn -0.9979 -0.0648 -0.0059
vn -0.9499 -0.1345 0.2821
vn -0.9532 -0.1155 0.2793
vn -0.9503 -0.1219 0.2863
vn -0.9534 -0.1120 0.2802
vn -0.8349 0.0014 -0.5504
vn -0.8352 -0.0000 -0.5500
vn -0.8350 -0.0009 -0.5502
vn 0.9971 0.0728 -0.0226
vn 0.9955 0.0920 -0.0237
vn 0.9962 0.0867 0.0038
vn 0.9972 0.0740 -0.0147
vn 0.9548 0.1280 0.2683
vn 0.9586 0.1148 0.2607
vn 0.9545 0.1213 0.2724
vn 0.9571 0.1117 0.2672
vn 0.8438 0.0060 -0.5366
vn 0.8441 0.0072 -0.5362
vn 0.8440 0.0077 -0.5363
vn -0.2124 0.2478 0.9452
vn -0.2066 0.2366 0.9494
vn -0.2019 0.2397 0.9496
vn -0.1946 0.2488 0.9488
vn 0.2517 -0.5882 0.7685
vn 0.2639 -0.5832 0.7683
vn 0.2495 -0.5817 0.7742
vn 0.2642 -0.5864 0.7658
vn -0.2095 -0.2798 0.9369
vn -0.2217 -0.2903 0.9309
vn -0.1960 -0.2893 0.9369
vn -0.2037 -0.2802 0.9381
vn 0.2568 0.7668 0.5883
vn 0.2309 0.7437 0.6274
vn 0.2821 0.7167 0.6377
vn 0.2942 0.7424 0.6019
vn 0.8980 0.3655 -0.2448
vn 0.0001 -0.0003 -1.0000
vn 0.9564 0.1237 0.2647
vn -0.9540 0.1317 0.2694
vn 0.0723 0.8768 -0.4754
vn 0.0837 0.8774 -0.4724
vn 0.0984 0.8690 -0.4849
vn 0.0817 0.8646 -0.4957
vn 0.2903 0.9144 0.2823
vn 0.2950 0.9020 0.3153
vn 0.3220 0.9064 0.2735
vn 0.2890 0.9232 0.2533
vn 0.2156 0.9583 0.1876
vn 0.2257 0.9533 0.2008
vn 0.2348 0.9545 0.1838
vn 0.2306 0.9559 0.1821
vn 0.2996 -0.5731 0.7628
vn 0.2719 -0.6791 0.6819
vn 0.2990 -0.6011 0.7411
vn 0.2316 -0.6052 0.7617
vn 0.2538 0.5619 0.7873
vn 0.2582 0.5586 0.7882
vn 0.2476 0.5559 0.7935
vn 0.2670 0.5524 0.7896
vn 0.8979 -0.3657 -0.2449
vn 0.8691 -0.0021 -0.4946
vn 0.9455 -0.0970 0.3108
vn 0.9394 0.0833 0.3325
vn 0.0819 -0.8757 -0.4759
vn 0.0835 -0.8717 -0.4829
vn 0.0860 -0.8693 -0.4867
vn 0.0925 -0.8715 -0.4817
vn 0.2052 -0.9224 0.3272
vn 0.1937 -0.9435 0.2689
vn 0.2431 -0.9394 0.2416
vn 0.2357 -0.9282 0.2880
vn 0.2396 -0.9211 0.3070
vn 0.2323 -0.9249 0.3010
vn 0.2404 -0.9225 0.3019
vn 0.2403 -0.9213 0.3057
vn 0.1948 -0.9603 -0.2000
vn 0.1499 -0.9634 -0.2223
vn 0.1936 -0.9595 -0.2048
vn 0.1965 -0.9593 -0.2027
vn 0.2465 0.9453 -0.2138
vn 0.2468 0.9463 -0.2088
vn 0.2776 0.9355 -0.2186
vn 0.2494 0.9449 -0.2120
vn 0.9913 0.0015 -0.1316
vn 0.9921 0.0060 -0.1250
vn -0.9915 0.0014 -0.1302
vn -0.9921 -0.0009 -0.1256
vn -0.9917 0.0005 -0.1282
vn 0.9915 0.0007 -0.1299
vn 0.9916 0.0007 -0.1296
vn -0.2122 0.8216 -0.5291
vn -0.8519 -0.0166 -0.5234
vn -0.8522 -0.0181 -0.5229
vn -0.8521 -0.0142 -0.5231
vn -0.8525 -0.0159 -0.5225
vn 0.9749 0.1662 0.1483
vn 0.8526 -0.0163 -0.5223
vn 0.8518 -0.0176 -0.5236
vn 0.8516 -0.0175 -0.5239
vn 0.8518 -0.0156 -0.5236
vn -0.2496 0.9450 -0.2115
vn -0.2478 0.9460 -0.2088
vn -0.2163 0.9493 -0.2280
vn -0.2468 0.9452 -0.2138
vn 0.8599 0.0083 -0.5104
vn 0.8597 0.0071 -0.5108
vn 0.1861 -0.8354 -0.5172
vn -0.8601 0.0083 -0.5101
vn -0.8597 0.0087 -0.5108
vn -0.8599 0.0086 -0.5104
vn -0.8600 0.0080 -0.5102
vn 0.9749 -0.1663 0.1482
vn 0.0811 -0.7053 0.7043
vn -0.9733 -0.1756 0.1479
vn -0.1937 -0.9605 -0.1997
vn -0.2378 -0.9470 -0.2158
vn -0.1964 -0.9593 -0.2029
vn -0.1934 -0.9595 -0.2048
vn -0.9973 0.0723 -0.0158
vn 0.9977 -0.0682 -0.0069
vn 0.9975 0.0706 -0.0055
vn -0.9484 -0.0653 0.3102
vn -0.9974 -0.0697 -0.0173
vn 0.9514 -0.0633 0.3014
vn -0.1802 -0.1818 0.9667
vn -0.0329 -0.1630 -0.9861
vn -0.9412 0.0428 0.3351
vn 0.1856 0.2479 0.9508
vn 0.9443 0.0401 0.3267
vn -0.0365 0.1665 -0.9854
vn 0.1802 -0.1818 0.9667
vn 0.0330 -0.1630 -0.9861
vn -0.1856 0.2479 0.9508
vn 0.0367 0.1666 -0.9853
vn -0.8828 0.0949 -0.4601
vn 0.8873 -0.0905 -0.4523
vn 0.8876 0.0934 -0.4511
vn -0.8824 -0.0919 -0.4614
vn -0.9426 -0.1040 0.3172
vn 0.9427 -0.0640 0.3273
vn -0.9395 -0.0670 0.3361
vn -0.9520 0.0951 0.2911
vn 0.9547 0.0928 0.2828
usemtl FFFFFF
s 1
f 1//1 4//2 3//3 2//4
f 5//5 8//5 7//6 6//5
f 9//7 12//8 11//9 10//10
f 13//11 16//12 15//13 14//14
f 17//15 9//16 10//17 18//18
f 19//19 22//19 21//19 20//19
f 20//20 21//20 24//20 23//20
f 25//21 28//21 27//21 26//21
f 29//22 14//22 31//22 30//22
f 32//23 35//24 34//25 33//26
f 36//27 39//28 38//29 37//30
f 20//31 23//32 15//33 16//34
f 40//35 41//36 36//37 37//38
f 42//39 43//39 29//39 30//39
f 44//40 47//5 46//5 45//41
f 34//42 35//43 49//44 48//45
f 50//46 51//47 48//48 49//49
f 52//50 51//51 50//52 53//53
f 45//41 46//5 27//5 28//54
f 18//55 56//55 55//55 54//55
f 56//56 25//56 26//56 55//56
f 57//57 17//57 18//57 54//57
f 58//58 52//59 53//60 59//61
f 60//62 63//62 62//62 61//62
f 64//63 65//63 17//63 57//63
f 66//64 67//65 41//66 40//67
f 68//68 38//69 39//70 69//71
f 65//72 70//73 2//74 3//75
f 71//76 49//77 35//78 32//79
f 72//80 75//81 74//82 73//83
f 76//84 50//85 49//86 71//87
f 67//88 79//88 78//88 77//88
f 80//89 83//89 82//89 81//89
f 59//90 85//90 84//90 7//90
f 86//91 88//91 87//91 75//91
f 89//92 90//93 60//94 61//95
f 90//96 70//97 65//98 60//99
f 80//100 73//101 74//102 83//103
f 91//104 92//105 10//106 11//107
f 93//108 96//108 95//108 94//108
f 36//109 41//109 98//109 97//109
f 99//110 25//111 56//112 100//113
f 100//114 56//115 18//116 101//117
f 41//118 67//118 77//118 98//118
f 50//119 103//119 102//119 53//119
f 53//120 102//120 85//120 59//120
f 104//121 103//121 50//121 76//121
f 18//122 10//123 92//124 101//125
f 75//126 87//126 105//126 74//126
f 106//127 80//127 81//127 107//127
f 108//128 45//41 28//54 109//129
f 110//130 89//131 112//132 111//133
f 113//134 1//135 2//136 114//137
f 114//138 2//139 70//140 115//141
f 116//142 58//143 8//143 117//143
f 118//144 34//145 48//146 119//147
f 119//148 48//149 51//150 120//151
f 121//5 5//5 122//5 111//5
f 123//152 124//153 1//154 113//155
f 115//156 70//157 90//158 125//159
f 120//160 51//161 52//59 126//162
f 12//163 124//164 91//165 11//166
f 101//167 120//168 126//169 100//170
f 37//171 115//172 125//173 40//174
f 33//175 123//176 113//177 68//178
f 108//128 121//5 111//5 112//179
f 92//180 119//181 120//182 101//183
f 91//184 118//185 119//186 92//187
f 99//188 116//189 117//189 109//190
f 38//191 114//192 115//193 37//194
f 68//195 113//196 114//197 38//198
f 66//199 110//200 111//200 122//201
f 109//129 117//5 121//5 108//128
f 34//202 118//203 123//204 33//205
f 4//206 1//207 124//208 12//209
f 118//210 91//211 124//212 123//213
f 117//5 8//5 5//5 121//5
f 112//179 44//40 45//41 108//128
f 106//214 127//215 73//216 80//217
f 94//218 129//218 128//218 93//218
f 79//219 6//5 130//5 78//5
f 127//220 106//220 131//220
f 74//221 105//221 83//221
f 36//222 76//223 71//224 39//225
f 129//226 72//227 73//228 127//229
f 39//230 71//231 32//232 69//233
f 19//234 20//235 16//236 132//237
f 69//238 32//239 33//240 68//241
f 133//242 136//242 135//242 134//242
f 61//243 62//243 47//243 44//243
f 132//244 137//244 19//244
f 65//245 64//245 63//245 60//245
f 65//246 3//247 9//248 17//249
f 134//250 132//251 16//252 13//253
f 3//254 4//255 12//256 9//257
f 122//5 5//5 6//5 79//219
f 133//258 134//259 13//260 43//261
f 94//262 95//263 72//264 129//265
f 40//67 125//266 110//267 66//64
f 100//268 126//162 116//269 99//270
f 126//162 52//59 58//58 116//269
f 125//266 90//271 89//272 110//267
f 6//5 7//6 84//5 130//5
f 96//273 88//273 86//273 95//273
f 109//274 28//275 25//276 99//277
f 129//278 127//278 131//278 128//278
f 112//279 89//280 61//281 44//282
f 95//283 86//284 75//285 72//286
f 122//287 79//287 67//288 66//287
f 136//289 133//289 43//289 42//289
f 8//290 58//291 59//292 7//293
f 134//294 135//294 137//294 132//294
f 97//295 104//295 76//295 36//295
f 14//296 15//296 138//296 31//296
f 43//297 13//298 14//299 29//300
f 87//301 85//301 102//301 105//301
f 135//302 62//302 63//302 137//302
f 77//303 128//303 131//303 98//303
f 103//304 82//304 105//304 102//304
f 26//305 31//305 138//305 55//305
f 107//306 97//306 98//306 131//306
f 104//307 81//307 82//307 103//307
f 46//308 42//308 30//308 27//308
f 24//309 54//309 55//309 138//309
f 57//310 21//310 22//310 64//310
f 64//311 22//311 137//311 63//311
f 96//312 130//312 84//312 88//312
f 97//313 107//313 81//313 104//313
f 47//314 136//314 42//314 46//314
f 54//315 24//315 21//315 57//315
f 93//316 78//316 130//316 96//316
f 88//317 84//317 85//317 87//317
f 136//318 47//318 62//318 135//318
f 78//319 93//319 128//319 77//319
f 27//320 30//320 31//320 26//320
f 15//321 23//321 138//321
f 137//322 22//322 19//322
f 23//323 24//323 138//323
f 105//324 82//324 83//324
f 106//325 107//325 131//325
