# Blender v2.81 (sub 16) OBJ File: 'airport.blend'
# www.blender.org
mtllib 5.mtl
o clouds_01_Plane.005_clouds_01_Plane.007
v 2.249066 82.001068 5.198633
v 2.000462 82.220718 4.956409
v 2.209809 81.978409 4.539094
v 2.479516 81.677811 5.324510
v 2.062347 81.916985 5.305586
v 2.302129 81.574188 5.431869
v 1.834419 82.167114 5.053687
v 1.873979 81.784515 5.323309
v 1.581395 81.615593 4.762754
v 1.682787 82.037308 5.061734
v 2.102842 81.457253 5.449997
v 2.273686 81.097107 5.344426
v 1.735018 81.255318 4.803705
v 1.984681 80.930252 4.757028
v 1.632422 81.186050 4.255319
v 1.841780 80.847748 4.297661
v 1.589130 81.171089 3.967293
v 1.445249 81.536987 4.301892
v 1.394722 81.507812 3.967293
v 1.452701 81.854240 4.296819
v 1.668476 81.978813 4.225280
v 1.501175 82.089943 4.648583
v 1.253471 81.777412 4.010729
v 1.434145 82.141869 4.520064
v 1.059313 82.126221 4.085808
v 1.614232 82.226303 4.492644
v 1.336915 82.339066 4.573532
v 1.147310 82.579315 4.474926
v 1.523251 82.419762 4.555110
v 1.013905 82.252991 4.113698
v 0.895649 82.360680 3.912443
v 0.967141 82.694069 4.294757
v 0.851368 82.702782 4.081780
v 1.171000 82.870300 4.277233
v 1.074439 82.894524 4.028018
v 1.334038 82.698524 4.469849
v 1.398690 82.943222 4.151678
v 1.503774 82.785118 4.356741
v 1.643531 82.621506 3.904643
v 1.338593 82.984085 3.920242
v 1.289850 82.922089 3.786604
v 1.513807 82.720055 3.707443
v 1.301809 82.763725 3.546899
v 1.637691 82.504684 3.663863
v 1.822961 82.125305 3.632477
v 1.714860 82.509583 3.868114
v 1.456423 82.462410 3.488528
v 1.685755 82.065193 3.488528
v 1.218744 82.375771 3.560068
v 1.469980 81.940613 3.560067
v 1.024861 82.213272 3.631607
v 1.059693 82.684586 3.618118
v 1.046414 82.845421 3.858143
v 0.870263 82.514526 3.689913
v 0.858301 82.672935 3.929683
v 0.999991 82.134361 3.875447
v 1.254205 81.816040 3.631607
v 1.219387 81.776833 3.832590
v 1.422800 81.524025 3.631607
v 1.638574 81.648605 3.560067
v 1.374310 81.496033 3.810872
v 1.617207 81.187302 3.631607
v 1.568718 81.159309 3.810872
v 1.820382 80.835396 3.631607
v 1.832982 81.311882 3.560067
v 2.036156 80.959969 3.560067
v 2.048757 81.436455 3.488528
v 2.172291 81.507782 3.610759
v 1.854349 81.773178 3.488528
v 2.251931 81.084549 3.488528
v 2.378273 81.157494 3.622047
v 2.411759 80.807716 3.488528
v 2.532423 80.896484 3.632476
v 2.642081 80.408791 3.488528
v 2.195984 80.683144 3.560067
v 1.980209 80.558563 3.631607
v 2.448198 80.246292 3.560067
v 2.210545 80.159615 3.631607
v 2.636996 79.953079 3.618913
v 2.825787 80.125229 3.548822
v 2.774960 79.851501 3.858143
v 2.394194 79.876099 3.691822
v 2.524354 79.787254 3.929682
v 2.274081 79.974693 3.913412
v 2.546682 79.766418 4.081779
v 2.240082 80.130630 4.114161
v 2.129708 80.177559 3.875599
v 1.928849 80.548012 3.832590
v 2.152307 80.233162 4.086143
v 1.946391 80.577240 4.010729
v 2.367764 80.539314 4.542536
v 2.112538 80.711365 4.296819
v 2.525526 80.659439 4.512739
v 2.498001 80.299850 4.591308
v 2.678437 80.428604 4.571978
v 2.619958 80.046829 4.506644
v 2.811622 80.157486 4.501567
v 2.597124 79.870857 4.294757
v 2.860584 79.943863 4.277233
v 2.832546 79.849396 4.028018
v 3.028673 80.120010 4.151678
v 2.976422 80.252640 4.388460
v 2.873129 80.491096 3.905422
v 3.033907 80.047714 3.920241
v 2.955903 80.036407 3.786603
v 2.893638 80.329895 3.708683
v 2.769389 80.544739 3.663974
v 2.812171 80.609245 3.868419
v 2.696182 80.728920 4.433650
v 2.584047 80.945389 3.799315
v 2.435574 81.190575 3.778457
v 2.544088 80.960526 4.153740
v 2.678314 80.830299 4.536715
v 2.530247 81.245232 4.069401
v 2.328313 80.835945 4.225279
v 2.531488 80.696800 4.595779
v 2.340902 80.635490 4.648583
v 2.605710 80.838699 5.066752
v 2.416760 80.773529 5.074800
v 2.485283 81.196098 5.325892
v 2.734436 80.956940 4.969475
v 2.654622 81.317039 5.218128
v 2.626506 81.300812 4.542577
v 2.487405 81.689713 4.554253
v 2.323817 81.578468 4.027059
v 2.133717 81.934471 4.073632
v 2.226785 81.539238 3.755879
v 2.032378 81.875969 3.755879
v 1.977883 81.844505 3.610759
v 1.891126 82.145561 3.799316
v 1.884250 82.103394 4.153740
v 1.763852 82.332222 4.410751
v 1.838587 82.284744 4.536715
v 1.648877 82.225525 4.595780
v 1.668151 82.530304 4.463711
v 2.859934 80.508812 4.471310
v 1.797919 80.822426 3.989870
v 1.774699 80.809021 3.822161
vn 0.0762 0.7533 0.6533
vn 0.0873 0.7570 0.6476
vn 0.0704 0.7492 0.6586
vn 0.0903 0.7594 0.6443
vn 0.6727 0.7348 -0.0875
vn 0.6634 0.7423 -0.0942
vn 0.6658 0.7401 -0.0947
vn 0.6712 0.7343 -0.1012
vn 0.7726 0.6345 -0.0216
vn 0.7687 0.6395 -0.0091
vn 0.7726 0.6346 -0.0187
vn 0.7668 0.6418 -0.0117
vn 0.2412 0.4848 0.8407
vn 0.2430 0.4889 0.8378
vn 0.2407 0.4988 0.8326
vn 0.2299 0.4886 0.8417
vn -0.0998 0.2863 0.9529
vn -0.0947 0.2894 0.9525
vn -0.0999 0.3020 0.9481
vn -0.1146 0.2972 0.9479
vn -0.3420 0.5097 0.7895
vn -0.3371 0.5162 0.7873
vn -0.3484 0.5030 0.7910
vn -0.3254 0.5141 0.7936
vn -0.7884 -0.2966 0.5390
vn -0.7859 -0.3130 0.5333
vn -0.7929 -0.2998 0.5306
vn -0.7877 -0.3124 0.5309
vn -0.8819 -0.1102 0.4584
vn -0.8912 -0.1035 0.4416
vn -0.8882 -0.1051 0.4472
vn -0.8891 -0.0947 0.4479
vn 0.1801 -0.1997 0.9632
vn 0.1966 -0.1920 0.9615
vn 0.1840 -0.1866 0.9651
vn 0.1809 -0.1866 0.9656
vn -0.6736 -0.5255 0.5197
vn -0.6663 -0.5289 0.5257
vn -0.6757 -0.5211 0.5214
vn -0.6640 -0.5347 0.5227
vn -0.7847 -0.5580 0.2701
vn -0.7790 -0.5521 0.2973
vn -0.7924 -0.5432 0.2774
vn -0.7943 -0.5451 0.2683
vn -0.8666 -0.4240 0.2632
vn -0.8664 -0.4208 0.2689
vn -0.8751 -0.3964 0.2775
vn -0.8726 -0.4162 0.2557
vn -0.8381 -0.5244 0.1499
vn -0.8507 -0.5035 0.1508
vn -0.8526 -0.4993 0.1542
vn -0.8520 -0.5007 0.1530
vn -0.8572 -0.4893 0.1607
vn -0.8571 -0.4883 0.1642
vn -0.8580 -0.4866 0.1644
vn -0.8666 -0.4789 0.1402
vn -0.8887 -0.2281 0.3978
vn -0.8909 -0.2255 0.3944
vn -0.8898 -0.2344 0.3914
vn -0.8881 -0.2316 0.3970
vn -0.9670 -0.0574 0.2481
vn -0.9686 -0.0501 0.2435
vn -0.9709 -0.0500 0.2343
vn -0.9696 -0.0561 0.2380
vn 0.4673 -0.5621 0.6824
vn -0.6252 0.6608 -0.4153
vn -0.6134 0.6717 -0.4155
vn -0.6160 0.6657 -0.4213
vn -0.6201 0.6615 -0.4219
vn -0.6502 -0.4896 0.5810
vn -0.6804 -0.4457 0.5817
vn 0.2044 -0.1867 0.9609
vn -0.7373 -0.3429 0.5821
vn -0.0873 0.2754 0.9573
vn -0.8713 -0.4171 0.2586
vn -0.8668 -0.2841 0.4099
vn -0.7638 -0.3128 0.5646
vn -0.6164 0.7100 0.3404
vn -0.5882 0.7412 0.3235
vn -0.5537 0.7741 0.3068
vn -0.6109 0.7406 0.2798
vn -0.4139 0.5724 0.7079
vn -0.3844 0.5023 0.7746
vn -0.3297 0.5293 0.7817
vn -0.3126 0.5937 0.7415
vn -0.2480 0.9393 0.2370
vn -0.2194 0.9542 0.2034
vn -0.1843 0.9681 0.1698
vn -0.2559 0.9514 0.1711
vn 0.1280 0.7774 0.6159
vn 0.0313 0.7612 0.6477
vn 0.0977 0.7706 0.6298
vn 0.1001 0.8168 0.5681
vn 0.8090 0.5867 0.0378
vn 0.7565 0.6417 -0.1263
vn -0.3784 0.8959 -0.2327
vn -0.3760 0.8975 -0.2305
vn -0.3737 0.8976 -0.2337
vn -0.4105 0.8744 -0.2586
vn 0.4888 0.7294 -0.4786
vn 0.5817 0.4476 -0.6792
vn 0.7921 0.5414 -0.2819
vn 0.6041 0.3514 -0.7152
vn 0.8221 0.4473 -0.3523
vn -0.2382 -0.1385 -0.9613
vn -0.2390 -0.1371 -0.9613
vn -0.2390 -0.1380 -0.9612
vn -0.2948 0.0307 -0.9551
vn -0.2396 -0.1373 -0.9611
vn -0.3495 -0.0010 -0.9369
vn -0.3960 0.7547 -0.5230
vn -0.6914 0.5842 -0.4251
vn -0.9928 -0.1193 0.0094
vn -0.8934 -0.4024 -0.1998
vn -0.6815 0.7198 -0.1320
vn -0.6814 0.7199 -0.1317
vn -0.6792 0.7223 -0.1299
vn -0.6921 0.7007 -0.1734
vn -0.8400 -0.4857 -0.2417
vn -0.8429 -0.4669 -0.2674
vn -0.8435 -0.4665 -0.2664
vn -0.8427 -0.4660 -0.2697
vn -0.8432 -0.4658 -0.2683
vn -0.2398 -0.1374 -0.9611
vn -0.2399 -0.1380 -0.9609
vn -0.8260 -0.4775 -0.2996
vn -0.8265 -0.4769 -0.2990
vn -0.8264 -0.4777 -0.2981
vn -0.8268 -0.4773 -0.2977
vn -0.8265 -0.4868 -0.2827
vn -0.8270 -0.4864 -0.2821
vn -0.8271 -0.4862 -0.2819
vn -0.2387 -0.1388 -0.9611
vn 0.5773 0.3248 -0.7492
vn 0.5781 0.3246 -0.7486
vn 0.5783 0.3249 -0.7483
vn 0.5621 0.3254 -0.7604
vn 0.5635 0.3253 -0.7594
vn 0.5638 0.3260 -0.7589
vn 0.5642 0.3248 -0.7591
vn -0.2388 -0.1382 -0.9612
vn 0.5982 0.3351 -0.7279
vn 0.5972 0.3349 -0.7288
vn 0.6064 0.3475 -0.7152
vn -0.2393 -0.1378 -0.9611
vn -0.1157 -0.2720 -0.9553
vn -0.1766 -0.3071 -0.9352
vn 0.4674 -0.6988 -0.5416
vn 0.1300 -0.8936 -0.4297
vn -0.5998 -0.8001 0.0095
vn -0.7936 -0.5752 -0.1985
vn -0.6795 -0.6085 0.4099
vn -0.7949 -0.5482 0.2599
vn -0.8664 -0.4617 0.1902
vn -0.8407 -0.4846 -0.2417
vn -0.7544 -0.3162 0.5752
vn -0.7500 -0.3524 0.5597
vn -0.2669 0.6872 0.6757
vn -0.0161 0.2146 0.9766
vn 0.1877 -0.1935 0.9630
vn -0.6715 -0.5051 0.5421
vn 0.2835 -0.7186 0.6350
vn 0.3250 -0.7228 0.6098
vn 0.3379 -0.6784 0.6524
vn 0.2899 -0.6866 0.6668
vn -0.6585 -0.5425 0.5215
vn 0.2978 -0.8933 0.3367
vn 0.2650 -0.9052 0.3322
vn 0.3129 -0.8996 0.3047
vn 0.3267 -0.8793 0.3466
vn 0.7562 -0.6284 0.1826
vn 0.7325 -0.6530 0.1924
vn 0.7542 -0.6393 0.1500
vn 0.7757 -0.6061 0.1758
vn 0.7058 -0.4841 0.5172
vn 0.7420 -0.4752 0.4729
vn 0.7500 -0.4247 0.5071
vn 0.7225 -0.4431 0.5307
vn 0.9245 0.3812 -0.0095
vn 0.9339 0.3344 -0.1262
vn 0.6238 -0.7384 -0.2561
vn 0.6230 -0.7402 -0.2530
vn 0.6138 -0.7354 -0.2871
vn 0.6238 -0.7384 -0.2565
vn 0.8761 0.0588 -0.4786
vn 0.6805 0.2776 -0.6781
vn 0.8664 0.4131 -0.2805
vn 0.7984 0.4883 -0.3522
vn 0.8299 0.5573 0.0271
vn 0.8142 0.5781 0.0533
vn 0.7990 0.4589 -0.3886
vn 0.8000 0.4528 -0.3937
vn 0.8015 0.4556 -0.3872
vn 0.8016 0.4570 -0.3856
vn 0.9564 0.2708 -0.1093
vn 0.9571 0.2659 -0.1155
vn 0.9537 0.2764 -0.1188
vn 0.9558 0.2725 -0.1101
vn 0.3941 -0.8001 -0.4522
vn 0.3853 -0.8010 -0.4582
vn 0.3920 -0.7870 -0.4765
vn 0.4078 -0.7872 -0.4626
vn 0.9668 0.0656 -0.2468
vn 0.9668 0.0531 -0.2501
vn 0.9645 0.0505 -0.2592
vn 0.9608 0.0641 -0.2696
vn -0.1364 0.7625 0.6324
vn 0.2719 -0.8713 -0.4086
vn 0.2527 -0.8732 -0.4167
vn 0.2561 -0.8665 -0.4285
vn 0.2799 -0.8629 -0.4209
vn 0.3483 -0.9059 0.2408
vn 0.3372 -0.9136 0.2270
vn 0.3410 -0.9131 0.2237
vn 0.3540 -0.9095 0.2180
vn 0.7038 -0.6996 0.1235
vn 0.7006 -0.7053 0.1082
vn 0.7032 -0.7034 0.1039
vn 0.7130 -0.6943 0.0973
vn 0.2662 -0.5211 0.8109
vn 0.2750 -0.5129 0.8132
vn 0.2570 -0.5205 0.8142
vn 0.2717 -0.5216 0.8088
vn 0.6857 -0.2798 0.6720
vn 0.6923 -0.2688 0.6696
vn 0.6782 -0.2793 0.6797
vn 0.6896 -0.2789 0.6684
vn 0.9775 0.1921 -0.0868
vn 0.9773 0.1855 -0.1018
vn 0.9750 0.2001 -0.0964
vn 0.9794 0.1802 -0.0911
vn 0.9257 0.3782 -0.0048
vn 0.9189 0.3945 -0.0092
vn 0.9263 0.3767 -0.0096
vn 0.9216 0.3881 -0.0125
vn 0.5201 -0.0037 0.8541
vn 0.5344 0.0046 0.8452
vn 0.5224 0.0101 0.8526
vn 0.5219 0.0078 0.8530
vn 0.8636 0.4061 -0.2986
vn 0.8669 0.4071 -0.2876
vn 0.8786 0.3852 -0.2821
vn 0.8662 0.3963 -0.3044
vn 0.7627 0.5824 -0.2813
vn 0.7720 0.5823 -0.2550
vn 0.7717 0.5733 -0.2753
vn 0.7731 0.5705 -0.2771
vn 0.7946 0.4914 -0.3565
vn 0.8080 0.4740 -0.3499
vn 0.8092 0.4718 -0.3500
vn 0.8087 0.4721 -0.3508
vn 0.8096 0.4650 -0.3582
vn 0.8128 0.4627 -0.3540
vn 0.8142 0.4609 -0.3529
vn 0.8102 0.4501 -0.3756
vn 0.7958 0.4547 -0.3999
vn 0.7955 0.4603 -0.3940
vn 0.7946 0.4593 -0.3971
vn 0.7947 0.4579 -0.3984
vn 0.7910 0.4726 -0.3886
vn 0.7912 0.4725 -0.3882
vn 0.7925 0.4699 -0.3887
vn 0.7904 0.4724 -0.3899
vn 0.7243 0.6794 -0.1177
vn 0.7242 0.6798 -0.1157
vn 0.7289 0.6738 -0.1211
vn 0.7245 0.6789 -0.1189
vn 0.9055 0.4200 0.0603
vn 0.5829 -0.4953 0.6441
vn -0.4930 0.7385 -0.4599
vn -0.4842 0.7463 -0.4567
vn -0.4820 0.7421 -0.4659
vn -0.4850 0.7413 -0.4641
vn 0.5738 0.7884 -0.2215
vn 0.5744 0.7859 -0.2290
vn 0.5718 0.7868 -0.2323
vn 0.5730 0.7868 -0.2292
vn -0.2090 0.9539 0.2154
vn -0.2079 0.9539 0.2164
vn -0.2050 0.9554 0.2124
vn -0.2165 0.9530 0.2119
vn -0.5850 0.7363 0.3401
vn -0.5815 0.7376 0.3432
vn -0.5813 0.7398 0.3387
vn -0.5866 0.7367 0.3365
vn 0.5120 -0.0091 0.8589
vn 0.8854 0.4617 0.0534
vn 0.8285 0.5573 0.0544
vn 0.2532 0.4720 0.8445
vn 0.5747 0.3534 -0.7381
vn 0.5758 0.3539 -0.7371
vn 0.5762 0.3522 -0.7375
vn 0.5746 0.3533 -0.7383
vn -0.5647 -0.7055 0.4282
vn -0.5581 -0.7135 0.4235
vn -0.5571 -0.7098 0.4310
vn -0.5679 -0.7085 0.4190
vn -0.5155 -0.8181 0.2549
vn -0.5303 -0.8086 0.2549
vn -0.5158 -0.8228 0.2385
vn -0.5165 -0.8190 0.2498
vn 0.2832 0.3874 0.8774
vn 0.9113 0.4117 0.0084
vn 0.5249 0.0011 0.8512
vn 0.2359 -0.9637 -0.1246
vn 0.2324 -0.9644 -0.1262
vn 0.2499 -0.9553 -0.1577
vn 0.2371 -0.9630 -0.1279
vn -0.6266 -0.6679 0.4017
vn -0.6256 -0.6685 0.4022
vn -0.6347 -0.6620 0.3986
vn -0.6231 -0.6730 0.3985
vn -0.8507 -0.5002 0.1618
vn -0.8514 -0.4990 0.1619
vn -0.8518 -0.4979 0.1628
vn -0.8527 -0.4994 0.1531
vn -0.8334 -0.4914 -0.2529
vn -0.8334 -0.4916 -0.2526
vn -0.8337 -0.4911 -0.2527
vn -0.8329 -0.4921 -0.2533
vn -0.8563 -0.4950 0.1476
vn -0.8555 -0.4957 0.1495
vn -0.8612 -0.4832 0.1579
vn -0.8624 -0.4810 0.1579
vn -0.8619 -0.4826 0.1555
vn -0.8602 -0.4847 0.1583
vn -0.8330 -0.5195 0.1902
usemtl FFFFFF
s 1
f 2//1 7//2 5//3 1//4
f 1//5 3//6 133//7 2//8
f 4//9 124//10 3//11 1//12
f 6//13 4//14 1//15 5//16
f 11//17 6//18 5//19 8//20
f 7//21 10//22 8//23 5//24
f 8//25 9//26 13//27 11//28
f 8//29 10//30 22//31 9//32
f 12//33 120//34 6//35 11//36
f 11//37 13//38 14//39 12//40
f 13//41 15//42 16//43 14//44
f 9//45 18//46 15//47 13//48
f 15//49 17//50 137//51 16//52
f 18//53 19//54 17//55 15//56
f 19//57 18//58 20//59 23//60
f 20//61 18//62 9//63 22//64
f 26//65 24//65 20//65 21//65
f 21//66 20//67 22//68 134//69
f 20//70 24//70 25//70 23//70
f 27//71 30//71 25//71 24//71
f 24//72 26//72 29//72 27//72
f 28//73 30//73 27//73
f 36//74 28//74 27//74 29//74
f 56//75 25//75 30//75 31//75
f 33//76 31//76 30//76 32//76
f 32//77 30//77 28//77
f 35//78 33//79 32//80 34//81
f 36//82 34//83 32//84 28//85
f 40//86 35//87 34//88 37//89
f 38//90 37//91 34//92 36//93
f 37//94 38//94 39//94
f 40//95 37//95 39//95 42//95
f 41//96 53//97 35//98 40//99
f 41//100 40//100 42//100 43//100
f 43//101 42//101 44//101 47//101
f 42//102 39//102 46//102 44//102
f 45//103 48//103 47//103 44//103
f 130//104 45//104 44//104 46//104
f 48//105 50//106 49//107 47//107
f 47//108 49//108 52//108 43//108
f 50//106 57//109 51//107 49//107
f 49//110 51//110 54//110 52//110
f 43//111 52//111 53//111 41//111
f 52//112 54//112 55//112 53//112
f 55//113 54//113 31//113 33//113
f 51//114 56//114 31//114 54//114
f 53//115 55//116 33//117 35//118
f 58//119 56//119 51//119 57//119
f 59//120 61//121 58//122 57//123
f 60//124 59//125 57//109 50//106
f 59//125 60//124 65//107 62//107
f 61//126 59//127 62//128 63//129
f 63//130 62//131 64//131 138//132
f 62//107 65//107 66//107 64//107
f 65//107 67//107 70//107 66//107
f 60//124 69//133 67//107 65//107
f 71//134 70//135 67//136 68//136
f 68//137 67//138 69//139 129//140
f 70//107 72//141 75//107 66//107
f 70//142 71//142 73//143 72//142
f 73//144 107//144 74//144 72//144
f 72//141 74//107 77//107 75//107
f 66//107 75//107 76//145 64//107
f 75//107 77//107 78//107 76//145
f 80//146 79//146 77//146 74//146
f 79//147 82//147 78//147 77//147
f 80//148 105//148 81//148 79//148
f 79//149 81//149 83//149 82//149
f 83//150 85//150 84//150 82//150
f 82//151 84//151 87//151 78//151
f 85//152 98//152 86//152 84//152
f 84//153 86//153 89//153 87//153
f 90//154 88//154 87//154 89//154
f 88//155 76//155 78//155 87//155
f 92//156 90//156 89//156 91//156
f 91//157 89//157 86//157 94//157
f 93//158 115//158 92//158 91//158
f 93//159 91//159 94//159 95//159
f 97//160 95//160 94//160 96//160
f 86//161 96//161 94//161
f 97//162 96//163 98//164 99//165
f 98//166 96//166 86//166
f 100//167 99//168 98//169 85//170
f 104//171 101//172 99//173 100//174
f 102//175 97//176 99//177 101//178
f 101//179 103//179 102//179
f 104//180 106//180 103//180 101//180
f 105//181 104//182 100//183 81//184
f 105//185 80//185 106//185 104//185
f 74//186 107//186 106//186 80//186
f 107//187 108//187 103//187 106//187
f 110//188 108//188 107//188 73//188
f 136//189 103//189 108//189 109//189
f 112//190 109//190 108//190 110//190
f 71//191 111//192 110//193 73//194
f 111//195 114//196 112//197 110//198
f 112//199 113//200 116//201 115//202
f 112//203 114//204 123//205 113//206
f 109//207 112//207 115//207 93//207
f 115//208 116//209 117//210 92//211
f 116//212 118//213 119//214 117//215
f 113//216 121//217 118//218 116//219
f 118//220 120//221 12//222 119//223
f 121//224 122//225 120//226 118//227
f 122//228 121//229 113//230 123//231
f 122//232 123//233 124//234 4//235
f 120//236 122//237 4//238 6//239
f 123//240 114//241 125//242 124//243
f 124//244 125//245 126//246 3//247
f 125//248 127//249 128//250 126//251
f 114//252 111//253 127//254 125//255
f 127//256 68//257 129//258 128//259
f 111//192 71//191 68//257 127//256
f 129//260 45//261 130//262 128//263
f 128//264 130//265 131//266 126//267
f 131//268 130//268 46//268 132//268
f 132//269 26//269 21//269 131//269
f 131//270 21//271 134//272 133//273
f 131//274 133//275 3//276 126//277
f 133//278 134//279 7//280 2//281
f 134//282 22//283 10//284 7//285
f 26//286 132//286 135//286 29//286
f 132//287 46//287 39//287 135//287
f 39//288 38//288 135//288
f 38//289 36//289 29//289 135//289
f 69//290 48//291 45//292 129//293
f 12//294 14//295 117//296 119//297
f 92//298 117//299 14//300 16//301
f 109//302 93//302 95//302 136//302
f 102//303 103//303 136//303
f 102//304 136//304 95//304 97//304
f 81//305 100//306 85//307 83//308
f 137//309 90//310 92//311 16//312
f 138//313 88//314 90//315 137//51
f 17//50 63//316 138//313 137//51
f 64//317 76//318 88//319 138//320
f 69//133 60//124 50//106 48//105
f 19//321 61//322 63//316 17//50
f 61//323 19//324 23//325 58//326
f 23//327 25//327 56//327 58//327
