# Blender v2.81 (sub 16) OBJ File: 'airport.blend'
# www.blender.org
mtllib 7.mtl
o clouds_01_Plane.007_clouds_01_Plane.009
v 0.919479 72.759605 3.654727
v 0.847018 72.975685 3.488319
v 0.888337 72.759605 3.201621
v 0.945550 72.488121 3.741206
v 0.779504 72.773720 3.728205
v 0.804415 72.487404 3.814962
v 0.729815 73.000832 3.555149
v 0.621928 72.759605 3.740381
v 0.389825 72.759605 3.355277
v 0.595010 72.975685 3.560677
v 0.645679 72.486282 3.827417
v 0.623614 72.213326 3.754889
v 0.357471 72.492493 3.383410
v 0.394350 72.213326 3.351342
v 0.272636 72.486519 3.006665
v 0.280988 72.213326 3.035754
v 0.241740 72.492493 2.808789
v 0.281823 72.759605 3.038661
v 0.241740 72.759605 2.808789
v 0.395233 72.945801 3.035176
v 0.566404 72.945801 2.986028
v 0.505038 73.069389 3.276840
v 0.250308 72.968529 2.838630
v 0.482995 73.123306 3.188547
v 0.254608 73.242752 2.890210
v 0.619144 73.111679 3.169709
v 0.492885 73.274033 3.225279
v 0.462603 73.482101 3.157537
v 0.631466 73.258034 3.212624
v 0.271139 73.333778 2.909371
v 0.237772 73.438469 2.771108
v 0.394826 73.612259 3.033760
v 0.328939 73.657219 2.887443
v 0.576652 73.647087 3.021720
v 0.527521 73.694672 2.850508
v 0.614647 73.488884 3.154048
v 0.737168 73.612259 2.935463
v 0.745381 73.482101 3.076343
v 0.772330 73.336754 2.765748
v 0.715448 73.657219 2.776465
v 0.665154 73.637077 2.684655
v 0.729000 73.439941 2.630271
v 0.617870 73.538750 2.519976
v 0.728725 73.269249 2.600331
v 0.708638 72.979897 2.578768
v 0.776322 73.245659 2.740653
v 0.606356 73.306366 2.479875
v 0.606356 72.991257 2.479875
v 0.435184 73.336456 2.529023
v 0.435184 72.991257 2.529023
v 0.264013 73.306381 2.578171
v 0.446635 73.574829 2.568904
v 0.493982 73.675087 2.733803
v 0.275514 73.538719 2.618227
v 0.322811 73.637077 2.782951
v 0.222110 73.267975 2.745691
v 0.264013 72.991257 2.578171
v 0.229831 72.979897 2.716248
v 0.264014 72.759605 2.578171
v 0.435185 72.759605 2.529023
v 0.225547 72.759605 2.701327
v 0.264014 72.492493 2.578171
v 0.225548 72.492493 2.701327
v 0.264014 72.213326 2.578171
v 0.435185 72.492493 2.529023
v 0.435185 72.213326 2.529023
v 0.606356 72.492493 2.479875
v 0.704354 72.492493 2.563848
v 0.606356 72.759605 2.479875
v 0.606356 72.213326 2.479875
v 0.706581 72.213326 2.571604
v 0.606356 71.993721 2.479875
v 0.708639 72.005089 2.578768
v 0.606357 71.677254 2.479875
v 0.435185 71.993721 2.529023
v 0.264014 71.993721 2.578171
v 0.435185 71.647179 2.529023
v 0.264014 71.677238 2.578171
v 0.446793 71.407867 2.569450
v 0.618250 71.445442 2.521297
v 0.493984 71.300041 2.733803
v 0.275892 71.445473 2.619539
v 0.322813 71.347900 2.782951
v 0.238295 71.545395 2.771773
v 0.328941 71.327835 2.887442
v 0.271632 71.649849 2.909689
v 0.222084 71.715683 2.745795
v 0.229832 72.005089 2.716248
v 0.254628 71.740997 2.890440
v 0.250309 72.016449 2.838630
v 0.487982 71.849136 3.203985
v 0.395233 72.039177 3.035176
v 0.623109 71.866417 3.183514
v 0.483214 71.661934 3.237492
v 0.634794 71.676559 3.224212
v 0.468861 71.469505 3.179327
v 0.620905 71.469505 3.175839
v 0.394827 71.372650 3.033759
v 0.576653 71.325584 3.021720
v 0.527523 71.279007 2.850508
v 0.737169 71.372650 2.935463
v 0.751639 71.469505 3.098134
v 0.772095 71.646858 2.766284
v 0.715450 71.327835 2.776464
v 0.665155 71.347900 2.684654
v 0.728922 71.543907 2.631123
v 0.728798 71.714409 2.600407
v 0.776412 71.738098 2.740863
v 0.748511 71.849136 3.129179
v 0.756152 72.016449 2.693388
v 0.752038 72.213326 2.679058
v 0.737576 72.039177 2.936880
v 0.772704 71.915596 3.199986
v 0.827141 72.213326 2.878938
v 0.566404 72.039177 2.986028
v 0.639489 71.886597 3.240564
v 0.505039 71.915588 3.276840
v 0.732393 71.945534 3.564125
v 0.597588 71.971664 3.569654
v 0.783510 72.199539 3.742156
v 0.849596 71.971664 3.497295
v 0.925805 72.213326 3.668121
v 0.903502 72.213326 3.204013
v 0.954330 72.492493 3.212034
v 0.818788 72.482498 2.849849
v 0.827975 72.759605 2.881845
v 0.747584 72.492493 2.663547
v 0.747584 72.759605 2.663547
v 0.704354 72.759605 2.563848
v 0.756152 72.968529 2.693388
v 0.737575 72.945801 2.936880
v 0.744547 73.123306 3.113448
v 0.772703 73.069389 3.199986
v 0.639488 73.099319 3.240564
v 0.755650 73.274033 3.149832
v 0.770330 71.661934 3.155053
v 0.246194 72.213326 2.824300
v 0.227775 72.213326 2.709083
vn 0.4426 0.6143 0.6533
vn 0.4541 0.6119 0.6476
vn 0.4355 0.6136 0.6587
vn 0.4579 0.6125 0.6443
vn 0.9499 0.3000 -0.0875
vn 0.9457 0.3112 -0.0942
vn 0.9467 0.3080 -0.0947
vn 0.9485 0.3003 -0.1012
vn 0.9864 0.1631 -0.0216
vn 0.9855 0.1695 -0.0091
vn 0.9864 0.1633 -0.0187
vn 0.9850 0.1724 -0.0117
vn 0.4513 0.2992 0.8407
vn 0.4549 0.3019 0.8378
vn 0.4579 0.3116 0.8326
vn 0.4434 0.3082 0.8417
vn 0.0567 0.2979 0.9529
vn 0.0627 0.2980 0.9525
vn 0.0644 0.3115 0.9481
vn 0.0493 0.3147 0.9479
vn -0.0413 0.6124 0.7895
vn -0.0338 0.6156 0.7873
vn -0.0503 0.6098 0.7910
vn -0.0248 0.6079 0.7936
vn -0.8310 0.1373 0.5390
vn -0.8371 0.1219 0.5333
vn -0.8365 0.1368 0.5306
vn -0.8384 0.1233 0.5309
vn -0.8189 0.3455 0.4584
vn -0.8236 0.3560 0.4416
vn -0.8218 0.3531 0.4472
vn -0.8173 0.3625 0.4479
vn 0.0561 -0.2630 0.9632
vn 0.0742 -0.2646 0.9615
vn 0.0661 -0.2536 0.9651
vn 0.0634 -0.2520 0.9656
vn -0.8461 -0.1183 0.5197
vn -0.8414 -0.1249 0.5257
vn -0.8457 -0.1134 0.5214
vn -0.8424 -0.1311 0.5227
vn -0.9585 -0.0909 0.2701
vn -0.9507 -0.0886 0.2973
vn -0.9579 -0.0742 0.2774
vn -0.9604 -0.0749 0.2683
vn -0.9625 0.0661 0.2632
vn -0.9607 0.0687 0.2689
vn -0.9561 0.0943 0.2775
vn -0.9638 0.0759 0.2557
vn -0.9881 -0.0351 0.1499
vn -0.9885 -0.0107 0.1508
vn -0.9880 -0.0061 0.1541
vn -0.9882 -0.0076 0.1529
vn -0.9870 0.0049 0.1607
vn -0.9864 0.0056 0.1642
vn -0.9864 0.0076 0.1644
vn -0.9899 0.0186 0.1402
vn -0.8837 0.2468 0.3978
vn -0.8842 0.2502 0.3944
vn -0.8878 0.2419 0.3914
vn -0.8849 0.2435 0.3970
vn -0.8662 0.4338 0.2481
vn -0.8639 0.4409 0.2435
vn -0.8658 0.4421 0.2344
vn -0.8678 0.4362 0.2381
vn 0.1237 -0.7204 0.6824
vn -0.2111 0.8849 -0.4153
vn -0.1954 0.8884 -0.4155
vn -0.2006 0.8845 -0.4213
vn -0.2063 0.8829 -0.4219
vn -0.8079 -0.0990 0.5810
vn -0.8121 -0.0457 0.5818
vn 0.0836 -0.2639 0.9609
vn -0.8100 0.0716 0.5821
vn 0.0621 0.2822 0.9573
vn -0.9631 0.0745 0.2585
vn -0.8927 0.1873 0.4099
vn -0.8179 0.1111 0.5646
vn -0.1788 0.9231 0.3405
vn -0.1388 0.9360 0.3235
vn -0.0924 0.9472 0.3069
vn -0.1587 0.9468 0.2798
vn -0.0723 0.7026 0.7079
vn -0.0817 0.6272 0.7746
vn -0.0209 0.6233 0.7817
vn 0.0261 0.6705 0.7415
vn 0.2549 0.9374 0.2371
vn 0.2871 0.9360 0.2035
vn 0.3244 0.9305 0.1699
vn 0.2541 0.9519 0.1712
vn 0.4995 0.6093 0.6159
vn 0.4077 0.6436 0.6477
vn 0.4699 0.6185 0.6298
vn 0.4951 0.6573 0.5681
vn 0.9939 0.1036 0.0378
vn 0.9760 0.1775 -0.1263
vn 0.1203 0.9651 -0.2327
vn 0.1232 0.9652 -0.2306
vn 0.1252 0.9642 -0.2337
vn 0.0817 0.9625 -0.2587
vn 0.7880 0.3873 -0.4787
vn 0.7275 0.0967 -0.6792
vn 0.9567 0.0728 -0.2819
vn 0.6989 0.0023 -0.7153
vn 0.9356 -0.0237 -0.3523
vn -0.2755 -0.0008 -0.9613
vn -0.2755 0.0008 -0.9613
vn -0.2760 -0.0000 -0.9612
vn -0.2399 0.1740 -0.9551
vn -0.2762 0.0009 -0.9611
vn -0.3032 0.1739 -0.9369
vn 0.0345 0.8516 -0.5230
vn -0.3067 0.8516 -0.4251
vn -0.9194 0.3931 0.0094
vn -0.9749 0.0982 -0.1998
vn -0.2303 0.9641 -0.1320
vn -0.2302 0.9642 -0.1317
vn -0.2271 0.9652 -0.1300
vn -0.2490 0.9528 -0.1735
vn -0.9704 -0.0006 -0.2417
vn -0.9634 0.0171 -0.2674
vn -0.9637 0.0177 -0.2664
vn -0.9628 0.0178 -0.2697
vn -0.9631 0.0183 -0.2683
vn -0.2764 0.0009 -0.9611
vn -0.2768 0.0004 -0.9609
vn -0.9541 -0.0005 -0.2996
vn -0.9543 0.0003 -0.2990
vn -0.9545 -0.0005 -0.2981
vn -0.9547 -0.0000 -0.2977
vn -0.9592 -0.0083 -0.2827
vn -0.9594 -0.0077 -0.2821
vn -0.9594 -0.0075 -0.2819
vn -0.2762 -0.0008 -0.9611
vn 0.6624 -0.0073 -0.7492
vn 0.6629 -0.0079 -0.7486
vn 0.6633 -0.0077 -0.7483
vn 0.6495 0.0008 -0.7604
vn 0.6507 0.0000 -0.7594
vn 0.6513 0.0005 -0.7588
vn 0.6510 -0.0008 -0.7590
vn -0.2759 -0.0003 -0.9612
vn 0.6857 -0.0089 -0.7279
vn 0.6847 -0.0086 -0.7288
vn 0.6989 -0.0023 -0.7152
vn -0.2761 0.0003 -0.9611
vn -0.2362 -0.1778 -0.9553
vn -0.3064 -0.1777 -0.9352
vn 0.0554 -0.8388 -0.5415
vn -0.3342 -0.8389 -0.4297
vn -0.9195 -0.3930 0.0095
vn -0.9748 -0.1014 -0.1985
vn -0.8927 -0.1872 0.4099
vn -0.9625 -0.0773 0.2599
vn -0.9812 0.0334 0.1902
vn -0.9703 0.0006 -0.2417
vn -0.8114 0.1034 0.5752
vn -0.8257 0.0698 0.5597
vn 0.1125 0.7285 0.6757
vn 0.0934 0.1939 0.9766
vn 0.0658 -0.2615 0.9630
vn -0.8341 -0.1017 0.5421
vn -0.1137 -0.7641 0.6350
vn -0.0800 -0.7885 0.6099
vn -0.0466 -0.7564 0.6524
vn -0.0922 -0.7395 0.6668
vn -0.8416 -0.1406 0.5216
vn -0.1887 -0.9225 0.3367
vn -0.2231 -0.9164 0.3322
vn -0.1789 -0.9355 0.3048
vn -0.1567 -0.9248 0.3467
vn 0.3407 -0.9223 0.1826
vn 0.3079 -0.9318 0.1924
vn 0.3336 -0.9307 0.1500
vn 0.3687 -0.9128 0.1758
vn 0.3692 -0.7721 0.5172
vn 0.4050 -0.7825 0.4729
vn 0.4371 -0.7428 0.5071
vn 0.4042 -0.7450 0.5307
vn 0.9912 -0.1321 -0.0095
vn 0.9760 -0.1773 -0.1262
vn 0.1710 -0.9514 -0.2562
vn 0.1694 -0.9525 -0.2531
vn 0.1638 -0.9438 -0.2871
vn 0.1710 -0.9513 -0.2565
vn 0.7881 -0.3871 -0.4786
vn 0.7282 -0.0998 -0.6781
vn 0.9569 -0.0755 -0.2805
vn 0.9356 0.0237 -0.3522
vn 0.9973 0.0677 0.0271
vn 0.9942 0.0935 0.0533
vn 0.9214 -0.0020 -0.3886
vn 0.9192 -0.0078 -0.3937
vn 0.9220 -0.0062 -0.3872
vn 0.9227 -0.0050 -0.3856
vn 0.9637 -0.2437 -0.1093
vn 0.9618 -0.2483 -0.1155
vn 0.9641 -0.2375 -0.1188
vn 0.9640 -0.2419 -0.1101
vn -0.0587 -0.8900 -0.4522
vn -0.0668 -0.8863 -0.4582
vn -0.0540 -0.8775 -0.4765
vn -0.0404 -0.8856 -0.4626
vn 0.8701 -0.4266 -0.2468
vn 0.8638 -0.4374 -0.2501
vn 0.8606 -0.4385 -0.2592
vn 0.8641 -0.4249 -0.2696
vn 0.2631 0.7285 0.6325
vn -0.2001 -0.8905 -0.4086
vn -0.2178 -0.8826 -0.4167
vn -0.2115 -0.8785 -0.4285
vn -0.1891 -0.8872 -0.4209
vn -0.1513 -0.9587 0.2408
vn -0.1648 -0.9599 0.2270
vn -0.1612 -0.9612 0.2237
vn -0.1482 -0.9646 0.2180
vn 0.2597 -0.9578 0.1235
vn 0.2541 -0.9611 0.1082
vn 0.2573 -0.9607 0.1039
vn 0.2704 -0.9578 0.0973
vn -0.0300 -0.5844 0.8109
vn -0.0183 -0.5817 0.8132
vn -0.0377 -0.5793 0.8142
vn -0.0255 -0.5876 0.8088
vn 0.4539 -0.5852 0.6720
vn 0.4652 -0.5790 0.6696
vn 0.4477 -0.5810 0.6797
vn 0.4577 -0.5863 0.6684
vn 0.9426 -0.3224 -0.0868
vn 0.9392 -0.3280 -0.1018
vn 0.9444 -0.3142 -0.0964
vn 0.9383 -0.3337 -0.0911
vn 0.9908 -0.1353 -0.0048
vn 0.9930 -0.1178 -0.0092
vn 0.9905 -0.1369 -0.0096
vn 0.9921 -0.1247 -0.0125
vn 0.4485 -0.2633 0.8541
vn 0.4651 -0.2632 0.8452
vn 0.4575 -0.2524 0.8526
vn 0.4559 -0.2542 0.8530
vn 0.9510 -0.0801 -0.2986
vn 0.9543 -0.0809 -0.2876
vn 0.9535 -0.1057 -0.2821
vn 0.9483 -0.0899 -0.3044
vn 0.9517 0.1230 -0.2813
vn 0.9597 0.1183 -0.2550
vn 0.9550 0.1106 -0.2753
vn 0.9548 0.1075 -0.2771
vn 0.9339 0.0283 -0.3565
vn 0.9368 0.0064 -0.3499
vn 0.9367 0.0040 -0.3500
vn 0.9364 0.0045 -0.3508
vn 0.9336 -0.0021 -0.3582
vn 0.9352 -0.0057 -0.3540
vn 0.9356 -0.0079 -0.3529
vn 0.9267 -0.0153 -0.3756
vn 0.9165 -0.0041 -0.4000
vn 0.9191 0.0009 -0.3941
vn 0.9178 0.0005 -0.3971
vn 0.9172 -0.0008 -0.3985
vn 0.9213 0.0138 -0.3886
vn 0.9215 0.0136 -0.3882
vn 0.9213 0.0107 -0.3888
vn 0.9207 0.0139 -0.3900
vn 0.9669 0.2262 -0.1177
vn 0.9671 0.2266 -0.1157
vn 0.9682 0.2191 -0.1211
vn 0.9669 0.2257 -0.1189
vn 0.9942 -0.0890 0.0603
vn 0.2572 -0.7204 0.6441
vn -0.0576 0.8861 -0.4600
vn -0.0462 0.8884 -0.4567
vn -0.0464 0.8836 -0.4659
vn -0.0494 0.8844 -0.4641
vn 0.8912 0.3959 -0.2215
vn 0.8904 0.3934 -0.2290
vn 0.8886 0.3955 -0.2323
vn 0.8897 0.3949 -0.2292
vn 0.2959 0.9306 0.2154
vn 0.2969 0.9301 0.2164
vn 0.3002 0.9299 0.2124
vn 0.2890 0.9336 0.2119
vn -0.1385 0.9301 0.3402
vn -0.1348 0.9295 0.3433
vn -0.1335 0.9314 0.3387
vn -0.1397 0.9313 0.3365
vn 0.4389 -0.2639 0.8589
vn 0.9977 -0.0429 0.0534
vn 0.9962 0.0684 0.0544
vn 0.4552 0.2822 0.8445
vn 0.6744 0.0187 -0.7381
vn 0.6756 0.0186 -0.7371
vn 0.6751 0.0170 -0.7375
vn 0.6742 0.0187 -0.7383
vn -0.8418 -0.3287 0.4282
vn -0.8401 -0.3389 0.4235
vn -0.8374 -0.3362 0.4310
vn -0.8461 -0.3296 0.4190
vn -0.8555 -0.4508 0.2549
vn -0.8635 -0.4351 0.2549
vn -0.8581 -0.4547 0.2386
vn -0.8568 -0.4511 0.2498
vn 0.4389 0.1939 0.8773
vn 0.9950 -0.0991 0.0084
vn 0.4551 -0.2615 0.8512
vn -0.2776 -0.9526 -0.1246
vn -0.2809 -0.9514 -0.1262
vn -0.2613 -0.9523 -0.1577
vn -0.2762 -0.9526 -0.1279
vn -0.8766 -0.2651 0.4017
vn -0.8760 -0.2661 0.4022
vn -0.8807 -0.2560 0.3986
vn -0.8761 -0.2713 0.3985
vn -0.9868 -0.0078 0.1618
vn -0.9868 -0.0064 0.1619
vn -0.9867 -0.0053 0.1628
vn -0.9882 -0.0061 0.1531
vn -0.9675 -0.0089 -0.2529
vn -0.9675 -0.0091 -0.2526
vn -0.9675 -0.0085 -0.2527
vn -0.9674 -0.0098 -0.2532
vn -0.9890 -0.0005 0.1476
vn -0.9888 -0.0015 0.1495
vn -0.9874 0.0122 0.1579
vn -0.9873 0.0147 0.1579
vn -0.9877 0.0130 0.1555
vn -0.9873 0.0104 0.1583
vn -0.9812 -0.0334 0.1902
usemtl FFFFFF
s 1
f 2//1 7//2 5//3 1//4
f 1//5 3//6 133//7 2//8
f 4//9 124//10 3//11 1//12
f 6//13 4//14 1//15 5//16
f 11//17 6//18 5//19 8//20
f 7//21 10//22 8//23 5//24
f 8//25 9//26 13//27 11//28
f 8//29 10//30 22//31 9//32
f 12//33 120//34 6//35 11//36
f 11//37 13//38 14//39 12//40
f 13//41 15//42 16//43 14//44
f 9//45 18//46 15//47 13//48
f 15//49 17//50 137//51 16//52
f 18//53 19//54 17//55 15//56
f 19//57 18//58 20//59 23//60
f 20//61 18//62 9//63 22//64
f 26//65 24//65 20//65 21//65
f 21//66 20//67 22//68 134//69
f 20//70 24//70 25//70 23//70
f 27//71 30//71 25//71 24//71
f 24//72 26//72 29//72 27//72
f 28//73 30//73 27//73
f 36//74 28//74 27//74 29//74
f 56//75 25//75 30//75 31//75
f 33//76 31//76 30//76 32//76
f 32//77 30//77 28//77
f 35//78 33//79 32//80 34//81
f 36//82 34//83 32//84 28//85
f 40//86 35//87 34//88 37//89
f 38//90 37//91 34//92 36//93
f 37//94 38//94 39//94
f 40//95 37//95 39//95 42//95
f 41//96 53//97 35//98 40//99
f 41//100 40//100 42//100 43//100
f 43//101 42//101 44//101 47//101
f 42//102 39//102 46//102 44//102
f 45//103 48//103 47//103 44//103
f 130//104 45//104 44//104 46//104
f 48//105 50//106 49//107 47//107
f 47//108 49//108 52//108 43//108
f 50//106 57//109 51//107 49//107
f 49//110 51//110 54//110 52//110
f 43//111 52//111 53//111 41//111
f 52//112 54//112 55//112 53//112
f 55//113 54//113 31//113 33//113
f 51//114 56//114 31//114 54//114
f 53//115 55//116 33//117 35//118
f 58//119 56//119 51//119 57//119
f 59//120 61//121 58//122 57//123
f 60//124 59//125 57//109 50//106
f 59//125 60//124 65//107 62//107
f 61//126 59//127 62//128 63//129
f 63//130 62//131 64//131 138//132
f 62//107 65//107 66//107 64//107
f 65//107 67//107 70//107 66//107
f 60//124 69//133 67//107 65//107
f 71//134 70//135 67//136 68//136
f 68//137 67//138 69//139 129//140
f 70//107 72//141 75//107 66//107
f 70//142 71//142 73//143 72//142
f 73//144 107//144 74//144 72//144
f 72//141 74//107 77//107 75//107
f 66//107 75//107 76//145 64//107
f 75//107 77//107 78//107 76//145
f 80//146 79//146 77//146 74//146
f 79//147 82//147 78//147 77//147
f 80//148 105//148 81//148 79//148
f 79//149 81//149 83//149 82//149
f 83//150 85//150 84//150 82//150
f 82//151 84//151 87//151 78//151
f 85//152 98//152 86//152 84//152
f 84//153 86//153 89//153 87//153
f 90//154 88//154 87//154 89//154
f 88//155 76//155 78//155 87//155
f 92//156 90//156 89//156 91//156
f 91//157 89//157 86//157 94//157
f 93//158 115//158 92//158 91//158
f 93//159 91//159 94//159 95//159
f 97//160 95//160 94//160 96//160
f 86//161 96//161 94//161
f 97//162 96//163 98//164 99//165
f 98//166 96//166 86//166
f 100//167 99//168 98//169 85//170
f 104//171 101//172 99//173 100//174
f 102//175 97//176 99//177 101//178
f 101//179 103//179 102//179
f 104//180 106//180 103//180 101//180
f 105//181 104//182 100//183 81//184
f 105//185 80//185 106//185 104//185
f 74//186 107//186 106//186 80//186
f 107//187 108//187 103//187 106//187
f 110//188 108//188 107//188 73//188
f 136//189 103//189 108//189 109//189
f 112//190 109//190 108//190 110//190
f 71//191 111//192 110//193 73//194
f 111//195 114//196 112//197 110//198
f 112//199 113//200 116//201 115//202
f 112//203 114//204 123//205 113//206
f 109//207 112//207 115//207 93//207
f 115//208 116//209 117//210 92//211
f 116//212 118//213 119//214 117//215
f 113//216 121//217 118//218 116//219
f 118//220 120//221 12//222 119//223
f 121//224 122//225 120//226 118//227
f 122//228 121//229 113//230 123//231
f 122//232 123//233 124//234 4//235
f 120//236 122//237 4//238 6//239
f 123//240 114//241 125//242 124//243
f 124//244 125//245 126//246 3//247
f 125//248 127//249 128//250 126//251
f 114//252 111//253 127//254 125//255
f 127//256 68//257 129//258 128//259
f 111//192 71//191 68//257 127//256
f 129//260 45//261 130//262 128//263
f 128//264 130//265 131//266 126//267
f 131//268 130//268 46//268 132//268
f 132//269 26//269 21//269 131//269
f 131//270 21//271 134//272 133//273
f 131//274 133//275 3//276 126//277
f 133//278 134//279 7//280 2//281
f 134//282 22//283 10//284 7//285
f 26//286 132//286 135//286 29//286
f 132//287 46//287 39//287 135//287
f 39//288 38//288 135//288
f 38//289 36//289 29//289 135//289
f 69//290 48//291 45//292 129//293
f 12//294 14//295 117//296 119//297
f 92//298 117//299 14//300 16//301
f 109//302 93//302 95//302 136//302
f 102//303 103//303 136//303
f 102//304 136//304 95//304 97//304
f 81//305 100//306 85//307 83//308
f 137//309 90//310 92//311 16//312
f 138//313 88//314 90//315 137//51
f 17//50 63//316 138//313 137//51
f 64//317 76//318 88//319 138//320
f 69//133 60//124 50//106 48//105
f 19//321 61//322 63//316 17//50
f 61//323 19//324 23//325 58//326
f 23//327 25//327 56//327 58//327
