# Blender v2.81 (sub 16) OBJ File: 'airport.blend'
# www.blender.org
mtllib 8.mtl
o clouds_01_Plane.008_clouds_01_Plane.010
v -0.975100 77.326561 4.017065
v -1.038069 77.514328 3.872456
v -1.002163 77.326561 3.623315
v -0.952445 77.090637 4.092215
v -1.096739 77.338821 4.080917
v -1.075091 77.090012 4.156309
v -1.139919 77.536179 3.930531
v -1.233672 77.326561 4.091498
v -1.435369 77.326561 3.756842
v -1.257064 77.514328 3.935336
v -1.213033 77.089043 4.167132
v -1.232207 76.851837 4.104105
v -1.463485 77.094437 3.781290
v -1.431437 76.851837 3.753423
v -1.537207 77.089241 3.453899
v -1.529949 76.851837 3.479177
v -1.564055 77.094437 3.281945
v -1.529224 77.326561 3.481704
v -1.564055 77.326561 3.281945
v -1.430670 77.488365 3.478675
v -1.281923 77.488365 3.435965
v -1.335249 77.595757 3.688681
v -1.556610 77.508110 3.307877
v -1.354405 77.642616 3.611954
v -1.552873 77.746414 3.352700
v -1.236092 77.632507 3.595584
v -1.345810 77.773590 3.643874
v -1.372126 77.954407 3.585006
v -1.225384 77.759689 3.632877
v -1.538508 77.825508 3.369350
v -1.567504 77.916489 3.249199
v -1.431024 78.067513 3.477444
v -1.488279 78.106583 3.350295
v -1.273017 78.097778 3.466982
v -1.315712 78.139130 3.318199
v -1.240000 77.960297 3.581975
v -1.133529 78.067513 3.392025
v -1.126392 77.954407 3.514449
v -1.102973 77.828094 3.244542
v -1.152403 78.106583 3.253855
v -1.196110 78.089081 3.174072
v -1.140627 77.917770 3.126812
v -1.237199 78.003632 3.030967
v -1.140865 77.769440 3.100795
v -1.158321 77.517990 3.082057
v -1.099504 77.748940 3.222735
v -1.247205 77.801689 2.996119
v -1.247205 77.527863 2.996119
v -1.395953 77.827843 3.038828
v -1.395952 77.527863 3.038828
v -1.544700 77.801704 3.081538
v -1.386002 78.034988 3.073484
v -1.344857 78.122108 3.216782
v -1.534706 78.003609 3.116347
v -1.493605 78.089081 3.259492
v -1.581114 77.768326 3.227112
v -1.544700 77.527863 3.081538
v -1.574404 77.517990 3.201526
v -1.544700 77.326561 3.081538
v -1.395952 77.326561 3.038828
v -1.578127 77.326561 3.188560
v -1.544700 77.094437 3.081538
v -1.578127 77.094437 3.188560
v -1.544700 76.851837 3.081538
v -1.395952 77.094437 3.038828
v -1.395952 76.851837 3.038828
v -1.247204 77.094437 2.996118
v -1.162044 77.094437 3.069091
v -1.247205 77.326561 2.996119
v -1.247204 76.851837 2.996118
v -1.160109 76.851837 3.075830
v -1.247204 76.661003 2.996118
v -1.158321 76.670883 3.082057
v -1.247204 76.385994 2.996118
v -1.395952 76.661003 3.038828
v -1.544699 76.661003 3.081538
v -1.395952 76.359856 3.038828
v -1.544699 76.385979 3.081538
v -1.385864 76.151901 3.073959
v -1.236868 76.184547 3.032115
v -1.344856 76.058197 3.216782
v -1.534377 76.184578 3.117486
v -1.493603 76.099785 3.259491
v -1.567049 76.271408 3.249778
v -1.488278 76.082352 3.350295
v -1.538079 76.362183 3.369627
v -1.581137 76.419388 3.227203
v -1.574404 76.670883 3.201526
v -1.552856 76.441391 3.352900
v -1.556609 76.680756 3.307877
v -1.350071 76.535362 3.625370
v -1.430670 76.700508 3.478675
v -1.232646 76.550377 3.607581
v -1.354215 76.372681 3.654487
v -1.222492 76.385391 3.642947
v -1.366687 76.205460 3.603942
v -1.234561 76.205460 3.600911
v -1.431023 76.121292 3.477444
v -1.273016 76.080391 3.466982
v -1.315710 76.039917 3.318198
v -1.133528 76.121292 3.392025
v -1.120953 76.205460 3.533385
v -1.103177 76.359581 3.245008
v -1.152402 76.082352 3.253855
v -1.196108 76.099785 3.174072
v -1.140694 76.270111 3.127553
v -1.140803 76.418282 3.100861
v -1.099426 76.438866 3.222917
v -1.123671 76.535362 3.560364
v -1.117031 76.680756 3.181661
v -1.120607 76.851837 3.169208
v -1.133175 76.700508 3.393255
v -1.102648 76.593109 3.621895
v -1.055343 76.851837 3.342905
v -1.281922 76.700508 3.435965
v -1.218412 76.567917 3.657157
v -1.335249 76.593109 3.688681
v -1.137679 76.619125 3.938332
v -1.254823 76.641838 3.943136
v -1.093257 76.839859 4.093040
v -1.035829 76.641838 3.880256
v -0.969603 76.851837 4.028704
v -0.988985 76.851837 3.625394
v -0.944815 77.094437 3.632365
v -1.062601 77.085747 3.317626
v -1.054618 77.326561 3.345430
v -1.124477 77.094437 3.155729
v -1.124478 77.326561 3.155730
v -1.162044 77.326561 3.069091
v -1.117032 77.508110 3.181661
v -1.133175 77.488365 3.393255
v -1.127116 77.642616 3.546693
v -1.102649 77.595757 3.621895
v -1.218412 77.621765 3.657157
v -1.117468 77.773590 3.578311
v -1.104711 76.372681 3.582848
v -1.560185 76.851837 3.295424
v -1.576192 76.851837 3.195300
vn 0.4426 0.6143 0.6533
vn 0.4541 0.6119 0.6476
vn 0.4355 0.6136 0.6586
vn 0.4579 0.6125 0.6443
vn 0.9499 0.3000 -0.0875
vn 0.9457 0.3112 -0.0942
vn 0.9467 0.3080 -0.0948
vn 0.9485 0.3003 -0.1012
vn 0.9864 0.1631 -0.0217
vn 0.9855 0.1695 -0.0091
vn 0.9864 0.1633 -0.0187
vn 0.9850 0.1724 -0.0117
vn 0.4512 0.2992 0.8408
vn 0.4550 0.3019 0.8377
vn 0.4579 0.3116 0.8326
vn 0.4434 0.3082 0.8417
vn 0.0567 0.2979 0.9529
vn 0.0627 0.2980 0.9525
vn 0.0644 0.3115 0.9481
vn 0.0493 0.3147 0.9479
vn -0.0413 0.6124 0.7895
vn -0.0338 0.6156 0.7873
vn -0.0502 0.6098 0.7910
vn -0.0247 0.6079 0.7936
vn -0.8310 0.1373 0.5390
vn -0.8371 0.1219 0.5333
vn -0.8365 0.1368 0.5306
vn -0.8384 0.1233 0.5309
vn -0.8189 0.3455 0.4584
vn -0.8236 0.3560 0.4415
vn -0.8218 0.3531 0.4472
vn -0.8173 0.3625 0.4478
vn 0.0561 -0.2630 0.9632
vn 0.0742 -0.2646 0.9615
vn 0.0661 -0.2535 0.9651
vn 0.0633 -0.2520 0.9657
vn -0.8461 -0.1183 0.5197
vn -0.8414 -0.1249 0.5257
vn -0.8457 -0.1134 0.5214
vn -0.8424 -0.1311 0.5227
vn -0.9585 -0.0909 0.2701
vn -0.9507 -0.0886 0.2973
vn -0.9579 -0.0742 0.2774
vn -0.9604 -0.0749 0.2683
vn -0.9625 0.0661 0.2632
vn -0.9607 0.0687 0.2688
vn -0.9561 0.0943 0.2775
vn -0.9638 0.0759 0.2557
vn -0.9881 -0.0351 0.1499
vn -0.9885 -0.0108 0.1508
vn -0.9880 -0.0061 0.1541
vn -0.9882 -0.0076 0.1529
vn -0.9870 0.0049 0.1607
vn -0.9864 0.0057 0.1642
vn -0.9864 0.0075 0.1643
vn -0.9899 0.0186 0.1402
vn -0.8837 0.2468 0.3978
vn -0.8842 0.2502 0.3944
vn -0.8879 0.2419 0.3914
vn -0.8849 0.2435 0.3970
vn -0.8662 0.4338 0.2481
vn -0.8639 0.4409 0.2434
vn -0.8658 0.4421 0.2344
vn -0.8678 0.4362 0.2380
vn 0.1237 -0.7204 0.6824
vn -0.2111 0.8849 -0.4153
vn -0.1953 0.8884 -0.4155
vn -0.2006 0.8845 -0.4213
vn -0.2062 0.8829 -0.4219
vn -0.8079 -0.0990 0.5810
vn -0.8121 -0.0458 0.5817
vn 0.0836 -0.2639 0.9609
vn -0.8100 0.0716 0.5821
vn 0.0621 0.2822 0.9574
vn -0.9631 0.0745 0.2586
vn -0.8927 0.1873 0.4099
vn -0.8178 0.1110 0.5646
vn -0.1788 0.9231 0.3404
vn -0.1388 0.9360 0.3234
vn -0.0925 0.9473 0.3068
vn -0.1587 0.9469 0.2798
vn -0.0723 0.7026 0.7079
vn -0.0817 0.6272 0.7745
vn -0.0209 0.6233 0.7817
vn 0.0261 0.6705 0.7415
vn 0.2549 0.9374 0.2371
vn 0.2871 0.9360 0.2035
vn 0.3244 0.9305 0.1699
vn 0.2541 0.9519 0.1712
vn 0.4995 0.6093 0.6159
vn 0.4077 0.6436 0.6477
vn 0.4699 0.6185 0.6298
vn 0.4951 0.6573 0.5681
vn 0.9939 0.1036 0.0378
vn 0.9760 0.1775 -0.1263
vn 0.1203 0.9651 -0.2327
vn 0.1232 0.9652 -0.2306
vn 0.1252 0.9642 -0.2337
vn 0.0817 0.9625 -0.2587
vn 0.7880 0.3873 -0.4786
vn 0.7275 0.0967 -0.6792
vn 0.9567 0.0728 -0.2819
vn 0.6989 0.0023 -0.7153
vn 0.9356 -0.0237 -0.3523
vn -0.2755 -0.0008 -0.9613
vn -0.2755 0.0008 -0.9613
vn -0.2760 -0.0000 -0.9612
vn -0.2399 0.1740 -0.9551
vn -0.2762 0.0009 -0.9611
vn -0.3031 0.1739 -0.9369
vn 0.0345 0.8516 -0.5230
vn -0.3067 0.8516 -0.4250
vn -0.9194 0.3931 0.0094
vn -0.9749 0.0982 -0.1998
vn -0.2303 0.9641 -0.1321
vn -0.2302 0.9642 -0.1318
vn -0.2271 0.9652 -0.1300
vn -0.2490 0.9528 -0.1735
vn -0.9704 -0.0006 -0.2417
vn -0.9634 0.0170 -0.2674
vn -0.9637 0.0177 -0.2663
vn -0.9628 0.0178 -0.2697
vn -0.9631 0.0183 -0.2684
vn -0.2764 0.0009 -0.9611
vn -0.2768 0.0004 -0.9609
vn -0.9541 -0.0005 -0.2995
vn -0.9543 0.0003 -0.2990
vn -0.9545 -0.0000 -0.2981
vn -0.9546 -0.0000 -0.2978
vn -0.9592 -0.0083 -0.2827
vn -0.9594 -0.0077 -0.2821
vn -0.2762 -0.0008 -0.9611
vn 0.6623 -0.0073 -0.7492
vn 0.6630 -0.0079 -0.7486
vn 0.6633 -0.0077 -0.7483
vn 0.6495 0.0008 -0.7604
vn 0.6507 0.0000 -0.7594
vn 0.6513 0.0005 -0.7588
vn 0.6511 -0.0009 -0.7590
vn -0.2759 -0.0003 -0.9612
vn 0.6856 -0.0089 -0.7279
vn 0.6847 -0.0086 -0.7287
vn 0.6989 -0.0023 -0.7152
vn -0.2761 0.0003 -0.9611
vn -0.2362 -0.1778 -0.9553
vn -0.3064 -0.1777 -0.9352
vn 0.0553 -0.8388 -0.5415
vn -0.3342 -0.8388 -0.4297
vn -0.9195 -0.3930 0.0095
vn -0.9748 -0.1014 -0.1985
vn -0.8927 -0.1872 0.4099
vn -0.9625 -0.0773 0.2599
vn -0.9812 0.0334 0.1902
vn -0.9704 0.0006 -0.2417
vn -0.8114 0.1034 0.5752
vn -0.8257 0.0698 0.5597
vn 0.1125 0.7286 0.6757
vn 0.0934 0.1939 0.9766
vn 0.0658 -0.2615 0.9630
vn -0.8341 -0.1017 0.5421
vn -0.1137 -0.7641 0.6350
vn -0.0800 -0.7885 0.6099
vn -0.0466 -0.7564 0.6524
vn -0.0922 -0.7395 0.6668
vn -0.8416 -0.1406 0.5215
vn -0.1887 -0.9225 0.3367
vn -0.2231 -0.9164 0.3322
vn -0.1789 -0.9355 0.3048
vn -0.1568 -0.9248 0.3467
vn 0.3407 -0.9223 0.1826
vn 0.3079 -0.9318 0.1924
vn 0.3336 -0.9307 0.1500
vn 0.3687 -0.9128 0.1758
vn 0.3692 -0.7721 0.5172
vn 0.4050 -0.7825 0.4729
vn 0.4371 -0.7428 0.5071
vn 0.4042 -0.7450 0.5307
vn 0.9912 -0.1321 -0.0095
vn 0.9760 -0.1773 -0.1262
vn 0.1710 -0.9514 -0.2562
vn 0.1695 -0.9525 -0.2531
vn 0.1638 -0.9438 -0.2871
vn 0.1711 -0.9513 -0.2565
vn 0.7881 -0.3871 -0.4786
vn 0.7282 -0.0998 -0.6781
vn 0.9569 -0.0755 -0.2805
vn 0.9356 0.0237 -0.3522
vn 0.9973 0.0677 0.0271
vn 0.9942 0.0935 0.0533
vn 0.9214 -0.0020 -0.3886
vn 0.9192 -0.0078 -0.3937
vn 0.9220 -0.0062 -0.3872
vn 0.9226 -0.0051 -0.3856
vn 0.9637 -0.2437 -0.1094
vn 0.9618 -0.2483 -0.1155
vn 0.9641 -0.2375 -0.1188
vn 0.9640 -0.2419 -0.1101
vn -0.0588 -0.8900 -0.4521
vn -0.0668 -0.8863 -0.4582
vn -0.0540 -0.8775 -0.4765
vn -0.0405 -0.8856 -0.4626
vn 0.8701 -0.4266 -0.2468
vn 0.8638 -0.4374 -0.2501
vn 0.8606 -0.4385 -0.2592
vn 0.8641 -0.4249 -0.2696
vn 0.2631 0.7285 0.6325
vn -0.2001 -0.8905 -0.4086
vn -0.2177 -0.8826 -0.4167
vn -0.2115 -0.8784 -0.4285
vn -0.1891 -0.8872 -0.4209
vn -0.1513 -0.9587 0.2408
vn -0.1647 -0.9599 0.2270
vn -0.1612 -0.9612 0.2237
vn -0.1482 -0.9646 0.2179
vn 0.2597 -0.9578 0.1235
vn 0.2542 -0.9611 0.1082
vn 0.2573 -0.9607 0.1039
vn 0.2704 -0.9578 0.0973
vn -0.0300 -0.5844 0.8109
vn -0.0183 -0.5817 0.8132
vn -0.0377 -0.5793 0.8142
vn -0.0255 -0.5876 0.8087
vn 0.4539 -0.5852 0.6720
vn 0.4652 -0.5790 0.6696
vn 0.4478 -0.5810 0.6797
vn 0.4577 -0.5863 0.6684
vn 0.9426 -0.3224 -0.0868
vn 0.9392 -0.3280 -0.1018
vn 0.9445 -0.3142 -0.0964
vn 0.9383 -0.3337 -0.0911
vn 0.9908 -0.1353 -0.0048
vn 0.9930 -0.1178 -0.0092
vn 0.9905 -0.1369 -0.0096
vn 0.9921 -0.1247 -0.0126
vn 0.4485 -0.2633 0.8541
vn 0.4651 -0.2632 0.8452
vn 0.4575 -0.2524 0.8526
vn 0.4559 -0.2542 0.8530
vn 0.9510 -0.0801 -0.2986
vn 0.9543 -0.0809 -0.2876
vn 0.9535 -0.1057 -0.2821
vn 0.9483 -0.0899 -0.3044
vn 0.9517 0.1230 -0.2813
vn 0.9597 0.1183 -0.2550
vn 0.9549 0.1106 -0.2754
vn 0.9548 0.1075 -0.2771
vn 0.9339 0.0283 -0.3565
vn 0.9368 0.0064 -0.3499
vn 0.9367 0.0040 -0.3500
vn 0.9364 0.0043 -0.3508
vn 0.9337 -0.0021 -0.3582
vn 0.9352 -0.0057 -0.3540
vn 0.9356 -0.0079 -0.3530
vn 0.9267 -0.0153 -0.3756
vn 0.9165 -0.0041 -0.4000
vn 0.9191 0.0009 -0.3940
vn 0.9178 0.0004 -0.3971
vn 0.9172 -0.0007 -0.3984
vn 0.9213 0.0137 -0.3886
vn 0.9215 0.0136 -0.3882
vn 0.9213 0.0107 -0.3887
vn 0.9207 0.0139 -0.3899
vn 0.9669 0.2262 -0.1177
vn 0.9671 0.2266 -0.1157
vn 0.9682 0.2191 -0.1211
vn 0.9669 0.2257 -0.1190
vn 0.9942 -0.0890 0.0603
vn 0.2572 -0.7204 0.6441
vn -0.0576 0.8861 -0.4599
vn -0.0462 0.8884 -0.4567
vn -0.0464 0.8836 -0.4659
vn -0.0493 0.8844 -0.4642
vn 0.8912 0.3959 -0.2215
vn 0.8904 0.3934 -0.2290
vn 0.8886 0.3955 -0.2323
vn 0.8897 0.3949 -0.2292
vn 0.2959 0.9306 0.2154
vn 0.2969 0.9300 0.2165
vn 0.3002 0.9299 0.2124
vn 0.2890 0.9336 0.2119
vn -0.1384 0.9301 0.3402
vn -0.1348 0.9295 0.3433
vn -0.1335 0.9314 0.3387
vn -0.1396 0.9313 0.3365
vn 0.4389 -0.2639 0.8589
vn 0.9977 -0.0429 0.0534
vn 0.9962 0.0684 0.0544
vn 0.4552 0.2822 0.8445
vn 0.6743 0.0188 -0.7382
vn 0.6756 0.0186 -0.7370
vn 0.6752 0.0168 -0.7375
vn 0.6742 0.0188 -0.7383
vn -0.8418 -0.3287 0.4283
vn -0.8401 -0.3389 0.4235
vn -0.8374 -0.3362 0.4310
vn -0.8461 -0.3296 0.4190
vn -0.8555 -0.4508 0.2549
vn -0.8635 -0.4351 0.2549
vn -0.8581 -0.4547 0.2386
vn -0.8568 -0.4511 0.2498
vn 0.4389 0.1939 0.8774
vn 0.9950 -0.0991 0.0084
vn 0.4551 -0.2615 0.8512
vn -0.2776 -0.9526 -0.1246
vn -0.2809 -0.9514 -0.1262
vn -0.2613 -0.9523 -0.1577
vn -0.2761 -0.9526 -0.1279
vn -0.8766 -0.2651 0.4017
vn -0.8760 -0.2661 0.4022
vn -0.8807 -0.2560 0.3986
vn -0.8761 -0.2713 0.3985
vn -0.9868 -0.0078 0.1618
vn -0.9867 -0.0066 0.1621
vn -0.9866 -0.0052 0.1628
vn -0.9882 -0.0061 0.1531
vn -0.9674 -0.0089 -0.2529
vn -0.9675 -0.0085 -0.2527
vn -0.9674 -0.0097 -0.2532
vn -0.9890 -0.0005 0.1476
vn -0.9888 -0.0015 0.1495
vn -0.9874 0.0122 0.1579
vn -0.9873 0.0146 0.1579
vn -0.9877 0.0130 0.1555
vn -0.9873 0.0104 0.1583
vn -0.9812 -0.0334 0.1902
usemtl FFFFFF
s 1
f 2//1 7//2 5//3 1//4
f 1//5 3//6 133//7 2//8
f 4//9 124//10 3//11 1//12
f 6//13 4//14 1//15 5//16
f 11//17 6//18 5//19 8//20
f 7//21 10//22 8//23 5//24
f 8//25 9//26 13//27 11//28
f 8//29 10//30 22//31 9//32
f 12//33 120//34 6//35 11//36
f 11//37 13//38 14//39 12//40
f 13//41 15//42 16//43 14//44
f 9//45 18//46 15//47 13//48
f 15//49 17//50 137//51 16//52
f 18//53 19//54 17//55 15//56
f 19//57 18//58 20//59 23//60
f 20//61 18//62 9//63 22//64
f 26//65 24//65 20//65 21//65
f 21//66 20//67 22//68 134//69
f 20//70 24//70 25//70 23//70
f 27//71 30//71 25//71 24//71
f 24//72 26//72 29//72 27//72
f 28//73 30//73 27//73
f 36//74 28//74 27//74 29//74
f 56//75 25//75 30//75 31//75
f 33//76 31//76 30//76 32//76
f 32//77 30//77 28//77
f 35//78 33//79 32//80 34//81
f 36//82 34//83 32//84 28//85
f 40//86 35//87 34//88 37//89
f 38//90 37//91 34//92 36//93
f 37//94 38//94 39//94
f 40//95 37//95 39//95 42//95
f 41//96 53//97 35//98 40//99
f 41//100 40//100 42//100 43//100
f 43//101 42//101 44//101 47//101
f 42//102 39//102 46//102 44//102
f 45//103 48//103 47//103 44//103
f 130//104 45//104 44//104 46//104
f 48//105 50//106 49//107 47//107
f 47//108 49//108 52//108 43//108
f 50//106 57//109 51//107 49//107
f 49//110 51//110 54//110 52//110
f 43//111 52//111 53//111 41//111
f 52//112 54//112 55//112 53//112
f 55//113 54//113 31//113 33//113
f 51//114 56//114 31//114 54//114
f 53//115 55//116 33//117 35//118
f 58//119 56//119 51//119 57//119
f 59//120 61//121 58//122 57//123
f 60//124 59//125 57//109 50//106
f 59//125 60//124 65//107 62//107
f 61//126 59//127 62//128 63//129
f 63//130 62//131 64//131 138//131
f 62//107 65//107 66//107 64//107
f 65//107 67//107 70//107 66//107
f 60//124 69//132 67//107 65//107
f 71//133 70//134 67//135 68//135
f 68//136 67//137 69//138 129//139
f 70//107 72//140 75//107 66//107
f 70//141 71//141 73//142 72//141
f 73//143 107//143 74//143 72//143
f 72//140 74//107 77//107 75//107
f 66//107 75//107 76//144 64//107
f 75//107 77//107 78//107 76//144
f 80//145 79//145 77//145 74//145
f 79//146 82//146 78//146 77//146
f 80//147 105//147 81//147 79//147
f 79//148 81//148 83//148 82//148
f 83//149 85//149 84//149 82//149
f 82//150 84//150 87//150 78//150
f 85//151 98//151 86//151 84//151
f 84//152 86//152 89//152 87//152
f 90//153 88//153 87//153 89//153
f 88//154 76//154 78//154 87//154
f 92//155 90//155 89//155 91//155
f 91//156 89//156 86//156 94//156
f 93//157 115//157 92//157 91//157
f 93//158 91//158 94//158 95//158
f 97//159 95//159 94//159 96//159
f 86//160 96//160 94//160
f 97//161 96//162 98//163 99//164
f 98//165 96//165 86//165
f 100//166 99//167 98//168 85//169
f 104//170 101//171 99//172 100//173
f 102//174 97//175 99//176 101//177
f 101//178 103//178 102//178
f 104//179 106//179 103//179 101//179
f 105//180 104//181 100//182 81//183
f 105//184 80//184 106//184 104//184
f 74//185 107//185 106//185 80//185
f 107//186 108//186 103//186 106//186
f 110//187 108//187 107//187 73//187
f 136//188 103//188 108//188 109//188
f 112//189 109//189 108//189 110//189
f 71//190 111//191 110//192 73//193
f 111//194 114//195 112//196 110//197
f 112//198 113//199 116//200 115//201
f 112//202 114//203 123//204 113//205
f 109//206 112//206 115//206 93//206
f 115//207 116//208 117//209 92//210
f 116//211 118//212 119//213 117//214
f 113//215 121//216 118//217 116//218
f 118//219 120//220 12//221 119//222
f 121//223 122//224 120//225 118//226
f 122//227 121//228 113//229 123//230
f 122//231 123//232 124//233 4//234
f 120//235 122//236 4//237 6//238
f 123//239 114//240 125//241 124//242
f 124//243 125//244 126//245 3//246
f 125//247 127//248 128//249 126//250
f 114//251 111//252 127//253 125//254
f 127//255 68//256 129//257 128//258
f 111//191 71//190 68//256 127//255
f 129//259 45//260 130//261 128//262
f 128//263 130//264 131//265 126//266
f 131//267 130//267 46//267 132//267
f 132//268 26//268 21//268 131//268
f 131//269 21//270 134//271 133//272
f 131//273 133//274 3//275 126//276
f 133//277 134//278 7//279 2//280
f 134//281 22//282 10//283 7//284
f 26//285 132//285 135//285 29//285
f 132//286 46//286 39//286 135//286
f 39//287 38//287 135//287
f 38//288 36//288 29//288 135//288
f 69//289 48//290 45//291 129//292
f 12//293 14//294 117//295 119//296
f 92//297 117//298 14//299 16//300
f 109//301 93//301 95//301 136//301
f 102//302 103//302 136//302
f 102//303 136//303 95//303 97//303
f 81//304 100//305 85//306 83//307
f 137//308 90//309 92//310 16//311
f 138//312 88//313 90//314 137//51
f 17//50 63//315 138//312 137//51
f 64//316 76//316 88//317 138//318
f 69//132 60//124 50//106 48//105
f 19//319 61//320 63//315 17//50
f 61//321 19//322 23//323 58//324
f 23//325 25//325 56//325 58//325
