# Blender v2.81 (sub 16) OBJ File: 'airport.blend'
# www.blender.org
mtllib hallway.mtl
o wall_Cube.005
v -5.043823 56.728172 -1.261524
v -5.043823 56.728172 8.343355
v -5.610682 56.728172 -1.261524
v -5.610682 56.728172 8.343355
v -5.043823 91.047325 -1.261524
v -5.043823 91.047325 8.343355
v -5.610682 91.047325 -1.261524
v -5.610682 91.047325 8.343355
v -5.043823 56.728172 7.593354
v -5.610682 56.728172 7.593354
v -5.610682 91.047325 7.593354
v -5.043823 91.047325 7.593354
v 5.370823 56.728172 7.593354
v 5.370823 56.728172 8.343355
v 5.370823 91.047325 8.343355
v 5.370823 91.047325 7.593354
vt 0.602691 0.000000
vt 0.625000 0.000000
vt 0.625000 0.250000
vt 0.602691 0.250000
vt 0.625000 0.500000
vt 0.602691 0.500000
vt 0.625000 0.750000
vt 0.602691 0.750000
vt 0.625000 0.750000
vt 0.602691 0.750000
vt 0.125000 0.500000
vt 0.375000 0.500000
vt 0.375000 0.750000
vt 0.125000 0.750000
vt 0.875000 0.500000
vt 0.875000 0.750000
vt 0.602691 1.000000
vt 0.375000 1.000000
vt 0.375000 0.250000
vt 0.375000 0.000000
vt 0.000000 0.000000
vt 0.000000 0.000000
vt 0.000000 0.000000
vt 0.000000 0.000000
vt 0.625000 1.000000
vt 0.602691 1.000000
vt 0.875000 0.750000
vt 0.602691 0.000000
vt 0.625000 0.000000
vn 0.0000 -1.0000 0.0000
vn -1.0000 0.0000 0.0000
vn 0.0000 1.0000 0.0000
vn 0.0000 0.0000 -1.0000
vn 0.0000 0.0000 1.0000
vn 1.0000 0.0000 0.0000
usemtl None
s off
f 9/1/1 2/2/1 4/3/1 10/4/1
f 10/4/2 4/3/2 8/5/2 11/6/2
f 11/6/3 8/5/3 6/7/3 12/8/3
f 12/8/3 6/7/3 15/9/3 16/10/3
f 3/11/4 7/12/4 5/13/4 1/14/4
f 8/5/5 4/15/5 2/16/5 6/7/5
f 5/13/6 12/8/6 9/17/6 1/18/6
f 7/12/3 11/6/3 12/8/3 5/13/3
f 3/19/2 10/4/2 11/6/2 7/12/2
f 1/20/1 9/1/1 10/4/1 3/19/1
f 12/21/5 11/22/5 10/23/5 9/24/5
f 16/10/6 15/9/6 14/25/6 13/26/6
f 6/7/5 2/16/5 14/27/5 15/9/5
f 9/17/4 12/8/4 16/10/4 13/26/4
f 2/2/1 9/1/1 13/28/1 14/29/1
